SplineFontDB: 3.0
FontName: Strait-Regular
FullName: Strait
FamilyName: Strait
Weight: Book
Copyright: Copyright (c) 2012, Eduardo Tunni (http://www.tipo.net.ar), with Reserved Font Name 'Strait'
Version: 1.001
ItalicAngle: 0
UnderlinePosition: -50
UnderlineWidth: 50
Ascent: 800
Descent: 200
sfntRevision: 0x00010042
LayerCount: 2
Layer: 0 1 "Back"  1
Layer: 1 1 "Fore"  0
XUID: [1021 577 1360640583 12179199]
FSType: 0
OS2Version: 3
OS2_WeightWidthSlopeOnly: 0
OS2_UseTypoMetrics: 1
CreationTime: 1340663220
ModificationTime: 1351265106
PfmFamily: 17
TTFWeight: 400
TTFWidth: 3
LineGap: 0
VLineGap: 0
Panose: 2 0 5 6 4 0 0 2 0 4
OS2TypoAscent: 901
OS2TypoAOffset: 0
OS2TypoDescent: -194
OS2TypoDOffset: 0
OS2TypoLinegap: 0
OS2WinAscent: 901
OS2WinAOffset: 0
OS2WinDescent: 194
OS2WinDOffset: 0
HheadAscent: 901
HheadAOffset: 0
HheadDescent: -194
HheadDOffset: 0
OS2SubXSize: 650
OS2SubYSize: 600
OS2SubXOff: 0
OS2SubYOff: 75
OS2SupXSize: 650
OS2SupYSize: 600
OS2SupXOff: 0
OS2SupYOff: 350
OS2StrikeYSize: 50
OS2StrikeYPos: 312
OS2Vendor: 'pyrs'
OS2CodePages: 20000001.00000000
OS2UnicodeRanges: 8000002f.5000204b.00000000.00000000
Lookup: 258 0 0 "'kern' Horizontal Kerning in Latin lookup 0"  {"'kern' Horizontal Kerning in Latin lookup 0 per glyph data 0"  "'kern' Horizontal Kerning in Latin lookup 0 per glyph data 1"  "'kern' Horizontal Kerning in Latin lookup 0 kerning class 2"  } ['kern' ('latn' <'dflt' > ) ]
DEI: 91125
KernClass2: 4+ 6 "'kern' Horizontal Kerning in Latin lookup 0 kerning class 2" 
 50 A Agrave Aacute Acircumflex Atilde Adieresis Aring
 8 L Lslash
 18 Y Yacute Ydieresis
 20 quotedbl quotesingle
 18 Y Yacute Ydieresis
 24 quoteright quotedblright
 20 quotedbl quotesingle
 50 A Agrave Aacute Acircumflex Atilde Adieresis Aring
 116 c d e o q s ccedilla egrave eacute ecircumflex edieresis ograve oacute ocircumflex otilde odieresis oslash oe scaron

StartChar: exclam
Encoding: 33 33 4
Width: 294
GlyphClass: 2
Flags: W
LayerCount: 2
Fore
SplineSet
147 99 m 128,-1,1
 164 99 164 99 171.5 98 c 128,-1,2
 179 97 179 97 188 92 c 128,-1,3
 197 87 197 87 200.5 75.5 c 128,-1,4
 204 64 204 64 204 44 c 128,-1,5
 204 24 204 24 200.5 12 c 128,-1,6
 197 0 197 0 188 -5 c 128,-1,7
 179 -10 179 -10 171.5 -11 c 128,-1,8
 164 -12 164 -12 147 -12 c 128,-1,9
 130 -12 130 -12 122.5 -11 c 128,-1,10
 115 -10 115 -10 106 -5 c 128,-1,11
 97 0 97 0 93.5 12 c 128,-1,12
 90 24 90 24 90 44 c 128,-1,13
 90 64 90 64 93.5 75.5 c 128,-1,14
 97 87 97 87 106 92 c 128,-1,15
 115 97 115 97 122.5 98 c 128,-1,0
 130 99 130 99 147 99 c 128,-1,1
180 179 m 1,16,-1
 114 179 l 1,17,-1
 102 696 l 1,18,-1
 192 696 l 1,19,-1
 180 179 l 1,16,-1
EndSplineSet
EndChar

StartChar: quotedbl
Encoding: 34 34 5
Width: 331
GlyphClass: 2
Flags: W
LayerCount: 2
Fore
SplineSet
115 487 m 1,0,-1
 60 487 l 1,1,-1
 45 700 l 1,2,-1
 131 700 l 1,3,-1
 115 487 l 1,0,-1
270 487 m 1,4,-1
 215 487 l 1,5,-1
 200 700 l 1,6,-1
 286 700 l 1,7,-1
 270 487 l 1,4,-1
EndSplineSet
EndChar

StartChar: numbersign
Encoding: 35 35 6
Width: 593
GlyphClass: 2
Flags: W
LayerCount: 2
Fore
SplineSet
76 387 m 1,0,-1
 88 452 l 1,1,-1
 167 452 l 1,2,-1
 202 646 l 1,3,-1
 272 646 l 1,4,-1
 237 452 l 1,5,-1
 402 452 l 1,6,-1
 437 646 l 1,7,-1
 507 646 l 1,8,-1
 472 452 l 1,9,-1
 553 452 l 1,10,-1
 540 387 l 1,11,-1
 461 387 l 1,12,-1
 436 247 l 1,13,-1
 517 247 l 1,14,-1
 504 182 l 1,15,-1
 424 182 l 1,16,-1
 392 0 l 1,17,-1
 322 0 l 1,18,-1
 354 182 l 1,19,-1
 189 182 l 1,20,-1
 157 0 l 1,21,-1
 87 0 l 1,22,-1
 119 182 l 1,23,-1
 40 182 l 1,24,-1
 52 247 l 1,25,-1
 131 247 l 1,26,-1
 156 387 l 1,27,-1
 76 387 l 1,0,-1
226 387 m 1,28,-1
 201 247 l 1,29,-1
 366 247 l 1,30,-1
 391 387 l 1,31,-1
 226 387 l 1,28,-1
EndSplineSet
EndChar

StartChar: dollar
Encoding: 36 36 7
Width: 500
GlyphClass: 2
Flags: W
LayerCount: 2
Fore
SplineSet
216 -100 m 1,0,-1
 216 -11 l 1,1,2
 126 -4 126 -4 60 25 c 1,3,-1
 78 87 l 1,4,5
 158 59 158 59 229 59 c 128,-1,6
 300 59 300 59 328 85 c 128,-1,7
 356 111 356 111 356 164.5 c 128,-1,8
 356 218 356 218 341 244 c 128,-1,9
 326 270 326 270 278 281 c 2,10,-1
 179 304 l 2,11,12
 108 321 108 321 85 360.5 c 128,-1,13
 62 400 62 400 62 480 c 0,14,15
 62 636 62 636 217 655 c 1,16,-1
 217 750 l 1,17,-1
 280 750 l 1,18,-1
 280 656 l 1,19,20
 344 651 344 651 417 625 c 1,21,-1
 399 565 l 1,22,23
 324 586 324 586 261.5 586 c 128,-1,24
 199 586 199 586 170.5 566 c 128,-1,25
 142 546 142 546 142 487 c 128,-1,26
 142 428 142 428 156 405 c 128,-1,27
 170 382 170 382 216 371 c 2,28,-1
 311 348 l 2,29,30
 379 332 379 332 409.5 296 c 128,-1,31
 440 260 440 260 440 178.5 c 128,-1,32
 440 97 440 97 400.5 47 c 128,-1,33
 361 -3 361 -3 280 -11 c 1,34,-1
 280 -100 l 1,35,-1
 216 -100 l 1,0,-1
EndSplineSet
EndChar

StartChar: percent
Encoding: 37 37 8
Width: 726
GlyphClass: 2
Flags: W
LayerCount: 2
Fore
SplineSet
298 0 m 1,0,-1
 253 0 l 1,1,-1
 428 646 l 1,2,-1
 473 646 l 1,3,-1
 298 0 l 1,0,-1
282 475 m 128,-1,5
 282 444 282 444 281.5 429.5 c 128,-1,6
 281 415 281 415 279 391.5 c 128,-1,7
 277 368 277 368 273 357 c 128,-1,8
 269 346 269 346 260.5 331.5 c 128,-1,9
 252 317 252 317 240 310 c 0,10,11
 210 295 210 295 171 295 c 128,-1,12
 132 295 132 295 110 304 c 128,-1,13
 88 313 88 313 76 325 c 128,-1,14
 64 337 64 337 58 365 c 0,15,16
 51 403 51 403 51 454.5 c 128,-1,17
 51 506 51 506 51.5 520.5 c 128,-1,18
 52 535 52 535 54 558.5 c 128,-1,19
 56 582 56 582 60 593 c 128,-1,20
 64 604 64 604 72.5 618.5 c 128,-1,21
 81 633 81 633 93 639 c 128,-1,22
 105 645 105 645 123.5 650 c 128,-1,23
 142 655 142 655 166 655 c 128,-1,24
 190 655 190 655 208.5 650 c 128,-1,25
 227 645 227 645 239.5 639 c 128,-1,26
 252 633 252 633 260.5 618.5 c 128,-1,27
 269 604 269 604 273 593 c 128,-1,28
 277 582 277 582 279 558.5 c 128,-1,29
 281 535 281 535 281.5 520.5 c 128,-1,4
 282 506 282 506 282 475 c 128,-1,5
220 394 m 2,30,-1
 220 555 l 2,31,32
 220 593 220 593 197 600 c 0,33,34
 185 603 185 603 165.5 603 c 128,-1,35
 146 603 146 603 135 599.5 c 128,-1,36
 124 596 124 596 120 588 c 0,37,38
 113 576 113 576 113 555 c 2,39,-1
 113 394 l 2,40,41
 113 357 113 357 136 350 c 0,42,43
 148 347 148 347 167.5 347 c 128,-1,44
 187 347 187 347 198 350.5 c 128,-1,45
 209 354 209 354 214 362 c 0,46,47
 220 374 220 374 220 394 c 2,30,-1
674 174 m 128,-1,49
 674 143 674 143 673.5 128.5 c 128,-1,50
 673 114 673 114 671 90.5 c 128,-1,51
 669 67 669 67 665 56 c 128,-1,52
 661 45 661 45 652.5 30.5 c 128,-1,53
 644 16 644 16 632 10 c 0,54,55
 602 -6 602 -6 563 -6 c 128,-1,56
 524 -6 524 -6 502 3 c 128,-1,57
 480 12 480 12 468 24 c 128,-1,58
 456 36 456 36 450 64 c 0,59,60
 443 102 443 102 443 153.5 c 128,-1,61
 443 205 443 205 443.5 219.5 c 128,-1,62
 444 234 444 234 446 257.5 c 128,-1,63
 448 281 448 281 452 292 c 128,-1,64
 456 303 456 303 464.5 317.5 c 128,-1,65
 473 332 473 332 485 338 c 128,-1,66
 497 344 497 344 515.5 349 c 128,-1,67
 534 354 534 354 558 354 c 128,-1,68
 582 354 582 354 600.5 349 c 128,-1,69
 619 344 619 344 631.5 338 c 128,-1,70
 644 332 644 332 652.5 317.5 c 128,-1,71
 661 303 661 303 665 292 c 128,-1,72
 669 281 669 281 671 257.5 c 128,-1,73
 673 234 673 234 673.5 219.5 c 128,-1,48
 674 205 674 205 674 174 c 128,-1,49
612 93 m 2,74,-1
 612 254 l 2,75,76
 612 292 612 292 589 298 c 0,77,78
 577 302 577 302 557.5 302 c 128,-1,79
 538 302 538 302 527 298.5 c 128,-1,80
 516 295 516 295 512 287 c 0,81,82
 505 275 505 275 505 254 c 2,83,-1
 505 93 l 2,84,85
 505 56 505 56 528 50 c 0,86,87
 540 46 540 46 559.5 46 c 128,-1,88
 579 46 579 46 590 49.5 c 128,-1,89
 601 53 601 53 606 61 c 0,90,91
 612 73 612 73 612 93 c 2,74,-1
EndSplineSet
EndChar

StartChar: ampersand
Encoding: 38 38 9
Width: 508
GlyphClass: 2
Flags: W
LayerCount: 2
Fore
SplineSet
216 -12 m 0,0,1
 83 -12 83 -12 54 74 c 0,2,3
 40 114 40 114 40 173 c 0,4,5
 40 292 40 292 108 331 c 2,6,-1
 165 363 l 1,7,-1
 143 391 l 2,8,9
 114 427 114 427 103 459 c 128,-1,10
 92 491 92 491 92 531 c 128,-1,11
 92 571 92 571 98 595 c 128,-1,12
 104 619 104 619 121 642.5 c 128,-1,13
 138 666 138 666 175.5 678.5 c 128,-1,14
 213 691 213 691 269 691 c 128,-1,15
 325 691 325 691 361 678.5 c 128,-1,16
 397 666 397 666 414 642.5 c 128,-1,17
 431 619 431 619 436.5 595.5 c 128,-1,18
 442 572 442 572 442 522.5 c 128,-1,19
 442 473 442 473 429.5 447.5 c 128,-1,20
 417 422 417 422 364 392 c 2,21,-1
 284 346 l 1,22,-1
 563 0 l 1,23,-1
 466 -13 l 1,24,-1
 406 62 l 1,25,26
 367 -12 367 -12 216 -12 c 0,0,1
222 59 m 0,27,28
 343 59 343 59 358 122 c 1,29,-1
 212 304 l 1,30,-1
 178 285 l 2,31,32
 145 267 145 267 134 251 c 128,-1,33
 123 235 123 235 123 214 c 2,34,-1
 123 123 l 2,35,36
 123 107 123 107 135 91 c 0,37,38
 159 59 159 59 222 59 c 0,27,28
175 565 m 2,39,-1
 175 511 l 2,40,41
 175 483 175 483 204 446 c 2,42,-1
 237 405 l 1,43,-1
 320 453 l 2,44,45
 344 467 344 467 351.5 478.5 c 128,-1,46
 359 490 359 490 359 510 c 2,47,-1
 359 565 l 2,48,49
 359 579 359 579 347.5 593 c 128,-1,50
 336 607 336 607 316 613.5 c 128,-1,51
 296 620 296 620 267 620 c 128,-1,52
 238 620 238 620 218 613.5 c 128,-1,53
 198 607 198 607 190 597 c 0,54,55
 175 580 175 580 175 565 c 2,39,-1
EndSplineSet
EndChar

StartChar: quotesingle
Encoding: 39 39 10
Width: 176
GlyphClass: 2
Flags: W
LayerCount: 2
Fore
SplineSet
115 487 m 1,0,-1
 60 487 l 1,1,-1
 45 700 l 1,2,-1
 131 700 l 1,3,-1
 115 487 l 1,0,-1
EndSplineSet
PairPos2: "'kern' Horizontal Kerning in Latin lookup 0 per glyph data 1" AE dx=0 dy=0 dh=-90 dv=0 dx=0 dy=0 dh=0 dv=0
PairPos2: "'kern' Horizontal Kerning in Latin lookup 0 per glyph data 1" Aring dx=0 dy=0 dh=-70 dv=0 dx=0 dy=0 dh=0 dv=0
PairPos2: "'kern' Horizontal Kerning in Latin lookup 0 per glyph data 1" Adieresis dx=0 dy=0 dh=-70 dv=0 dx=0 dy=0 dh=0 dv=0
PairPos2: "'kern' Horizontal Kerning in Latin lookup 0 per glyph data 1" Atilde dx=0 dy=0 dh=-70 dv=0 dx=0 dy=0 dh=0 dv=0
PairPos2: "'kern' Horizontal Kerning in Latin lookup 0 per glyph data 1" Acircumflex dx=0 dy=0 dh=-70 dv=0 dx=0 dy=0 dh=0 dv=0
PairPos2: "'kern' Horizontal Kerning in Latin lookup 0 per glyph data 1" Aacute dx=0 dy=0 dh=-70 dv=0 dx=0 dy=0 dh=0 dv=0
PairPos2: "'kern' Horizontal Kerning in Latin lookup 0 per glyph data 1" Agrave dx=0 dy=0 dh=-70 dv=0 dx=0 dy=0 dh=0 dv=0
PairPos2: "'kern' Horizontal Kerning in Latin lookup 0 per glyph data 1" A dx=0 dy=0 dh=-70 dv=0 dx=0 dy=0 dh=0 dv=0
EndChar

StartChar: parenleft
Encoding: 40 40 11
Width: 340
GlyphClass: 2
Flags: W
LayerCount: 2
Fore
SplineSet
166 559 m 2,0,-1
 166 139 l 2,1,2
 166 94 166 94 170 64.5 c 128,-1,3
 174 35 174 35 187 8 c 0,4,5
 213 -47 213 -47 295 -47 c 1,6,-1
 290 -112 l 1,7,8
 213 -112 213 -112 157 -82 c 0,9,10
 134 -69 134 -69 119.5 -36 c 128,-1,11
 105 -3 105 -3 96.5 23.5 c 128,-1,12
 88 50 88 50 84.5 110.5 c 128,-1,13
 81 171 81 171 80 215 c 128,-1,14
 79 259 79 259 79 349 c 128,-1,15
 79 439 79 439 80 483 c 128,-1,16
 81 527 81 527 84.5 587.5 c 128,-1,17
 88 648 88 648 96.5 674.5 c 128,-1,18
 105 701 105 701 119.5 734 c 128,-1,19
 134 767 134 767 157 780 c 0,20,21
 213 810 213 810 290 810 c 1,22,-1
 295 745 l 1,23,24
 213 745 213 745 187 690 c 0,25,26
 174 663 174 663 170 633.5 c 128,-1,27
 166 604 166 604 166 559 c 2,0,-1
EndSplineSet
EndChar

StartChar: parenright
Encoding: 41 41 12
Width: 340
GlyphClass: 2
Flags: W
LayerCount: 2
Fore
SplineSet
174 139 m 2,0,-1
 174 559 l 2,1,2
 174 604 174 604 170 633.5 c 128,-1,3
 166 663 166 663 153 690 c 0,4,5
 127 745 127 745 45 745 c 1,6,-1
 50 810 l 1,7,8
 127 810 127 810 183 780 c 0,9,10
 206 767 206 767 220.5 734 c 128,-1,11
 235 701 235 701 243.5 674.5 c 128,-1,12
 252 648 252 648 255.5 587.5 c 128,-1,13
 259 527 259 527 260 483 c 128,-1,14
 261 439 261 439 261 349 c 128,-1,15
 261 259 261 259 260 215 c 128,-1,16
 259 171 259 171 255.5 110.5 c 128,-1,17
 252 50 252 50 243.5 23.5 c 128,-1,18
 235 -3 235 -3 220.5 -36 c 128,-1,19
 206 -69 206 -69 183 -82 c 0,20,21
 127 -112 127 -112 50 -112 c 1,22,-1
 45 -47 l 1,23,24
 127 -47 127 -47 153 8 c 0,25,26
 166 35 166 35 170 64.5 c 128,-1,27
 174 94 174 94 174 139 c 2,0,-1
EndSplineSet
EndChar

StartChar: asterisk
Encoding: 42 42 13
Width: 407
GlyphClass: 2
Flags: W
LayerCount: 2
Fore
SplineSet
235 744 m 1,0,-1
 235 626 l 1,1,-1
 346 663 l 1,2,-1
 367 605 l 1,3,-1
 255 567 l 1,4,-1
 324 473 l 1,5,-1
 274 435 l 1,6,-1
 203 529 l 1,7,8
 183 498 183 498 163.5 471.5 c 128,-1,9
 144 445 144 445 137 435 c 1,10,-1
 84 470 l 1,11,-1
 151 567 l 1,12,-1
 40 604 l 1,13,-1
 61 663 l 1,14,-1
 173 626 l 1,15,-1
 173 744 l 1,16,-1
 235 744 l 1,0,-1
EndSplineSet
EndChar

StartChar: plus
Encoding: 43 43 14
Width: 500
GlyphClass: 2
Flags: W
LayerCount: 2
Fore
SplineSet
60 282 m 1,0,-1
 60 352 l 1,1,-1
 215 352 l 1,2,-1
 215 507 l 1,3,-1
 285 507 l 1,4,-1
 285 352 l 1,5,-1
 440 352 l 1,6,-1
 440 282 l 1,7,-1
 285 282 l 1,8,-1
 285 127 l 1,9,-1
 215 127 l 1,10,-1
 215 282 l 1,11,-1
 60 282 l 1,0,-1
EndSplineSet
EndChar

StartChar: comma
Encoding: 44 44 15
Width: 240
GlyphClass: 2
Flags: W
LayerCount: 2
Fore
SplineSet
145.5 98 m 128,-1,1
 153 97 153 97 162 92 c 0,2,3
 178 83 178 83 178 44 c 0,4,5
 178 2 178 2 145 -51 c 2,6,-1
 91 -136 l 1,7,-1
 46 -112 l 1,8,-1
 87 -9 l 1,9,10
 64 -1 64 -1 64 44 c 0,11,12
 64 83 64 83 80 92 c 0,13,14
 93 99 93 99 115.5 99 c 128,-1,0
 138 99 138 99 145.5 98 c 128,-1,1
EndSplineSet
EndChar

StartChar: hyphen
Encoding: 45 45 16
Width: 393
GlyphClass: 2
Flags: W
LayerCount: 2
Fore
SplineSet
40 267 m 1,0,-1
 40 332 l 1,1,-1
 353 332 l 1,2,-1
 353 267 l 1,3,-1
 40 267 l 1,0,-1
EndSplineSet
EndChar

StartChar: period
Encoding: 46 46 17
Width: 240
GlyphClass: 2
Flags: W
LayerCount: 2
Fore
SplineSet
121 99 m 128,-1,1
 138 99 138 99 145.5 98 c 128,-1,2
 153 97 153 97 162 92 c 128,-1,3
 171 87 171 87 174.5 75.5 c 128,-1,4
 178 64 178 64 178 44 c 128,-1,5
 178 24 178 24 174.5 12 c 128,-1,6
 171 0 171 0 162 -5 c 128,-1,7
 153 -10 153 -10 145.5 -11 c 128,-1,8
 138 -12 138 -12 121 -12 c 128,-1,9
 104 -12 104 -12 96.5 -11 c 128,-1,10
 89 -10 89 -10 80 -5 c 128,-1,11
 71 0 71 0 67.5 12 c 128,-1,12
 64 24 64 24 64 44 c 128,-1,13
 64 64 64 64 67.5 75.5 c 128,-1,14
 71 87 71 87 80 92 c 128,-1,15
 89 97 89 97 96.5 98 c 128,-1,0
 104 99 104 99 121 99 c 128,-1,1
EndSplineSet
EndChar

StartChar: slash
Encoding: 47 47 18
Width: 352
GlyphClass: 2
Flags: W
LayerCount: 2
Fore
SplineSet
276 700 m 1,0,-1
 352 700 l 1,1,-1
 76 0 l 1,2,-1
 0 0 l 1,3,-1
 276 700 l 1,0,-1
EndSplineSet
EndChar

StartChar: zero
Encoding: 48 48 19
Width: 500
GlyphClass: 2
Flags: W
LayerCount: 2
Fore
SplineSet
453 323 m 128,-1,1
 453 278 453 278 452.5 256.5 c 128,-1,2
 452 235 452 235 450.5 198.5 c 128,-1,3
 449 162 449 162 445.5 144 c 128,-1,4
 442 126 442 126 435 99 c 128,-1,5
 428 72 428 72 418 59 c 128,-1,6
 408 46 408 46 393 29.5 c 128,-1,7
 378 13 378 13 357.5 6 c 128,-1,8
 337 -1 337 -1 310 -6.5 c 128,-1,9
 283 -12 283 -12 250 -12 c 128,-1,10
 217 -12 217 -12 190 -6.5 c 128,-1,11
 163 -1 163 -1 142.5 6 c 128,-1,12
 122 13 122 13 107 29.5 c 128,-1,13
 92 46 92 46 82 59 c 128,-1,14
 72 72 72 72 65 99 c 128,-1,15
 58 126 58 126 54.5 144 c 128,-1,16
 51 162 51 162 49.5 198.5 c 128,-1,17
 48 235 48 235 47.5 256.5 c 128,-1,18
 47 278 47 278 47 323 c 128,-1,19
 47 368 47 368 47.5 389.5 c 128,-1,20
 48 411 48 411 49.5 447.5 c 128,-1,21
 51 484 51 484 54.5 502 c 128,-1,22
 58 520 58 520 65 547 c 128,-1,23
 72 574 72 574 82 587 c 128,-1,24
 92 600 92 600 107 616.5 c 128,-1,25
 122 633 122 633 142.5 640 c 128,-1,26
 163 647 163 647 190 652.5 c 128,-1,27
 217 658 217 658 250 658 c 128,-1,28
 283 658 283 658 310 652.5 c 128,-1,29
 337 647 337 647 357.5 640 c 128,-1,30
 378 633 378 633 393 616.5 c 128,-1,31
 408 600 408 600 418 587 c 128,-1,32
 428 574 428 574 435 547 c 128,-1,33
 442 520 442 520 445.5 502 c 128,-1,34
 449 484 449 484 450.5 447.5 c 128,-1,35
 452 411 452 411 452.5 389.5 c 128,-1,0
 453 368 453 368 453 323 c 128,-1,1
365 166 m 2,36,-1
 365 480 l 2,37,38
 365 549 365 549 340 566 c 0,39,40
 308 587 308 587 261.5 587 c 128,-1,41
 215 587 215 587 193 580.5 c 128,-1,42
 171 574 171 574 159.5 566 c 128,-1,43
 148 558 148 558 142 541 c 0,44,45
 135 518 135 518 135 480 c 2,46,-1
 135 166 l 2,47,48
 135 97 135 97 160 80 c 0,49,50
 192 59 192 59 238.5 59 c 128,-1,51
 285 59 285 59 307 65.5 c 128,-1,52
 329 72 329 72 340.5 80 c 128,-1,53
 352 88 352 88 358 105 c 0,54,55
 365 128 365 128 365 166 c 2,36,-1
EndSplineSet
EndChar

StartChar: one
Encoding: 49 49 20
Width: 500
GlyphClass: 2
Flags: W
LayerCount: 2
Fore
SplineSet
325 658 m 1,0,-1
 325 70 l 1,1,-1
 435 70 l 1,2,-1
 435 0 l 1,3,-1
 123 0 l 1,4,-1
 123 70 l 1,5,-1
 239 70 l 1,6,-1
 239 556 l 1,7,-1
 109 506 l 1,8,-1
 84 570 l 1,9,-1
 308 658 l 1,10,-1
 325 658 l 1,0,-1
EndSplineSet
EndChar

StartChar: two
Encoding: 50 50 21
Width: 500
GlyphClass: 2
Flags: W
LayerCount: 2
Fore
SplineSet
385 614.5 m 128,-1,1
 436 571 436 571 436 481.5 c 128,-1,2
 436 392 436 392 355 299 c 2,3,-1
 157 70 l 1,4,-1
 436 70 l 1,5,-1
 436 0 l 1,6,-1
 60 0 l 1,7,-1
 60 76 l 1,8,-1
 289 341 l 2,9,10
 321 378 321 378 334.5 410.5 c 128,-1,11
 348 443 348 443 348 493 c 128,-1,12
 348 543 348 543 323.5 565 c 128,-1,13
 299 587 299 587 236 587 c 128,-1,14
 173 587 173 587 88 561 c 1,15,-1
 69 625 l 1,16,17
 154 658 154 658 244 658 c 128,-1,0
 334 658 334 658 385 614.5 c 128,-1,1
EndSplineSet
EndChar

StartChar: three
Encoding: 51 51 22
Width: 500
GlyphClass: 2
Flags: W
LayerCount: 2
Fore
SplineSet
59 625 m 1,0,1
 139 658 139 658 234 658 c 128,-1,2
 329 658 329 658 372.5 611 c 128,-1,3
 416 564 416 564 416 489 c 0,4,5
 416 379 416 379 329 339 c 1,6,-1
 329 334 l 1,7,8
 386 316 386 316 411.5 280 c 128,-1,9
 437 244 437 244 437 181 c 0,10,11
 437 -10 437 -10 227 -10 c 0,12,13
 130 -10 130 -10 58 21 c 1,14,-1
 82 83 l 1,15,16
 169 63 169 63 219.5 63 c 128,-1,17
 270 63 270 63 296.5 70.5 c 128,-1,18
 323 78 323 78 333.5 94.5 c 128,-1,19
 344 111 344 111 346 123.5 c 128,-1,20
 348 136 348 136 348 160.5 c 128,-1,21
 348 185 348 185 346 200.5 c 128,-1,22
 344 216 344 216 337 238 c 0,23,24
 323 281 323 281 264 285 c 2,25,-1
 141 294 l 1,26,-1
 141 356 l 1,27,-1
 251 365 l 2,28,29
 306 369 306 369 318 413 c 1,30,31
 328 445 328 445 328 478.5 c 128,-1,32
 328 512 328 512 325 526.5 c 128,-1,33
 322 541 322 541 312 556 c 1,34,35
 294 587 294 587 229 587 c 128,-1,36
 164 587 164 587 78 561 c 1,37,-1
 59 625 l 1,0,1
EndSplineSet
EndChar

StartChar: four
Encoding: 52 52 23
Width: 500
GlyphClass: 2
Flags: W
LayerCount: 2
Fore
SplineSet
396 440 m 1,0,-1
 396 228 l 1,1,-1
 469 228 l 1,2,-1
 469 158 l 1,3,-1
 396 158 l 1,4,-1
 396 0 l 1,5,-1
 316 0 l 1,6,-1
 316 158 l 1,7,-1
 30 158 l 1,8,-1
 30 221 l 1,9,-1
 173 650 l 1,10,-1
 253 650 l 1,11,-1
 112 228 l 1,12,-1
 316 228 l 1,13,-1
 316 354 l 1,14,-1
 341 440 l 1,15,-1
 396 440 l 1,0,-1
EndSplineSet
EndChar

StartChar: five
Encoding: 53 53 24
Width: 500
GlyphClass: 2
Flags: W
LayerCount: 2
Fore
SplineSet
439 184 m 0,0,1
 439 146 439 146 432 115 c 128,-1,2
 425 84 425 84 405 54 c 0,3,4
 363 -10 363 -10 235 -10 c 0,5,6
 135 -10 135 -10 60 21 c 1,7,-1
 84 83 l 1,8,9
 171 63 171 63 223.5 63 c 128,-1,10
 276 63 276 63 301 71 c 128,-1,11
 326 79 326 79 336 97.5 c 128,-1,12
 346 116 346 116 348 129 c 128,-1,13
 350 142 350 142 350 165.5 c 128,-1,14
 350 189 350 189 349.5 200.5 c 128,-1,15
 349 212 349 212 344.5 231 c 128,-1,16
 340 250 340 250 332 260 c 0,17,18
 310 287 310 287 265 291 c 2,19,-1
 124 302 l 1,20,-1
 86 340 l 1,21,-1
 86 650 l 1,22,-1
 405 650 l 1,23,-1
 405 580 l 1,24,-1
 166 580 l 1,25,-1
 166 369 l 1,26,-1
 270 361 l 2,27,28
 373 353 373 353 409 300 c 1,29,30
 439 254 439 254 439 184 c 0,0,1
EndSplineSet
EndChar

StartChar: six
Encoding: 54 54 25
Width: 500
GlyphClass: 2
Flags: W
LayerCount: 2
Fore
SplineSet
402 561 m 1,0,1
 317 587 317 587 255 587 c 128,-1,2
 193 587 193 587 167.5 566 c 128,-1,3
 142 545 142 545 142 499 c 2,4,-1
 142 361 l 1,5,6
 188 384 188 384 254 384 c 128,-1,7
 320 384 320 384 359 369.5 c 128,-1,8
 398 355 398 355 416 326 c 128,-1,9
 434 297 434 297 440 267 c 128,-1,10
 446 237 446 237 446 192.5 c 128,-1,11
 446 148 446 148 439 116 c 128,-1,12
 432 84 432 84 413 52 c 0,13,14
 374 -12 374 -12 253 -12 c 0,15,16
 203 -12 203 -12 168.5 -3.5 c 128,-1,17
 134 5 134 5 112 31 c 128,-1,18
 90 57 90 57 78 79.5 c 128,-1,19
 66 102 66 102 60 157 c 0,20,21
 53 232 53 232 53 385 c 128,-1,22
 53 538 53 538 94.5 598 c 128,-1,23
 136 658 136 658 253 658 c 0,24,25
 336 658 336 658 421 625 c 1,26,-1
 402 561 l 1,0,1
358 130 m 2,27,-1
 358 237 l 2,28,29
 358 290 358 290 313 307 c 0,30,31
 289 316 289 316 242 316 c 128,-1,32
 195 316 195 316 142 302 c 1,33,-1
 142 130 l 2,34,35
 142 59 142 59 252 59 c 0,36,37
 328 59 328 59 346 88 c 0,38,39
 358 107 358 107 358 130 c 2,27,-1
EndSplineSet
EndChar

StartChar: seven
Encoding: 55 55 26
Width: 500
GlyphClass: 2
Flags: W
LayerCount: 2
Fore
SplineSet
68 580 m 1,0,-1
 68 650 l 1,1,-1
 410 650 l 1,2,-1
 410 580 l 2,3,4
 410 486 410 486 399.5 423.5 c 128,-1,5
 389 361 389 361 352 287 c 2,6,-1
 208 0 l 1,7,-1
 120 0 l 1,8,-1
 270 294 l 2,9,10
 307 366 307 366 318.5 428.5 c 128,-1,11
 330 491 330 491 330 580 c 1,12,-1
 68 580 l 1,0,-1
EndSplineSet
EndChar

StartChar: eight
Encoding: 56 56 27
Width: 500
GlyphClass: 2
Flags: W
LayerCount: 2
Fore
SplineSet
76 287 m 0,0,1
 89 303 89 303 110 312 c 1,2,3
 82 328 82 328 68.5 358 c 128,-1,4
 55 388 55 388 53 411.5 c 128,-1,5
 51 435 51 435 51 477 c 128,-1,6
 51 519 51 519 58.5 547 c 128,-1,7
 66 575 66 575 86 602 c 0,8,9
 125 658 125 658 252 658 c 0,10,11
 448 658 448 658 448 501 c 0,12,13
 448 356 448 356 393 325 c 1,14,15
 432 301 432 301 442 251 c 1,16,17
 448 215 448 215 448 175 c 128,-1,18
 448 135 448 135 446 115 c 128,-1,19
 444 95 444 95 433 68.5 c 128,-1,20
 422 42 422 42 402 26 c 0,21,22
 352 -12 352 -12 244.5 -12 c 128,-1,23
 137 -12 137 -12 94 34.5 c 128,-1,24
 51 81 51 81 51 168.5 c 128,-1,25
 51 256 51 256 76 287 c 0,0,1
139 523 m 2,26,-1
 139 423 l 2,27,28
 139 378 139 378 209 365 c 2,29,-1
 360 337 l 1,30,-1
 360 523 l 2,31,32
 360 587 360 587 252 587 c 0,33,34
 171 587 171 587 148 551 c 0,35,36
 139 538 139 538 139 523 c 2,26,-1
360 123 m 2,37,-1
 360 219 l 2,38,39
 360 264 360 264 290 277 c 2,40,-1
 139 305 l 1,41,-1
 139 123 l 2,42,43
 139 79 139 79 198 64 c 0,44,45
 221 59 221 59 252 59 c 0,46,47
 360 59 360 59 360 123 c 2,37,-1
EndSplineSet
EndChar

StartChar: nine
Encoding: 57 57 28
Width: 500
GlyphClass: 2
Flags: W
LayerCount: 2
Fore
SplineSet
249 60 m 0,0,1
 365 60 365 60 365 144 c 2,2,-1
 365 274 l 1,3,4
 310 252 310 252 251.5 252 c 128,-1,5
 193 252 193 252 153 264.5 c 128,-1,6
 113 277 113 277 93.5 305.5 c 128,-1,7
 74 334 74 334 67.5 366.5 c 128,-1,8
 61 399 61 399 61 448 c 128,-1,9
 61 497 61 497 68 529.5 c 128,-1,10
 75 562 75 562 94 594 c 0,11,12
 133 658 133 658 259 658 c 0,13,14
 353 658 353 658 392 620 c 0,15,16
 413 599 413 599 425.5 575 c 128,-1,17
 438 551 438 551 444 508 c 0,18,19
 454 445 454 445 454 360.5 c 128,-1,20
 454 276 454 276 453.5 248 c 128,-1,21
 453 220 453 220 450.5 182.5 c 128,-1,22
 448 145 448 145 442 124 c 128,-1,23
 436 103 436 103 426.5 77 c 128,-1,24
 417 51 417 51 402.5 37.5 c 128,-1,25
 388 24 388 24 367 11 c 0,26,27
 330 -12 330 -12 266 -12 c 128,-1,28
 202 -12 202 -12 151 -2 c 128,-1,29
 100 8 100 8 76 19 c 1,30,-1
 95 83 l 1,31,32
 193 60 193 60 249 60 c 0,0,1
149 505 m 2,33,-1
 149 397 l 2,34,35
 149 345 149 345 195 328 c 0,36,37
 219 320 219 320 261.5 320 c 128,-1,38
 304 320 304 320 365 334 c 1,39,-1
 365 505 l 2,40,41
 365 565 365 565 315 580 c 0,42,43
 289 587 289 587 251 587 c 128,-1,44
 213 587 213 587 191 579.5 c 128,-1,45
 169 572 169 572 161 556 c 0,46,47
 149 533 149 533 149 505 c 2,33,-1
EndSplineSet
EndChar

StartChar: colon
Encoding: 58 58 29
Width: 240
GlyphClass: 2
Flags: W
LayerCount: 2
Fore
SplineSet
121 99 m 128,-1,1
 138 99 138 99 145.5 98 c 128,-1,2
 153 97 153 97 162 92 c 128,-1,3
 171 87 171 87 174.5 75.5 c 128,-1,4
 178 64 178 64 178 44 c 128,-1,5
 178 24 178 24 174.5 12 c 128,-1,6
 171 0 171 0 162 -5 c 128,-1,7
 153 -10 153 -10 145.5 -11 c 128,-1,8
 138 -12 138 -12 121 -12 c 128,-1,9
 104 -12 104 -12 96.5 -11 c 128,-1,10
 89 -10 89 -10 80 -5 c 128,-1,11
 71 0 71 0 67.5 12 c 128,-1,12
 64 24 64 24 64 44 c 128,-1,13
 64 64 64 64 67.5 75.5 c 128,-1,14
 71 87 71 87 80 92 c 128,-1,15
 89 97 89 97 96.5 98 c 128,-1,0
 104 99 104 99 121 99 c 128,-1,1
121 449 m 128,-1,17
 138 449 138 449 145.5 448 c 128,-1,18
 153 447 153 447 162 442 c 128,-1,19
 171 437 171 437 174.5 425.5 c 128,-1,20
 178 414 178 414 178 394 c 128,-1,21
 178 374 178 374 174.5 362 c 128,-1,22
 171 350 171 350 162 345 c 128,-1,23
 153 340 153 340 145.5 339 c 128,-1,24
 138 338 138 338 121 338 c 128,-1,25
 104 338 104 338 96.5 339 c 128,-1,26
 89 340 89 340 80 345 c 128,-1,27
 71 350 71 350 67.5 362 c 128,-1,28
 64 374 64 374 64 394 c 128,-1,29
 64 414 64 414 67.5 425.5 c 128,-1,30
 71 437 71 437 80 442 c 128,-1,31
 89 447 89 447 96.5 448 c 128,-1,16
 104 449 104 449 121 449 c 128,-1,17
EndSplineSet
EndChar

StartChar: semicolon
Encoding: 59 59 30
Width: 240
GlyphClass: 2
Flags: W
LayerCount: 2
Fore
SplineSet
145.5 98 m 128,-1,1
 153 97 153 97 162 92 c 0,2,3
 178 83 178 83 178 44 c 0,4,5
 178 2 178 2 145 -51 c 2,6,-1
 91 -136 l 1,7,-1
 46 -112 l 1,8,-1
 87 -9 l 1,9,10
 64 -1 64 -1 64 44 c 0,11,12
 64 83 64 83 80 92 c 0,13,14
 93 99 93 99 115.5 99 c 128,-1,0
 138 99 138 99 145.5 98 c 128,-1,1
121 449 m 128,-1,16
 138 449 138 449 145.5 448 c 128,-1,17
 153 447 153 447 162 442 c 128,-1,18
 171 437 171 437 174.5 425.5 c 128,-1,19
 178 414 178 414 178 394 c 128,-1,20
 178 374 178 374 174.5 362 c 128,-1,21
 171 350 171 350 162 345 c 128,-1,22
 153 340 153 340 145.5 339 c 128,-1,23
 138 338 138 338 121 338 c 128,-1,24
 104 338 104 338 96.5 339 c 128,-1,25
 89 340 89 340 80 345 c 128,-1,26
 71 350 71 350 67.5 362 c 128,-1,27
 64 374 64 374 64 394 c 128,-1,28
 64 414 64 414 67.5 425.5 c 128,-1,29
 71 437 71 437 80 442 c 128,-1,30
 89 447 89 447 96.5 448 c 128,-1,15
 104 449 104 449 121 449 c 128,-1,16
EndSplineSet
EndChar

StartChar: less
Encoding: 60 60 31
Width: 500
GlyphClass: 2
Flags: W
LayerCount: 2
Fore
SplineSet
60 282 m 1,0,-1
 60 352 l 1,1,-1
 440 512 l 1,2,-1
 440 442 l 1,3,-1
 137 317 l 1,4,-1
 440 192 l 1,5,-1
 440 122 l 1,6,-1
 60 282 l 1,0,-1
EndSplineSet
EndChar

StartChar: equal
Encoding: 61 61 32
Width: 500
GlyphClass: 2
Flags: W
LayerCount: 2
Fore
SplineSet
60 382 m 1,0,-1
 60 452 l 1,1,-1
 440 452 l 1,2,-1
 440 382 l 1,3,-1
 60 382 l 1,0,-1
60 182 m 1,4,-1
 60 252 l 1,5,-1
 440 252 l 1,6,-1
 440 182 l 1,7,-1
 60 182 l 1,4,-1
EndSplineSet
EndChar

StartChar: greater
Encoding: 62 62 33
Width: 500
GlyphClass: 2
Flags: W
LayerCount: 2
Fore
SplineSet
440 352 m 1,0,-1
 440 282 l 1,1,-1
 60 122 l 1,2,-1
 60 192 l 1,3,-1
 362 317 l 1,4,-1
 60 442 l 1,5,-1
 60 512 l 1,6,-1
 440 352 l 1,0,-1
EndSplineSet
EndChar

StartChar: question
Encoding: 63 63 34
Width: 361
GlyphClass: 2
Flags: W
LayerCount: 2
Fore
SplineSet
228 620 m 128,-1,1
 210 641 210 641 154 641 c 128,-1,2
 98 641 98 641 35 626 c 1,3,-1
 20 691 l 1,4,5
 87 712 87 712 149 712 c 0,6,7
 247 712 247 712 289 669.5 c 128,-1,8
 331 627 331 627 331 533.5 c 128,-1,9
 331 440 331 440 253 351 c 2,10,-1
 200 290 l 2,11,12
 171 256 171 256 165 239 c 128,-1,13
 159 222 159 222 159 179 c 1,14,-1
 92 179 l 1,15,16
 92 245 92 245 99 271.5 c 128,-1,17
 106 298 106 298 135 332 c 2,18,-1
 188 393 l 2,19,20
 220 429 220 429 233 461 c 128,-1,21
 246 493 246 493 246 546 c 128,-1,0
 246 599 246 599 228 620 c 128,-1,1
129 99 m 128,-1,23
 146 99 146 99 153.5 98 c 128,-1,24
 161 97 161 97 170 92 c 128,-1,25
 179 87 179 87 182.5 75.5 c 128,-1,26
 186 64 186 64 186 44 c 128,-1,27
 186 24 186 24 182.5 12 c 128,-1,28
 179 0 179 0 170 -5 c 128,-1,29
 161 -10 161 -10 153.5 -11 c 128,-1,30
 146 -12 146 -12 129 -12 c 128,-1,31
 112 -12 112 -12 104.5 -11 c 128,-1,32
 97 -10 97 -10 88 -5 c 128,-1,33
 79 0 79 0 75.5 12 c 128,-1,34
 72 24 72 24 72 44 c 128,-1,35
 72 64 72 64 75.5 75.5 c 128,-1,36
 79 87 79 87 88 92 c 128,-1,37
 97 97 97 97 104.5 98 c 128,-1,22
 112 99 112 99 129 99 c 128,-1,23
EndSplineSet
EndChar

StartChar: at
Encoding: 64 64 35
Width: 708
GlyphClass: 2
Flags: W
LayerCount: 2
Fore
SplineSet
538 72 m 128,-1,1
 476 60 476 60 426.5 60 c 128,-1,2
 377 60 377 60 349 73 c 128,-1,3
 321 86 321 86 308 112 c 1,4,5
 285 154 285 154 285 225 c 0,6,7
 285 315 285 315 338 342 c 0,8,9
 358 352 358 352 374.5 358 c 128,-1,10
 391 364 391 364 424.5 367 c 128,-1,11
 458 370 458 370 481.5 370.5 c 128,-1,12
 505 371 505 371 550 372 c 1,13,-1
 550 461 l 2,14,15
 550 506 550 506 518 528 c 0,16,17
 495 545 495 545 424 548 c 0,18,19
 399 549 399 549 362.5 549 c 128,-1,20
 326 549 326 549 308.5 548.5 c 128,-1,21
 291 548 291 548 269.5 545 c 128,-1,22
 248 542 248 542 235.5 536 c 128,-1,23
 223 530 223 530 208.5 520.5 c 128,-1,24
 194 511 194 511 186.5 496 c 128,-1,25
 179 481 179 481 172 460 c 0,26,27
 159 422 159 422 159 347 c 2,28,-1
 159 157 l 2,29,30
 159 82 159 82 169 52.5 c 128,-1,31
 179 23 179 23 186.5 8 c 128,-1,32
 194 -7 194 -7 208.5 -16.5 c 128,-1,33
 223 -26 223 -26 235.5 -32 c 128,-1,34
 248 -38 248 -38 270 -41 c 0,35,36
 298 -45 298 -45 354 -45 c 0,37,38
 475 -45 475 -45 628 6 c 1,39,-1
 648 -50 l 1,40,41
 494 -116 494 -116 354 -116 c 0,42,43
 222 -116 222 -116 174 -82 c 0,44,45
 120 -43 120 -43 98 26 c 0,46,47
 70 112 70 112 70 252 c 0,48,49
 70 467 70 467 132 544 c 0,50,51
 153 571 153 571 173.5 585.5 c 128,-1,52
 194 600 194 600 227 608 c 0,53,54
 276 620 276 620 341.5 620 c 128,-1,55
 407 620 407 620 445.5 616.5 c 128,-1,56
 484 613 484 613 521.5 602.5 c 128,-1,57
 559 592 559 592 582 574 c 0,58,59
 632 534 632 534 632 450 c 2,60,-1
 632 97 l 1,61,0
 600 84 600 84 538 72 c 128,-1,1
550 315 m 1,62,63
 448 315 448 315 428.5 307.5 c 128,-1,64
 409 300 409 300 394 292 c 0,65,66
 367 278 367 278 367 237 c 2,67,-1
 367 214 l 2,68,69
 367 165 367 165 382 145 c 128,-1,70
 397 125 397 125 446.5 125 c 128,-1,71
 496 125 496 125 550 135 c 1,72,-1
 550 315 l 1,62,63
EndSplineSet
EndChar

StartChar: A
Encoding: 65 65 36
Width: 548
GlyphClass: 2
Flags: W
LayerCount: 2
Fore
SplineSet
123 0 m 1,0,-1
 35 0 l 1,1,-1
 201 700 l 1,2,-1
 347 700 l 1,3,-1
 513 0 l 1,4,-1
 425 0 l 1,5,-1
 384 177 l 1,6,-1
 164 177 l 1,7,-1
 123 0 l 1,0,-1
367 247 m 1,8,-1
 277 636 l 1,9,-1
 271 636 l 1,10,-1
 180 247 l 1,11,-1
 367 247 l 1,8,-1
EndSplineSet
EndChar

StartChar: B
Encoding: 66 66 37
Width: 548
GlyphClass: 2
Flags: W
LayerCount: 2
Fore
SplineSet
90 700 m 1,0,-1
 256 700 l 2,1,2
 365 700 365 700 409 654.5 c 128,-1,3
 453 609 453 609 453 497 c 128,-1,4
 453 385 453 385 383 351 c 1,5,6
 430 334 430 334 451.5 297.5 c 128,-1,7
 473 261 473 261 473 195 c 0,8,9
 473 91 473 91 425.5 45.5 c 128,-1,10
 378 0 378 0 261 0 c 2,11,-1
 90 0 l 1,12,-1
 90 700 l 1,0,-1
386 176 m 2,13,-1
 386 215 l 2,14,15
 386 277 386 277 370 291 c 0,16,17
 343 313 343 313 314 316.5 c 128,-1,18
 285 320 285 320 252 320 c 2,19,-1
 176 320 l 1,20,-1
 176 71 l 1,21,-1
 262 71 l 2,22,23
 329 71 329 71 360 90 c 0,24,25
 382 103 382 103 385 140 c 0,26,27
 386 152 386 152 386 176 c 2,13,-1
366 483 m 2,28,-1
 366 522 l 2,29,30
 366 594 366 594 342 610 c 0,31,32
 315 629 315 629 255 629 c 2,33,-1
 176 629 l 1,34,-1
 176 377 l 1,35,-1
 245 377 l 2,36,37
 310 377 310 377 340 396 c 0,38,39
 362 409 362 409 365 448 c 0,40,41
 366 459 366 459 366 483 c 2,28,-1
EndSplineSet
EndChar

StartChar: C
Encoding: 67 67 38
Width: 479
GlyphClass: 2
Flags: W
LayerCount: 2
Fore
SplineSet
215 704.5 m 128,-1,1
 249 712 249 712 308.5 712 c 128,-1,2
 368 712 368 712 426 694 c 1,3,-1
 411 629 l 1,4,5
 361 641 361 641 312.5 641 c 128,-1,6
 264 641 264 641 240 637 c 128,-1,7
 216 633 216 633 201.5 623 c 128,-1,8
 187 613 187 613 178.5 604 c 128,-1,9
 170 595 170 595 166 576 c 0,10,11
 162 552 162 552 162 507 c 2,12,-1
 162 193 l 2,13,14
 162 113 162 113 178 96 c 0,15,16
 204 69 204 69 234 64 c 128,-1,17
 264 59 264 59 311 59 c 128,-1,18
 358 59 358 59 420 75 c 1,19,-1
 439 16 l 1,20,21
 372 -12 372 -12 296 -12 c 0,22,23
 224 -12 224 -12 196 -2 c 128,-1,24
 168 8 168 8 152 15 c 128,-1,25
 136 22 136 22 123.5 39 c 128,-1,26
 111 56 111 56 103 68 c 128,-1,27
 95 80 95 80 89.5 107 c 128,-1,28
 84 134 84 134 81 152.5 c 128,-1,29
 78 171 78 171 77 210 c 0,30,31
 75 286 75 286 75 353 c 128,-1,32
 75 420 75 420 76 454 c 128,-1,33
 77 488 77 488 80.5 536 c 128,-1,34
 84 584 84 584 93 604.5 c 128,-1,35
 102 625 102 625 117 651.5 c 128,-1,36
 132 678 132 678 156.5 687.5 c 128,-1,0
 181 697 181 697 215 704.5 c 128,-1,1
EndSplineSet
EndChar

StartChar: D
Encoding: 68 68 39
Width: 587
GlyphClass: 2
Flags: W
LayerCount: 2
Fore
SplineSet
90 700 m 1,0,-1
 290 700 l 2,1,2
 371 700 371 700 430 678 c 0,3,4
 455 669 455 669 470 644.5 c 128,-1,5
 485 620 485 620 494 600 c 128,-1,6
 503 580 503 580 506 534 c 0,7,8
 512 460 512 460 512 355.5 c 128,-1,9
 512 251 512 251 510 208 c 128,-1,10
 508 165 508 165 497.5 113.5 c 128,-1,11
 487 62 487 62 463 44 c 0,12,13
 404 0 404 0 290 0 c 2,14,-1
 90 0 l 1,15,-1
 90 700 l 1,0,-1
291 628 m 2,16,-1
 176 628 l 1,17,-1
 176 74 l 1,18,-1
 291 74 l 2,19,20
 360 74 360 74 396 97 c 0,21,22
 421 113 421 113 424 160 c 0,23,24
 425 175 425 175 425 205 c 2,25,-1
 425 497 l 2,26,27
 425 527 425 527 424 541.5 c 128,-1,28
 423 556 423 556 416.5 576 c 128,-1,29
 410 596 410 596 396 605 c 0,30,31
 360 628 360 628 291 628 c 2,16,-1
EndSplineSet
EndChar

StartChar: E
Encoding: 69 69 40
Width: 473
GlyphClass: 2
Flags: W
LayerCount: 2
Fore
SplineSet
90 0 m 1,0,-1
 90 700 l 1,1,-1
 423 700 l 1,2,-1
 413 630 l 1,3,-1
 176 630 l 1,4,-1
 176 386 l 1,5,-1
 393 386 l 1,6,-1
 393 316 l 1,7,-1
 176 316 l 1,8,-1
 176 70 l 1,9,-1
 433 70 l 1,10,-1
 433 0 l 1,11,-1
 90 0 l 1,0,-1
EndSplineSet
EndChar

StartChar: F
Encoding: 70 70 41
Width: 433
GlyphClass: 2
Flags: W
LayerCount: 2
Fore
SplineSet
90 700 m 1,0,-1
 413 700 l 1,1,-1
 403 630 l 1,2,-1
 176 630 l 1,3,-1
 176 386 l 1,4,-1
 383 386 l 1,5,-1
 383 316 l 1,6,-1
 176 316 l 1,7,-1
 176 0 l 1,8,-1
 90 0 l 1,9,-1
 90 700 l 1,0,-1
EndSplineSet
PairPos2: "'kern' Horizontal Kerning in Latin lookup 0 per glyph data 1" AE dx=0 dy=0 dh=-45 dv=0 dx=0 dy=0 dh=0 dv=0
PairPos2: "'kern' Horizontal Kerning in Latin lookup 0 per glyph data 1" Aring dx=0 dy=0 dh=-30 dv=0 dx=0 dy=0 dh=0 dv=0
PairPos2: "'kern' Horizontal Kerning in Latin lookup 0 per glyph data 1" Adieresis dx=0 dy=0 dh=-30 dv=0 dx=0 dy=0 dh=0 dv=0
PairPos2: "'kern' Horizontal Kerning in Latin lookup 0 per glyph data 1" Atilde dx=0 dy=0 dh=-30 dv=0 dx=0 dy=0 dh=0 dv=0
PairPos2: "'kern' Horizontal Kerning in Latin lookup 0 per glyph data 1" Acircumflex dx=0 dy=0 dh=-30 dv=0 dx=0 dy=0 dh=0 dv=0
PairPos2: "'kern' Horizontal Kerning in Latin lookup 0 per glyph data 1" Aacute dx=0 dy=0 dh=-30 dv=0 dx=0 dy=0 dh=0 dv=0
PairPos2: "'kern' Horizontal Kerning in Latin lookup 0 per glyph data 1" Agrave dx=0 dy=0 dh=-30 dv=0 dx=0 dy=0 dh=0 dv=0
PairPos2: "'kern' Horizontal Kerning in Latin lookup 0 per glyph data 1" A dx=0 dy=0 dh=-30 dv=0 dx=0 dy=0 dh=0 dv=0
EndChar

StartChar: G
Encoding: 71 71 42
Width: 552
GlyphClass: 2
Flags: W
LayerCount: 2
Fore
SplineSet
391 -1 m 128,-1,1
 339 -12 339 -12 301 -12 c 128,-1,2
 263 -12 263 -12 236.5 -9.5 c 128,-1,3
 210 -7 210 -7 189 0.5 c 128,-1,4
 168 8 168 8 152 15 c 128,-1,5
 136 22 136 22 123.5 39 c 128,-1,6
 111 56 111 56 103 68 c 128,-1,7
 95 80 95 80 89.5 107 c 128,-1,8
 84 134 84 134 81 152.5 c 128,-1,9
 78 171 78 171 77 210 c 0,10,11
 75 286 75 286 75 353 c 128,-1,12
 75 420 75 420 76 454 c 128,-1,13
 77 488 77 488 80.5 536 c 128,-1,14
 84 584 84 584 93 604.5 c 128,-1,15
 102 625 102 625 117 651.5 c 128,-1,16
 132 678 132 678 156 688 c 0,17,18
 220 712 220 712 296.5 712 c 128,-1,19
 373 712 373 712 446 690 c 1,20,-1
 431 625 l 1,21,22
 364 641 364 641 311 641 c 128,-1,23
 258 641 258 641 231.5 634 c 128,-1,24
 205 627 205 627 191 618 c 128,-1,25
 177 609 177 609 170.5 589 c 128,-1,26
 164 569 164 569 163 554.5 c 128,-1,27
 162 540 162 540 162 510 c 2,28,-1
 162 193 l 2,29,30
 162 113 162 113 178 96 c 0,31,32
 204 69 204 69 234 64 c 128,-1,33
 264 59 264 59 306 59 c 128,-1,34
 348 59 348 59 392 68 c 1,35,-1
 392 295 l 1,36,-1
 297 295 l 1,37,-1
 297 355 l 1,38,-1
 472 355 l 1,39,-1
 472 26 l 1,40,0
 443 10 443 10 391 -1 c 128,-1,1
EndSplineSet
EndChar

StartChar: H
Encoding: 72 72 43
Width: 592
GlyphClass: 2
Flags: W
LayerCount: 2
Fore
SplineSet
416 700 m 1,0,-1
 502 700 l 1,1,-1
 502 0 l 1,2,-1
 416 0 l 1,3,-1
 416 316 l 1,4,-1
 176 316 l 1,5,-1
 176 0 l 1,6,-1
 90 0 l 1,7,-1
 90 700 l 1,8,-1
 176 700 l 1,9,-1
 176 386 l 1,10,-1
 416 386 l 1,11,-1
 416 700 l 1,0,-1
EndSplineSet
EndChar

StartChar: I
Encoding: 73 73 44
Width: 266
GlyphClass: 2
Flags: W
LayerCount: 2
Fore
SplineSet
90 700 m 1,0,-1
 176 700 l 1,1,-1
 176 0 l 1,2,-1
 90 0 l 1,3,-1
 90 700 l 1,0,-1
EndSplineSet
EndChar

StartChar: J
Encoding: 74 74 45
Width: 271
GlyphClass: 2
Flags: W
LayerCount: 2
Fore
SplineSet
186 700 m 1,0,-1
 186 157 l 2,1,2
 186 54 186 54 157 23 c 0,3,4
 124 -12 124 -12 59 -12 c 0,5,6
 44 -12 44 -12 26 -9 c 1,7,-1
 26 47 l 1,8,9
 79 49 79 49 90 72 c 0,10,11
 100 92 100 92 100 135 c 2,12,-1
 100 700 l 1,13,-1
 186 700 l 1,0,-1
EndSplineSet
EndChar

StartChar: K
Encoding: 75 75 46
Width: 518
GlyphClass: 2
Flags: W
LayerCount: 2
Fore
SplineSet
176 700 m 1,0,-1
 176 0 l 1,1,-1
 90 0 l 1,2,-1
 90 700 l 1,3,-1
 176 700 l 1,0,-1
202 350 m 1,4,-1
 386 700 l 1,5,-1
 477 700 l 1,6,-1
 293 350 l 1,7,-1
 478 0 l 1,8,-1
 386 0 l 1,9,-1
 202 350 l 1,4,-1
EndSplineSet
EndChar

StartChar: L
Encoding: 76 76 47
Width: 422
GlyphClass: 2
Flags: W
LayerCount: 2
Fore
SplineSet
90 0 m 1,0,-1
 90 700 l 1,1,-1
 176 700 l 1,2,-1
 176 70 l 1,3,-1
 402 70 l 1,4,-1
 402 0 l 1,5,-1
 90 0 l 1,0,-1
EndSplineSet
EndChar

StartChar: M
Encoding: 77 77 48
Width: 726
GlyphClass: 2
Flags: W
LayerCount: 2
Fore
SplineSet
410 170 m 1,0,-1
 316 170 l 1,1,-1
 184 563 l 1,2,-1
 178 563 l 1,3,-1
 165 0 l 1,4,-1
 82 0 l 1,5,-1
 103 700 l 1,6,-1
 213 700 l 1,7,-1
 360 258 l 1,8,-1
 366 258 l 1,9,-1
 513 700 l 1,10,-1
 623 700 l 1,11,-1
 644 0 l 1,12,-1
 561 0 l 1,13,-1
 548 563 l 1,14,-1
 542 563 l 1,15,-1
 410 170 l 1,0,-1
EndSplineSet
EndChar

StartChar: N
Encoding: 78 78 49
Width: 597
GlyphClass: 2
Flags: W
LayerCount: 2
Fore
SplineSet
90 700 m 1,0,-1
 216 700 l 1,1,-1
 417 116 l 1,2,-1
 423 116 l 1,3,-1
 423 700 l 1,4,-1
 507 700 l 1,5,-1
 507 0 l 1,6,-1
 381 0 l 1,7,-1
 180 584 l 1,8,-1
 174 584 l 1,9,-1
 174 0 l 1,10,-1
 90 0 l 1,11,-1
 90 700 l 1,0,-1
EndSplineSet
EndChar

StartChar: O
Encoding: 79 79 50
Width: 593
GlyphClass: 2
Flags: W
LayerCount: 2
Fore
SplineSet
377.5 -5 m 128,-1,1
 343 -12 343 -12 303 -12 c 128,-1,2
 263 -12 263 -12 236.5 -9.5 c 128,-1,3
 210 -7 210 -7 189 0.5 c 128,-1,4
 168 8 168 8 152 15 c 128,-1,5
 136 22 136 22 123.5 39 c 128,-1,6
 111 56 111 56 103 68 c 128,-1,7
 95 80 95 80 89.5 107 c 128,-1,8
 84 134 84 134 81 152.5 c 128,-1,9
 78 171 78 171 77 210 c 0,10,11
 75 286 75 286 75 353 c 128,-1,12
 75 420 75 420 76 454 c 128,-1,13
 77 488 77 488 80.5 536 c 128,-1,14
 84 584 84 584 93 604.5 c 128,-1,15
 102 625 102 625 117 651.5 c 128,-1,16
 132 678 132 678 156 688 c 0,17,18
 220 712 220 712 291 712 c 128,-1,19
 362 712 362 712 403.5 697.5 c 128,-1,20
 445 683 445 683 469 663 c 128,-1,21
 493 643 493 643 503.5 589 c 128,-1,22
 514 535 514 535 516 491 c 128,-1,23
 518 447 518 447 518 362.5 c 128,-1,24
 518 278 518 278 517 244 c 128,-1,25
 516 210 516 210 512.5 162 c 128,-1,26
 509 114 509 114 500 93.5 c 128,-1,27
 491 73 491 73 476 47 c 128,-1,28
 461 21 461 21 436.5 11.5 c 128,-1,0
 412 2 412 2 377.5 -5 c 128,-1,1
431 193 m 2,29,-1
 431 507 l 2,30,31
 431 587 431 587 414 604 c 0,32,33
 389 631 389 631 359.5 636 c 128,-1,34
 330 641 330 641 297 641 c 128,-1,35
 264 641 264 641 240 637 c 128,-1,36
 216 633 216 633 201.5 623 c 128,-1,37
 187 613 187 613 178.5 604 c 128,-1,38
 170 595 170 595 166 576 c 0,39,40
 162 552 162 552 162 507 c 2,41,-1
 162 193 l 2,42,43
 162 113 162 113 178 96 c 0,44,45
 204 69 204 69 234 64 c 128,-1,46
 264 59 264 59 297 59 c 128,-1,47
 330 59 330 59 353.5 63 c 128,-1,48
 377 67 377 67 391.5 77 c 128,-1,49
 406 87 406 87 414.5 96 c 128,-1,50
 423 105 423 105 426 124 c 0,51,52
 431 148 431 148 431 193 c 2,29,-1
EndSplineSet
EndChar

StartChar: P
Encoding: 80 80 51
Width: 513
GlyphClass: 2
Flags: W
LayerCount: 2
Fore
SplineSet
90 700 m 1,0,-1
 241 700 l 2,1,2
 361 700 361 700 412 649 c 128,-1,3
 463 598 463 598 463 474 c 128,-1,4
 463 350 463 350 412 299 c 128,-1,5
 361 248 361 248 241 248 c 2,6,-1
 176 248 l 1,7,-1
 176 0 l 1,8,-1
 90 0 l 1,9,-1
 90 700 l 1,0,-1
376 450 m 2,10,-1
 376 498 l 2,11,12
 376 528 376 528 375 542.5 c 128,-1,13
 374 557 374 557 367.5 577 c 128,-1,14
 361 597 361 597 347 606 c 0,15,16
 311 629 311 629 242 629 c 2,17,-1
 176 629 l 1,18,-1
 176 319 l 1,19,-1
 242 319 l 2,20,21
 311 319 311 319 347 342 c 0,22,23
 372 358 372 358 375 406 c 0,24,25
 376 420 376 420 376 450 c 2,10,-1
EndSplineSet
PairPos2: "'kern' Horizontal Kerning in Latin lookup 0 per glyph data 1" AE dx=0 dy=0 dh=-45 dv=0 dx=0 dy=0 dh=0 dv=0
PairPos2: "'kern' Horizontal Kerning in Latin lookup 0 per glyph data 1" Aring dx=0 dy=0 dh=-30 dv=0 dx=0 dy=0 dh=0 dv=0
PairPos2: "'kern' Horizontal Kerning in Latin lookup 0 per glyph data 1" Adieresis dx=0 dy=0 dh=-30 dv=0 dx=0 dy=0 dh=0 dv=0
PairPos2: "'kern' Horizontal Kerning in Latin lookup 0 per glyph data 1" Atilde dx=0 dy=0 dh=-30 dv=0 dx=0 dy=0 dh=0 dv=0
PairPos2: "'kern' Horizontal Kerning in Latin lookup 0 per glyph data 1" Acircumflex dx=0 dy=0 dh=-30 dv=0 dx=0 dy=0 dh=0 dv=0
PairPos2: "'kern' Horizontal Kerning in Latin lookup 0 per glyph data 1" Aacute dx=0 dy=0 dh=-30 dv=0 dx=0 dy=0 dh=0 dv=0
PairPos2: "'kern' Horizontal Kerning in Latin lookup 0 per glyph data 1" Agrave dx=0 dy=0 dh=-30 dv=0 dx=0 dy=0 dh=0 dv=0
PairPos2: "'kern' Horizontal Kerning in Latin lookup 0 per glyph data 1" A dx=0 dy=0 dh=-30 dv=0 dx=0 dy=0 dh=0 dv=0
EndChar

StartChar: Q
Encoding: 81 81 52
Width: 593
GlyphClass: 2
Flags: W
LayerCount: 2
Fore
SplineSet
75.5 260 m 128,-1,1
 75 290 75 290 75 355 c 128,-1,2
 75 420 75 420 76 454 c 128,-1,3
 77 488 77 488 80.5 536 c 128,-1,4
 84 584 84 584 93 604.5 c 128,-1,5
 102 625 102 625 117 651.5 c 128,-1,6
 132 678 132 678 156 688 c 0,7,8
 220 712 220 712 291 712 c 128,-1,9
 362 712 362 712 403.5 697.5 c 128,-1,10
 445 683 445 683 469 663 c 128,-1,11
 493 643 493 643 503.5 589 c 128,-1,12
 514 535 514 535 516 491 c 128,-1,13
 518 447 518 447 518 352 c 128,-1,14
 518 257 518 257 516.5 214 c 128,-1,15
 515 171 515 171 506 119 c 128,-1,16
 497 67 497 67 478 46 c 0,17,18
 429 -6 429 -6 334 -11 c 1,19,-1
 334 -16 l 1,20,-1
 340 -21 l 1,21,-1
 365 -124 l 1,22,-1
 287 -124 l 1,23,-1
 266 -11 l 1,24,25
 189 -7 189 -7 162.5 10 c 128,-1,26
 136 27 136 27 122.5 39 c 128,-1,27
 109 51 109 51 100 78 c 128,-1,28
 91 105 91 105 86 125 c 128,-1,29
 81 145 81 145 78.5 187.5 c 128,-1,0
 76 230 76 230 75.5 260 c 128,-1,1
431 193 m 2,30,-1
 431 507 l 2,31,32
 431 587 431 587 414 604 c 0,33,34
 389 631 389 631 359.5 636 c 128,-1,35
 330 641 330 641 297 641 c 128,-1,36
 264 641 264 641 240 637 c 128,-1,37
 216 633 216 633 201.5 623 c 128,-1,38
 187 613 187 613 178.5 604 c 128,-1,39
 170 595 170 595 166 576 c 0,40,41
 162 552 162 552 162 507 c 2,42,-1
 162 193 l 2,43,44
 162 113 162 113 178 96 c 0,45,46
 204 69 204 69 234 64 c 128,-1,47
 264 59 264 59 297 59 c 128,-1,48
 330 59 330 59 353.5 63 c 128,-1,49
 377 67 377 67 391.5 77 c 128,-1,50
 406 87 406 87 414.5 96 c 128,-1,51
 423 105 423 105 426 124 c 0,52,53
 431 148 431 148 431 193 c 2,30,-1
EndSplineSet
EndChar

StartChar: R
Encoding: 82 82 53
Width: 540
GlyphClass: 2
Flags: W
LayerCount: 2
Fore
SplineSet
241 268 m 2,0,-1
 176 268 l 1,1,-1
 176 0 l 1,2,-1
 90 0 l 1,3,-1
 90 700 l 1,4,-1
 241 700 l 2,5,6
 361 700 361 700 412 651.5 c 128,-1,7
 463 603 463 603 463 484 c 0,8,9
 463 402 463 402 439.5 354.5 c 128,-1,10
 416 307 416 307 365 287 c 1,11,-1
 480 0 l 1,12,-1
 392 0 l 1,13,-1
 282 269 l 1,14,15
 269 268 269 268 241 268 c 2,0,-1
376 462 m 2,16,-1
 376 506 l 2,17,18
 376 534 376 534 375 547.5 c 128,-1,19
 374 561 374 561 367.5 580 c 128,-1,20
 361 599 361 599 347 608 c 0,21,22
 312 629 312 629 242 629 c 2,23,-1
 176 629 l 1,24,-1
 176 339 l 1,25,-1
 242 339 l 2,26,27
 312 339 312 339 347 360 c 0,28,29
 361 369 361 369 367.5 388 c 128,-1,30
 374 407 374 407 375 420.5 c 128,-1,31
 376 434 376 434 376 462 c 2,16,-1
EndSplineSet
EndChar

StartChar: S
Encoding: 83 83 54
Width: 490
GlyphClass: 2
Flags: W
LayerCount: 2
Fore
SplineSet
390 42.5 m 128,-1,1
 345 -12 345 -12 242.5 -12 c 128,-1,2
 140 -12 140 -12 55 25 c 1,3,-1
 73 87 l 1,4,5
 153 59 153 59 237 59 c 0,6,7
 296 59 296 59 323.5 88 c 128,-1,8
 351 117 351 117 351 177 c 128,-1,9
 351 237 351 237 336 268 c 128,-1,10
 321 299 321 299 273 306 c 2,11,-1
 174 320 l 1,12,13
 104 331 104 331 80.5 377 c 128,-1,14
 57 423 57 423 57 516 c 128,-1,15
 57 609 57 609 105.5 660.5 c 128,-1,16
 154 712 154 712 239.5 712 c 128,-1,17
 325 712 325 712 411 680 c 1,18,-1
 393 620 l 1,19,20
 318 641 318 641 257.5 641 c 128,-1,21
 197 641 197 641 169 616.5 c 128,-1,22
 141 592 141 592 141 525 c 128,-1,23
 141 458 141 458 155.5 429 c 128,-1,24
 170 400 170 400 214 394 c 2,25,-1
 308 380 l 2,26,27
 372 370 372 370 403.5 327.5 c 128,-1,28
 435 285 435 285 435 191 c 128,-1,0
 435 97 435 97 390 42.5 c 128,-1,1
EndSplineSet
EndChar

StartChar: T
Encoding: 84 84 55
Width: 400
GlyphClass: 2
Flags: W
LayerCount: 2
Fore
SplineSet
10 630 m 1,0,-1
 10 700 l 1,1,-1
 390 700 l 1,2,-1
 390 630 l 1,3,-1
 243 630 l 1,4,-1
 243 0 l 1,5,-1
 157 0 l 1,6,-1
 157 630 l 1,7,-1
 10 630 l 1,0,-1
EndSplineSet
PairPos2: "'kern' Horizontal Kerning in Latin lookup 0 per glyph data 1" ellipsis dx=0 dy=0 dh=-60 dv=0 dx=0 dy=0 dh=0 dv=0
PairPos2: "'kern' Horizontal Kerning in Latin lookup 0 per glyph data 1" quotedblbase dx=0 dy=0 dh=-60 dv=0 dx=0 dy=0 dh=0 dv=0
PairPos2: "'kern' Horizontal Kerning in Latin lookup 0 per glyph data 1" quotesinglbase dx=0 dy=0 dh=-60 dv=0 dx=0 dy=0 dh=0 dv=0
PairPos2: "'kern' Horizontal Kerning in Latin lookup 0 per glyph data 1" scaron dx=0 dy=0 dh=-40 dv=0 dx=0 dy=0 dh=0 dv=0
PairPos2: "'kern' Horizontal Kerning in Latin lookup 0 per glyph data 1" oe dx=0 dy=0 dh=-40 dv=0 dx=0 dy=0 dh=0 dv=0
PairPos2: "'kern' Horizontal Kerning in Latin lookup 0 per glyph data 1" dotlessi dx=0 dy=0 dh=-30 dv=0 dx=0 dy=0 dh=0 dv=0
PairPos2: "'kern' Horizontal Kerning in Latin lookup 0 per glyph data 1" udieresis dx=0 dy=0 dh=-30 dv=0 dx=0 dy=0 dh=0 dv=0
PairPos2: "'kern' Horizontal Kerning in Latin lookup 0 per glyph data 1" ucircumflex dx=0 dy=0 dh=-30 dv=0 dx=0 dy=0 dh=0 dv=0
PairPos2: "'kern' Horizontal Kerning in Latin lookup 0 per glyph data 1" uacute dx=0 dy=0 dh=-30 dv=0 dx=0 dy=0 dh=0 dv=0
PairPos2: "'kern' Horizontal Kerning in Latin lookup 0 per glyph data 1" ugrave dx=0 dy=0 dh=-30 dv=0 dx=0 dy=0 dh=0 dv=0
PairPos2: "'kern' Horizontal Kerning in Latin lookup 0 per glyph data 1" oslash dx=0 dy=0 dh=-40 dv=0 dx=0 dy=0 dh=0 dv=0
PairPos2: "'kern' Horizontal Kerning in Latin lookup 0 per glyph data 1" odieresis dx=0 dy=0 dh=-40 dv=0 dx=0 dy=0 dh=0 dv=0
PairPos2: "'kern' Horizontal Kerning in Latin lookup 0 per glyph data 1" otilde dx=0 dy=0 dh=-40 dv=0 dx=0 dy=0 dh=0 dv=0
PairPos2: "'kern' Horizontal Kerning in Latin lookup 0 per glyph data 1" ocircumflex dx=0 dy=0 dh=-40 dv=0 dx=0 dy=0 dh=0 dv=0
PairPos2: "'kern' Horizontal Kerning in Latin lookup 0 per glyph data 1" oacute dx=0 dy=0 dh=-40 dv=0 dx=0 dy=0 dh=0 dv=0
PairPos2: "'kern' Horizontal Kerning in Latin lookup 0 per glyph data 1" ograve dx=0 dy=0 dh=-40 dv=0 dx=0 dy=0 dh=0 dv=0
PairPos2: "'kern' Horizontal Kerning in Latin lookup 0 per glyph data 1" ntilde dx=0 dy=0 dh=-30 dv=0 dx=0 dy=0 dh=0 dv=0
PairPos2: "'kern' Horizontal Kerning in Latin lookup 0 per glyph data 1" edieresis dx=0 dy=0 dh=-40 dv=0 dx=0 dy=0 dh=0 dv=0
PairPos2: "'kern' Horizontal Kerning in Latin lookup 0 per glyph data 1" ecircumflex dx=0 dy=0 dh=-40 dv=0 dx=0 dy=0 dh=0 dv=0
PairPos2: "'kern' Horizontal Kerning in Latin lookup 0 per glyph data 1" eacute dx=0 dy=0 dh=-40 dv=0 dx=0 dy=0 dh=0 dv=0
PairPos2: "'kern' Horizontal Kerning in Latin lookup 0 per glyph data 1" egrave dx=0 dy=0 dh=-40 dv=0 dx=0 dy=0 dh=0 dv=0
PairPos2: "'kern' Horizontal Kerning in Latin lookup 0 per glyph data 1" ccedilla dx=0 dy=0 dh=-40 dv=0 dx=0 dy=0 dh=0 dv=0
PairPos2: "'kern' Horizontal Kerning in Latin lookup 0 per glyph data 1" ae dx=0 dy=0 dh=-40 dv=0 dx=0 dy=0 dh=0 dv=0
PairPos2: "'kern' Horizontal Kerning in Latin lookup 0 per glyph data 1" aring dx=0 dy=0 dh=-40 dv=0 dx=0 dy=0 dh=0 dv=0
PairPos2: "'kern' Horizontal Kerning in Latin lookup 0 per glyph data 1" adieresis dx=0 dy=0 dh=-40 dv=0 dx=0 dy=0 dh=0 dv=0
PairPos2: "'kern' Horizontal Kerning in Latin lookup 0 per glyph data 1" atilde dx=0 dy=0 dh=-40 dv=0 dx=0 dy=0 dh=0 dv=0
PairPos2: "'kern' Horizontal Kerning in Latin lookup 0 per glyph data 1" acircumflex dx=0 dy=0 dh=-40 dv=0 dx=0 dy=0 dh=0 dv=0
PairPos2: "'kern' Horizontal Kerning in Latin lookup 0 per glyph data 1" aacute dx=0 dy=0 dh=-40 dv=0 dx=0 dy=0 dh=0 dv=0
PairPos2: "'kern' Horizontal Kerning in Latin lookup 0 per glyph data 1" agrave dx=0 dy=0 dh=-40 dv=0 dx=0 dy=0 dh=0 dv=0
PairPos2: "'kern' Horizontal Kerning in Latin lookup 0 per glyph data 1" AE dx=0 dy=0 dh=-50 dv=0 dx=0 dy=0 dh=0 dv=0
PairPos2: "'kern' Horizontal Kerning in Latin lookup 0 per glyph data 1" Aring dx=0 dy=0 dh=-40 dv=0 dx=0 dy=0 dh=0 dv=0
PairPos2: "'kern' Horizontal Kerning in Latin lookup 0 per glyph data 1" Adieresis dx=0 dy=0 dh=-40 dv=0 dx=0 dy=0 dh=0 dv=0
PairPos2: "'kern' Horizontal Kerning in Latin lookup 0 per glyph data 1" Atilde dx=0 dy=0 dh=-40 dv=0 dx=0 dy=0 dh=0 dv=0
PairPos2: "'kern' Horizontal Kerning in Latin lookup 0 per glyph data 1" Acircumflex dx=0 dy=0 dh=-40 dv=0 dx=0 dy=0 dh=0 dv=0
PairPos2: "'kern' Horizontal Kerning in Latin lookup 0 per glyph data 1" Aacute dx=0 dy=0 dh=-40 dv=0 dx=0 dy=0 dh=0 dv=0
PairPos2: "'kern' Horizontal Kerning in Latin lookup 0 per glyph data 1" Agrave dx=0 dy=0 dh=-40 dv=0 dx=0 dy=0 dh=0 dv=0
PairPos2: "'kern' Horizontal Kerning in Latin lookup 0 per glyph data 1" mu dx=0 dy=0 dh=-30 dv=0 dx=0 dy=0 dh=0 dv=0
PairPos2: "'kern' Horizontal Kerning in Latin lookup 0 per glyph data 1" z dx=0 dy=0 dh=-30 dv=0 dx=0 dy=0 dh=0 dv=0
PairPos2: "'kern' Horizontal Kerning in Latin lookup 0 per glyph data 1" u dx=0 dy=0 dh=-30 dv=0 dx=0 dy=0 dh=0 dv=0
PairPos2: "'kern' Horizontal Kerning in Latin lookup 0 per glyph data 1" t dx=0 dy=0 dh=-30 dv=0 dx=0 dy=0 dh=0 dv=0
PairPos2: "'kern' Horizontal Kerning in Latin lookup 0 per glyph data 1" s dx=0 dy=0 dh=-40 dv=0 dx=0 dy=0 dh=0 dv=0
PairPos2: "'kern' Horizontal Kerning in Latin lookup 0 per glyph data 1" r dx=0 dy=0 dh=-30 dv=0 dx=0 dy=0 dh=0 dv=0
PairPos2: "'kern' Horizontal Kerning in Latin lookup 0 per glyph data 1" q dx=0 dy=0 dh=-40 dv=0 dx=0 dy=0 dh=0 dv=0
PairPos2: "'kern' Horizontal Kerning in Latin lookup 0 per glyph data 1" p dx=0 dy=0 dh=-30 dv=0 dx=0 dy=0 dh=0 dv=0
PairPos2: "'kern' Horizontal Kerning in Latin lookup 0 per glyph data 1" o dx=0 dy=0 dh=-40 dv=0 dx=0 dy=0 dh=0 dv=0
PairPos2: "'kern' Horizontal Kerning in Latin lookup 0 per glyph data 1" n dx=0 dy=0 dh=-30 dv=0 dx=0 dy=0 dh=0 dv=0
PairPos2: "'kern' Horizontal Kerning in Latin lookup 0 per glyph data 1" m dx=0 dy=0 dh=-30 dv=0 dx=0 dy=0 dh=0 dv=0
PairPos2: "'kern' Horizontal Kerning in Latin lookup 0 per glyph data 1" e dx=0 dy=0 dh=-40 dv=0 dx=0 dy=0 dh=0 dv=0
PairPos2: "'kern' Horizontal Kerning in Latin lookup 0 per glyph data 1" d dx=0 dy=0 dh=-40 dv=0 dx=0 dy=0 dh=0 dv=0
PairPos2: "'kern' Horizontal Kerning in Latin lookup 0 per glyph data 1" c dx=0 dy=0 dh=-40 dv=0 dx=0 dy=0 dh=0 dv=0
PairPos2: "'kern' Horizontal Kerning in Latin lookup 0 per glyph data 1" a dx=0 dy=0 dh=-40 dv=0 dx=0 dy=0 dh=0 dv=0
PairPos2: "'kern' Horizontal Kerning in Latin lookup 0 per glyph data 1" A dx=0 dy=0 dh=-40 dv=0 dx=0 dy=0 dh=0 dv=0
PairPos2: "'kern' Horizontal Kerning in Latin lookup 0 per glyph data 1" period dx=0 dy=0 dh=-60 dv=0 dx=0 dy=0 dh=0 dv=0
PairPos2: "'kern' Horizontal Kerning in Latin lookup 0 per glyph data 1" comma dx=0 dy=0 dh=-60 dv=0 dx=0 dy=0 dh=0 dv=0
EndChar

StartChar: U
Encoding: 85 85 56
Width: 611
GlyphClass: 2
Flags: W
LayerCount: 2
Fore
SplineSet
440 193 m 2,0,-1
 440 700 l 1,1,-1
 526 700 l 1,2,-1
 526 349 l 2,3,4
 526 135 526 135 508 94 c 0,5,6
 500 74 500 74 484.5 47.5 c 128,-1,7
 469 21 469 21 445 11.5 c 128,-1,8
 421 2 421 2 386.5 -5 c 128,-1,9
 352 -12 352 -12 305 -12 c 128,-1,10
 258 -12 258 -12 224 -5 c 128,-1,11
 190 2 190 2 165.5 11.5 c 128,-1,12
 141 21 141 21 126 47.5 c 128,-1,13
 111 74 111 74 102.5 94 c 128,-1,14
 94 114 94 114 90 162 c 0,15,16
 85 222 85 222 85 349 c 2,17,-1
 85 700 l 1,18,-1
 171 700 l 1,19,-1
 171 193 l 2,20,21
 171 163 171 163 172 148.5 c 128,-1,22
 173 134 173 134 179.5 114 c 128,-1,23
 186 94 186 94 200 85 c 128,-1,24
 214 76 214 76 240.5 69 c 128,-1,25
 267 62 267 62 306 62 c 128,-1,26
 345 62 345 62 371 69 c 128,-1,27
 397 76 397 76 411 85 c 128,-1,28
 425 94 425 94 431.5 114 c 128,-1,29
 438 134 438 134 439 148.5 c 128,-1,30
 440 163 440 163 440 193 c 2,0,-1
EndSplineSet
EndChar

StartChar: V
Encoding: 86 86 57
Width: 532
GlyphClass: 2
Flags: W
LayerCount: 2
Fore
SplineSet
333 0 m 1,0,-1
 199 0 l 1,1,-1
 35 700 l 1,2,-1
 120 700 l 1,3,-1
 263 57 l 1,4,-1
 269 57 l 1,5,-1
 412 700 l 1,6,-1
 497 700 l 1,7,-1
 333 0 l 1,0,-1
EndSplineSet
PairPos2: "'kern' Horizontal Kerning in Latin lookup 0 per glyph data 1" ellipsis dx=0 dy=0 dh=-50 dv=0 dx=0 dy=0 dh=0 dv=0
PairPos2: "'kern' Horizontal Kerning in Latin lookup 0 per glyph data 1" quotedblbase dx=0 dy=0 dh=-50 dv=0 dx=0 dy=0 dh=0 dv=0
PairPos2: "'kern' Horizontal Kerning in Latin lookup 0 per glyph data 1" quotesinglbase dx=0 dy=0 dh=-50 dv=0 dx=0 dy=0 dh=0 dv=0
PairPos2: "'kern' Horizontal Kerning in Latin lookup 0 per glyph data 1" scaron dx=0 dy=0 dh=-30 dv=0 dx=0 dy=0 dh=0 dv=0
PairPos2: "'kern' Horizontal Kerning in Latin lookup 0 per glyph data 1" oe dx=0 dy=0 dh=-30 dv=0 dx=0 dy=0 dh=0 dv=0
PairPos2: "'kern' Horizontal Kerning in Latin lookup 0 per glyph data 1" oslash dx=0 dy=0 dh=-30 dv=0 dx=0 dy=0 dh=0 dv=0
PairPos2: "'kern' Horizontal Kerning in Latin lookup 0 per glyph data 1" odieresis dx=0 dy=0 dh=-30 dv=0 dx=0 dy=0 dh=0 dv=0
PairPos2: "'kern' Horizontal Kerning in Latin lookup 0 per glyph data 1" otilde dx=0 dy=0 dh=-30 dv=0 dx=0 dy=0 dh=0 dv=0
PairPos2: "'kern' Horizontal Kerning in Latin lookup 0 per glyph data 1" ocircumflex dx=0 dy=0 dh=-30 dv=0 dx=0 dy=0 dh=0 dv=0
PairPos2: "'kern' Horizontal Kerning in Latin lookup 0 per glyph data 1" oacute dx=0 dy=0 dh=-30 dv=0 dx=0 dy=0 dh=0 dv=0
PairPos2: "'kern' Horizontal Kerning in Latin lookup 0 per glyph data 1" ograve dx=0 dy=0 dh=-30 dv=0 dx=0 dy=0 dh=0 dv=0
PairPos2: "'kern' Horizontal Kerning in Latin lookup 0 per glyph data 1" edieresis dx=0 dy=0 dh=-30 dv=0 dx=0 dy=0 dh=0 dv=0
PairPos2: "'kern' Horizontal Kerning in Latin lookup 0 per glyph data 1" ecircumflex dx=0 dy=0 dh=-30 dv=0 dx=0 dy=0 dh=0 dv=0
PairPos2: "'kern' Horizontal Kerning in Latin lookup 0 per glyph data 1" eacute dx=0 dy=0 dh=-30 dv=0 dx=0 dy=0 dh=0 dv=0
PairPos2: "'kern' Horizontal Kerning in Latin lookup 0 per glyph data 1" egrave dx=0 dy=0 dh=-30 dv=0 dx=0 dy=0 dh=0 dv=0
PairPos2: "'kern' Horizontal Kerning in Latin lookup 0 per glyph data 1" ccedilla dx=0 dy=0 dh=-30 dv=0 dx=0 dy=0 dh=0 dv=0
PairPos2: "'kern' Horizontal Kerning in Latin lookup 0 per glyph data 1" AE dx=0 dy=0 dh=-40 dv=0 dx=0 dy=0 dh=0 dv=0
PairPos2: "'kern' Horizontal Kerning in Latin lookup 0 per glyph data 1" Aring dx=0 dy=0 dh=-30 dv=0 dx=0 dy=0 dh=0 dv=0
PairPos2: "'kern' Horizontal Kerning in Latin lookup 0 per glyph data 1" Adieresis dx=0 dy=0 dh=-30 dv=0 dx=0 dy=0 dh=0 dv=0
PairPos2: "'kern' Horizontal Kerning in Latin lookup 0 per glyph data 1" Atilde dx=0 dy=0 dh=-30 dv=0 dx=0 dy=0 dh=0 dv=0
PairPos2: "'kern' Horizontal Kerning in Latin lookup 0 per glyph data 1" Acircumflex dx=0 dy=0 dh=-30 dv=0 dx=0 dy=0 dh=0 dv=0
PairPos2: "'kern' Horizontal Kerning in Latin lookup 0 per glyph data 1" Aacute dx=0 dy=0 dh=-30 dv=0 dx=0 dy=0 dh=0 dv=0
PairPos2: "'kern' Horizontal Kerning in Latin lookup 0 per glyph data 1" Agrave dx=0 dy=0 dh=-30 dv=0 dx=0 dy=0 dh=0 dv=0
PairPos2: "'kern' Horizontal Kerning in Latin lookup 0 per glyph data 1" s dx=0 dy=0 dh=-30 dv=0 dx=0 dy=0 dh=0 dv=0
PairPos2: "'kern' Horizontal Kerning in Latin lookup 0 per glyph data 1" q dx=0 dy=0 dh=-30 dv=0 dx=0 dy=0 dh=0 dv=0
PairPos2: "'kern' Horizontal Kerning in Latin lookup 0 per glyph data 1" o dx=0 dy=0 dh=-30 dv=0 dx=0 dy=0 dh=0 dv=0
PairPos2: "'kern' Horizontal Kerning in Latin lookup 0 per glyph data 1" e dx=0 dy=0 dh=-30 dv=0 dx=0 dy=0 dh=0 dv=0
PairPos2: "'kern' Horizontal Kerning in Latin lookup 0 per glyph data 1" d dx=0 dy=0 dh=-30 dv=0 dx=0 dy=0 dh=0 dv=0
PairPos2: "'kern' Horizontal Kerning in Latin lookup 0 per glyph data 1" c dx=0 dy=0 dh=-30 dv=0 dx=0 dy=0 dh=0 dv=0
PairPos2: "'kern' Horizontal Kerning in Latin lookup 0 per glyph data 1" A dx=0 dy=0 dh=-30 dv=0 dx=0 dy=0 dh=0 dv=0
PairPos2: "'kern' Horizontal Kerning in Latin lookup 0 per glyph data 1" period dx=0 dy=0 dh=-50 dv=0 dx=0 dy=0 dh=0 dv=0
PairPos2: "'kern' Horizontal Kerning in Latin lookup 0 per glyph data 1" comma dx=0 dy=0 dh=-50 dv=0 dx=0 dy=0 dh=0 dv=0
EndChar

StartChar: W
Encoding: 87 87 58
Width: 845
GlyphClass: 2
Flags: W
LayerCount: 2
Fore
SplineSet
672 0 m 1,0,-1
 537 0 l 1,1,-1
 425 572 l 1,2,-1
 419 572 l 1,3,-1
 308 0 l 1,4,-1
 173 0 l 1,5,-1
 55 700 l 1,6,-1
 140 700 l 1,7,-1
 241 57 l 1,8,-1
 247 57 l 1,9,-1
 375 700 l 1,10,-1
 470 700 l 1,11,-1
 598 57 l 1,12,-1
 604 57 l 1,13,-1
 705 700 l 1,14,-1
 790 700 l 1,15,-1
 672 0 l 1,0,-1
EndSplineSet
PairPos2: "'kern' Horizontal Kerning in Latin lookup 0 per glyph data 1" ellipsis dx=0 dy=0 dh=-40 dv=0 dx=0 dy=0 dh=0 dv=0
PairPos2: "'kern' Horizontal Kerning in Latin lookup 0 per glyph data 1" quotedblbase dx=0 dy=0 dh=-40 dv=0 dx=0 dy=0 dh=0 dv=0
PairPos2: "'kern' Horizontal Kerning in Latin lookup 0 per glyph data 1" quotesinglbase dx=0 dy=0 dh=-40 dv=0 dx=0 dy=0 dh=0 dv=0
PairPos2: "'kern' Horizontal Kerning in Latin lookup 0 per glyph data 1" scaron dx=0 dy=0 dh=-20 dv=0 dx=0 dy=0 dh=0 dv=0
PairPos2: "'kern' Horizontal Kerning in Latin lookup 0 per glyph data 1" oe dx=0 dy=0 dh=-20 dv=0 dx=0 dy=0 dh=0 dv=0
PairPos2: "'kern' Horizontal Kerning in Latin lookup 0 per glyph data 1" oslash dx=0 dy=0 dh=-20 dv=0 dx=0 dy=0 dh=0 dv=0
PairPos2: "'kern' Horizontal Kerning in Latin lookup 0 per glyph data 1" odieresis dx=0 dy=0 dh=-20 dv=0 dx=0 dy=0 dh=0 dv=0
PairPos2: "'kern' Horizontal Kerning in Latin lookup 0 per glyph data 1" otilde dx=0 dy=0 dh=-20 dv=0 dx=0 dy=0 dh=0 dv=0
PairPos2: "'kern' Horizontal Kerning in Latin lookup 0 per glyph data 1" ocircumflex dx=0 dy=0 dh=-20 dv=0 dx=0 dy=0 dh=0 dv=0
PairPos2: "'kern' Horizontal Kerning in Latin lookup 0 per glyph data 1" oacute dx=0 dy=0 dh=-20 dv=0 dx=0 dy=0 dh=0 dv=0
PairPos2: "'kern' Horizontal Kerning in Latin lookup 0 per glyph data 1" ograve dx=0 dy=0 dh=-20 dv=0 dx=0 dy=0 dh=0 dv=0
PairPos2: "'kern' Horizontal Kerning in Latin lookup 0 per glyph data 1" edieresis dx=0 dy=0 dh=-20 dv=0 dx=0 dy=0 dh=0 dv=0
PairPos2: "'kern' Horizontal Kerning in Latin lookup 0 per glyph data 1" ecircumflex dx=0 dy=0 dh=-20 dv=0 dx=0 dy=0 dh=0 dv=0
PairPos2: "'kern' Horizontal Kerning in Latin lookup 0 per glyph data 1" eacute dx=0 dy=0 dh=-20 dv=0 dx=0 dy=0 dh=0 dv=0
PairPos2: "'kern' Horizontal Kerning in Latin lookup 0 per glyph data 1" egrave dx=0 dy=0 dh=-20 dv=0 dx=0 dy=0 dh=0 dv=0
PairPos2: "'kern' Horizontal Kerning in Latin lookup 0 per glyph data 1" ccedilla dx=0 dy=0 dh=-20 dv=0 dx=0 dy=0 dh=0 dv=0
PairPos2: "'kern' Horizontal Kerning in Latin lookup 0 per glyph data 1" AE dx=0 dy=0 dh=-30 dv=0 dx=0 dy=0 dh=0 dv=0
PairPos2: "'kern' Horizontal Kerning in Latin lookup 0 per glyph data 1" Aring dx=0 dy=0 dh=-20 dv=0 dx=0 dy=0 dh=0 dv=0
PairPos2: "'kern' Horizontal Kerning in Latin lookup 0 per glyph data 1" Adieresis dx=0 dy=0 dh=-20 dv=0 dx=0 dy=0 dh=0 dv=0
PairPos2: "'kern' Horizontal Kerning in Latin lookup 0 per glyph data 1" Atilde dx=0 dy=0 dh=-20 dv=0 dx=0 dy=0 dh=0 dv=0
PairPos2: "'kern' Horizontal Kerning in Latin lookup 0 per glyph data 1" Acircumflex dx=0 dy=0 dh=-20 dv=0 dx=0 dy=0 dh=0 dv=0
PairPos2: "'kern' Horizontal Kerning in Latin lookup 0 per glyph data 1" Aacute dx=0 dy=0 dh=-20 dv=0 dx=0 dy=0 dh=0 dv=0
PairPos2: "'kern' Horizontal Kerning in Latin lookup 0 per glyph data 1" Agrave dx=0 dy=0 dh=-20 dv=0 dx=0 dy=0 dh=0 dv=0
PairPos2: "'kern' Horizontal Kerning in Latin lookup 0 per glyph data 1" s dx=0 dy=0 dh=-20 dv=0 dx=0 dy=0 dh=0 dv=0
PairPos2: "'kern' Horizontal Kerning in Latin lookup 0 per glyph data 1" q dx=0 dy=0 dh=-20 dv=0 dx=0 dy=0 dh=0 dv=0
PairPos2: "'kern' Horizontal Kerning in Latin lookup 0 per glyph data 1" o dx=0 dy=0 dh=-20 dv=0 dx=0 dy=0 dh=0 dv=0
PairPos2: "'kern' Horizontal Kerning in Latin lookup 0 per glyph data 1" e dx=0 dy=0 dh=-20 dv=0 dx=0 dy=0 dh=0 dv=0
PairPos2: "'kern' Horizontal Kerning in Latin lookup 0 per glyph data 1" d dx=0 dy=0 dh=-20 dv=0 dx=0 dy=0 dh=0 dv=0
PairPos2: "'kern' Horizontal Kerning in Latin lookup 0 per glyph data 1" c dx=0 dy=0 dh=-20 dv=0 dx=0 dy=0 dh=0 dv=0
PairPos2: "'kern' Horizontal Kerning in Latin lookup 0 per glyph data 1" A dx=0 dy=0 dh=-20 dv=0 dx=0 dy=0 dh=0 dv=0
PairPos2: "'kern' Horizontal Kerning in Latin lookup 0 per glyph data 1" period dx=0 dy=0 dh=-40 dv=0 dx=0 dy=0 dh=0 dv=0
PairPos2: "'kern' Horizontal Kerning in Latin lookup 0 per glyph data 1" comma dx=0 dy=0 dh=-40 dv=0 dx=0 dy=0 dh=0 dv=0
EndChar

StartChar: X
Encoding: 88 88 59
Width: 515
GlyphClass: 2
Flags: W
LayerCount: 2
Fore
SplineSet
257 435 m 1,0,-1
 393 700 l 1,1,-1
 484 700 l 1,2,-1
 305 350 l 1,3,-1
 485 0 l 1,4,-1
 393 0 l 1,5,-1
 257 265 l 1,6,-1
 122 0 l 1,7,-1
 30 0 l 1,8,-1
 210 350 l 1,9,-1
 31 700 l 1,10,-1
 122 700 l 1,11,-1
 257 435 l 1,0,-1
EndSplineSet
EndChar

StartChar: Y
Encoding: 89 89 60
Width: 478
GlyphClass: 2
Flags: W
LayerCount: 2
Fore
SplineSet
279 0 m 1,0,-1
 199 0 l 1,1,-1
 199 225 l 1,2,-1
 25 700 l 1,3,-1
 113 700 l 1,4,-1
 236 319 l 1,5,-1
 242 319 l 1,6,-1
 365 700 l 1,7,-1
 453 700 l 1,8,-1
 279 225 l 1,9,-1
 279 0 l 1,0,-1
EndSplineSet
EndChar

StartChar: Z
Encoding: 90 90 61
Width: 487
GlyphClass: 2
Flags: W
LayerCount: 2
Fore
SplineSet
60 630 m 1,0,-1
 60 700 l 1,1,-1
 447 700 l 1,2,-1
 447 641 l 1,3,-1
 133 70 l 1,4,-1
 442 70 l 1,5,-1
 442 0 l 1,6,-1
 40 0 l 1,7,-1
 40 59 l 1,8,-1
 355 630 l 1,9,-1
 60 630 l 1,0,-1
EndSplineSet
EndChar

StartChar: bracketleft
Encoding: 91 91 62
Width: 340
GlyphClass: 2
Flags: W
LayerCount: 2
Fore
SplineSet
90 -100 m 1,0,-1
 90 800 l 1,1,-1
 280 800 l 1,2,-1
 280 730 l 1,3,-1
 176 730 l 1,4,-1
 176 -30 l 1,5,-1
 280 -30 l 1,6,-1
 280 -100 l 1,7,-1
 90 -100 l 1,0,-1
EndSplineSet
EndChar

StartChar: backslash
Encoding: 92 92 63
Width: 352
GlyphClass: 2
Flags: W
LayerCount: 2
Fore
SplineSet
0 700 m 1,0,-1
 76 700 l 1,1,-1
 352 0 l 1,2,-1
 276 0 l 1,3,-1
 0 700 l 1,0,-1
EndSplineSet
EndChar

StartChar: bracketright
Encoding: 93 93 64
Width: 340
GlyphClass: 2
Flags: W
LayerCount: 2
Fore
SplineSet
250 800 m 1,0,-1
 250 -100 l 1,1,-1
 60 -100 l 1,2,-1
 60 -30 l 1,3,-1
 164 -30 l 1,4,-1
 164 730 l 1,5,-1
 60 730 l 1,6,-1
 60 800 l 1,7,-1
 250 800 l 1,0,-1
EndSplineSet
EndChar

StartChar: asciicircum
Encoding: 94 94 65
Width: 500
GlyphClass: 2
Flags: W
LayerCount: 2
Fore
SplineSet
215 646 m 1,0,-1
 285 646 l 1,1,-1
 420 352 l 1,2,-1
 350 352 l 1,3,-1
 250 569 l 1,4,-1
 150 352 l 1,5,-1
 80 352 l 1,6,-1
 215 646 l 1,0,-1
EndSplineSet
EndChar

StartChar: underscore
Encoding: 95 95 66
Width: 430
GlyphClass: 2
Flags: W
LayerCount: 2
Fore
SplineSet
30 -77 m 1,0,-1
 30 -12 l 1,1,-1
 400 -12 l 1,2,-1
 400 -77 l 1,3,-1
 30 -77 l 1,0,-1
EndSplineSet
EndChar

StartChar: grave
Encoding: 96 96 67
Width: 430
GlyphClass: 2
Flags: W
LayerCount: 2
Fore
SplineSet
305 620 m 1,0,-1
 282 586 l 1,1,-1
 94 689 l 1,2,-1
 140 756 l 1,3,-1
 305 620 l 1,0,-1
EndSplineSet
EndChar

StartChar: a
Encoding: 97 97 68
Width: 497
GlyphClass: 2
Flags: W
LayerCount: 2
Fore
SplineSet
417 0 m 1,0,-1
 372 0 l 1,1,-1
 359 49 l 1,2,3
 335 22 335 22 305 7.5 c 128,-1,4
 275 -7 275 -7 255 -9.5 c 128,-1,5
 235 -12 235 -12 198.5 -12 c 128,-1,6
 162 -12 162 -12 134 1 c 128,-1,7
 106 14 106 14 92 40 c 0,8,9
 70 82 70 82 70 153 c 0,10,11
 70 243 70 243 122 270 c 0,12,13
 143 280 143 280 159.5 286 c 128,-1,14
 176 292 176 292 209.5 295 c 128,-1,15
 243 298 243 298 266.5 298.5 c 128,-1,16
 290 299 290 299 335 300 c 1,17,-1
 335 375 l 2,18,19
 335 427 335 427 313 445.5 c 128,-1,20
 291 464 291 464 233 464 c 128,-1,21
 175 464 175 464 107 442 c 1,22,-1
 91 492 l 1,23,24
 169 530 169 530 256 530 c 0,25,26
 360 530 360 530 390 488 c 0,27,28
 406 465 406 465 411.5 440 c 128,-1,29
 417 415 417 415 417 375 c 2,30,-1
 417 0 l 1,0,-1
335 140 m 2,31,-1
 335 243 l 1,32,33
 233 243 233 243 213.5 235.5 c 128,-1,34
 194 228 194 228 179 220 c 0,35,36
 152 206 152 206 152 165 c 2,37,-1
 152 142 l 2,38,39
 152 93 152 93 167 73 c 128,-1,40
 182 53 182 53 238.5 53 c 128,-1,41
 295 53 295 53 315 75.5 c 128,-1,42
 335 98 335 98 335 140 c 2,31,-1
EndSplineSet
EndChar

StartChar: b
Encoding: 98 98 69
Width: 514
GlyphClass: 2
Flags: W
LayerCount: 2
Fore
SplineSet
172 374 m 2,0,-1
 172 64 l 1,1,2
 227 53 227 53 274.5 53 c 128,-1,3
 322 53 322 53 338.5 72 c 128,-1,4
 355 91 355 91 355 147 c 2,5,-1
 355 372 l 2,6,7
 355 421 355 421 340 441 c 128,-1,8
 325 461 325 461 268.5 461 c 128,-1,9
 212 461 212 461 192 438.5 c 128,-1,10
 172 416 172 416 172 374 c 2,0,-1
90 720 m 1,11,-1
 167 720 l 1,12,-1
 167 486 l 1,13,14
 209 525 209 525 297.5 525 c 128,-1,15
 386 525 386 525 412.5 471.5 c 128,-1,16
 439 418 439 418 439 284 c 0,17,18
 439 168 439 168 435 141.5 c 128,-1,19
 431 115 431 115 427 93.5 c 128,-1,20
 423 72 423 72 416.5 60.5 c 128,-1,21
 410 49 410 49 400.5 35 c 128,-1,22
 391 21 391 21 378.5 14 c 128,-1,23
 366 7 366 7 350 0 c 0,24,25
 321 -12 321 -12 255 -12 c 128,-1,26
 189 -12 189 -12 90 17 c 1,27,-1
 90 720 l 1,11,-1
EndSplineSet
EndChar

StartChar: c
Encoding: 99 99 70
Width: 405
GlyphClass: 2
Flags: W
LayerCount: 2
Fore
SplineSet
371 507 m 1,0,-1
 355 454 l 1,1,2
 311 465 311 465 266 465 c 128,-1,3
 221 465 221 465 200 459 c 128,-1,4
 179 453 179 453 170.5 438 c 128,-1,5
 162 423 162 423 160 411 c 128,-1,6
 158 399 158 399 158 374 c 2,7,-1
 158 146 l 2,8,9
 158 52 158 52 254 52 c 0,10,11
 293 52 293 52 361 68 c 1,12,-1
 373 14 l 1,13,14
 316 -12 316 -12 246 -12 c 0,15,16
 198 -12 198 -12 168.5 -1.5 c 128,-1,17
 139 9 139 9 126.5 22 c 128,-1,18
 114 35 114 35 105 46 c 128,-1,19
 96 57 96 57 90.5 78 c 128,-1,20
 85 99 85 99 82 114.5 c 128,-1,21
 79 130 79 130 78 158 c 0,22,23
 75 206 75 206 75 248 c 2,24,-1
 75 308 l 2,25,26
 75 361 75 361 79 384 c 128,-1,27
 83 407 83 407 87 427.5 c 128,-1,28
 91 448 91 448 98 458.5 c 128,-1,29
 105 469 105 469 114.5 483 c 128,-1,30
 124 497 124 497 137.5 504 c 128,-1,31
 151 511 151 511 168 518 c 1,32,33
 195 531 195 531 255.5 531 c 128,-1,34
 316 531 316 531 371 507 c 1,0,-1
EndSplineSet
EndChar

StartChar: d
Encoding: 100 100 71
Width: 514
GlyphClass: 2
Flags: W
LayerCount: 2
Fore
SplineSet
342 140 m 2,0,-1
 342 450 l 1,1,2
 287 461 287 461 239.5 461 c 128,-1,3
 192 461 192 461 175.5 442 c 128,-1,4
 159 423 159 423 159 367 c 2,5,-1
 159 142 l 2,6,7
 159 93 159 93 174 73 c 128,-1,8
 189 53 189 53 245.5 53 c 128,-1,9
 302 53 302 53 322 75.5 c 128,-1,10
 342 98 342 98 342 140 c 2,0,-1
79 371.5 m 128,-1,12
 83 398 83 398 87 419.5 c 128,-1,13
 91 441 91 441 97.5 452.5 c 128,-1,14
 104 464 104 464 113.5 478 c 128,-1,15
 123 492 123 492 135.5 499 c 128,-1,16
 148 506 148 506 164 513 c 0,17,18
 193 525 193 525 248 525 c 128,-1,19
 303 525 303 525 347 512 c 1,20,-1
 347 720 l 1,21,-1
 424 720 l 1,22,-1
 424 0 l 1,23,-1
 379 0 l 1,24,-1
 366 49 l 1,25,26
 347 22 347 22 316.5 7.5 c 128,-1,27
 286 -7 286 -7 264.5 -9.5 c 128,-1,28
 243 -12 243 -12 212 -12 c 0,29,30
 128 -12 128 -12 101.5 41.5 c 128,-1,31
 75 95 75 95 75 220 c 128,-1,11
 75 345 75 345 79 371.5 c 128,-1,12
EndSplineSet
EndChar

StartChar: e
Encoding: 101 101 72
Width: 478
GlyphClass: 2
Flags: W
LayerCount: 2
Fore
SplineSet
158 378 m 2,0,-1
 158 275 l 1,1,2
 260 275 260 275 279.5 282.5 c 128,-1,3
 299 290 299 290 314 298 c 0,4,5
 341 312 341 312 341 353 c 2,6,-1
 341 376 l 2,7,8
 341 425 341 425 326 445 c 128,-1,9
 311 465 311 465 254.5 465 c 128,-1,10
 198 465 198 465 178 442.5 c 128,-1,11
 158 420 158 420 158 378 c 2,0,-1
206 528.5 m 128,-1,13
 228 531 228 531 268.5 531 c 128,-1,14
 309 531 309 531 344 520 c 128,-1,15
 379 509 379 509 395.5 485.5 c 128,-1,16
 412 462 412 462 417.5 437.5 c 128,-1,17
 423 413 423 413 423 381.5 c 128,-1,18
 423 350 423 350 419 329.5 c 128,-1,19
 415 309 415 309 409.5 294 c 128,-1,20
 404 279 404 279 391.5 267.5 c 128,-1,21
 379 256 379 256 368.5 248 c 128,-1,22
 358 240 358 240 337.5 234.5 c 128,-1,23
 317 229 317 229 302 226 c 128,-1,24
 287 223 287 223 259 221 c 0,25,26
 217 218 217 218 158 218 c 1,27,-1
 158 143 l 2,28,29
 158 91 158 91 180 72.5 c 128,-1,30
 202 54 202 54 247 54 c 0,31,32
 330 54 330 54 396 82 c 1,33,-1
 412 32 l 1,34,35
 337 -12 337 -12 246 -12 c 0,36,37
 198 -12 198 -12 168.5 -1.5 c 128,-1,38
 139 9 139 9 126.5 22 c 128,-1,39
 114 35 114 35 105 46 c 128,-1,40
 96 57 96 57 90.5 78 c 128,-1,41
 85 99 85 99 82 114.5 c 128,-1,42
 79 130 79 130 78 158 c 0,43,44
 75 206 75 206 75 248 c 2,45,-1
 75 308 l 2,46,47
 75 361 75 361 79 384 c 128,-1,48
 83 407 83 407 87 427.5 c 128,-1,49
 91 448 91 448 98 458.5 c 128,-1,50
 105 469 105 469 114.5 483 c 128,-1,51
 124 497 124 497 137.5 504 c 128,-1,52
 151 511 151 511 167.5 518.5 c 128,-1,12
 184 526 184 526 206 528.5 c 128,-1,13
EndSplineSet
EndChar

StartChar: f
Encoding: 102 102 73
Width: 321
GlyphClass: 2
Flags: W
LayerCount: 2
Fore
SplineSet
283 672 m 0,0,1
 239 672 239 672 220 646.5 c 128,-1,2
 201 621 201 621 201 554 c 2,3,-1
 201 520 l 1,4,-1
 295 520 l 1,5,-1
 295 461 l 1,6,-1
 201 461 l 1,7,-1
 201 0 l 1,8,-1
 119 0 l 1,9,-1
 119 461 l 1,10,-1
 50 461 l 1,11,-1
 50 505 l 1,12,-1
 119 519 l 1,13,14
 122 653 122 653 158 692 c 0,15,16
 191 729 191 729 256 729 c 0,17,18
 284 729 284 729 329 721 c 1,19,-1
 323 669 l 1,20,21
 300 672 300 672 283 672 c 0,0,1
EndSplineSet
EndChar

StartChar: g
Encoding: 103 103 74
Width: 519
GlyphClass: 2
Flags: W
LayerCount: 2
Fore
SplineSet
342 161 m 2,0,-1
 342 455 l 1,1,2
 287 466 287 466 239.5 466 c 128,-1,3
 192 466 192 466 175.5 447 c 128,-1,4
 159 428 159 428 159 372 c 2,5,-1
 159 163 l 2,6,7
 159 114 159 114 174 94 c 128,-1,8
 189 74 189 74 245.5 74 c 128,-1,9
 302 74 302 74 322 96.5 c 128,-1,10
 342 119 342 119 342 161 c 2,0,-1
347 -39 m 2,11,-1
 347 49 l 1,12,13
 305 10 305 10 216.5 10 c 128,-1,14
 128 10 128 10 101.5 67 c 128,-1,15
 75 124 75 124 75 259 c 0,16,17
 75 398 75 398 90 438 c 0,18,19
 109 492 109 492 139 508 c 0,20,21
 184 531 184 531 257 531 c 128,-1,22
 330 531 330 531 429 502 c 1,23,-1
 429 -36 l 2,24,25
 429 -76 429 -76 423.5 -101.5 c 128,-1,26
 418 -127 418 -127 402 -150 c 0,27,28
 371 -194 371 -194 276 -194 c 128,-1,29
 181 -194 181 -194 103 -156 c 1,30,-1
 119 -106 l 1,31,32
 187 -128 187 -128 245 -128 c 128,-1,33
 303 -128 303 -128 325 -109.5 c 128,-1,34
 347 -91 347 -91 347 -39 c 2,11,-1
EndSplineSet
EndChar

StartChar: h
Encoding: 104 104 75
Width: 517
GlyphClass: 2
Flags: W
LayerCount: 2
Fore
SplineSet
437 360 m 2,0,-1
 437 0 l 1,1,-1
 355 0 l 1,2,-1
 355 371 l 2,3,4
 355 420 355 420 340 440 c 128,-1,5
 325 460 325 460 268.5 460 c 128,-1,6
 212 460 212 460 192 437.5 c 128,-1,7
 172 415 172 415 172 373 c 2,8,-1
 172 0 l 1,9,-1
 90 0 l 1,10,-1
 90 720 l 1,11,-1
 167 720 l 1,12,-1
 167 475 l 1,13,14
 214 525 214 525 302 525 c 0,15,16
 387 525 387 525 414 474 c 0,17,18
 437 431 437 431 437 360 c 2,0,-1
EndSplineSet
EndChar

StartChar: i
Encoding: 105 105 76
Width: 262
GlyphClass: 2
Flags: W
LayerCount: 2
Fore
SplineSet
90 520 m 1,0,-1
 172 520 l 1,1,-1
 172 0 l 1,2,-1
 90 0 l 1,3,-1
 90 520 l 1,0,-1
131 717 m 128,-1,5
 146 717 146 717 153 716 c 128,-1,6
 160 715 160 715 168 710 c 1,7,8
 183 703 183 703 183 675.5 c 128,-1,9
 183 648 183 648 180 637.5 c 128,-1,10
 177 627 177 627 168.5 622.5 c 128,-1,11
 160 618 160 618 153 617 c 128,-1,12
 146 616 146 616 131 616 c 128,-1,13
 116 616 116 616 109 617 c 128,-1,14
 102 618 102 618 94 622 c 0,15,16
 79 630 79 630 79 657.5 c 128,-1,17
 79 685 79 685 82 695.5 c 128,-1,18
 85 706 85 706 93.5 710.5 c 128,-1,19
 102 715 102 715 109 716 c 128,-1,4
 116 717 116 717 131 717 c 128,-1,5
EndSplineSet
EndChar

StartChar: j
Encoding: 106 106 77
Width: 262
GlyphClass: 2
Flags: W
LayerCount: 2
Fore
SplineSet
131 717 m 128,-1,1
 146 717 146 717 153 716 c 128,-1,2
 160 715 160 715 168 710 c 1,3,4
 183 703 183 703 183 675.5 c 128,-1,5
 183 648 183 648 180 637.5 c 128,-1,6
 177 627 177 627 168.5 622.5 c 128,-1,7
 160 618 160 618 153 617 c 128,-1,8
 146 616 146 616 131 616 c 128,-1,9
 116 616 116 616 109 617 c 128,-1,10
 102 618 102 618 94 622 c 0,11,12
 79 630 79 630 79 657.5 c 128,-1,13
 79 685 79 685 82 695.5 c 128,-1,14
 85 706 85 706 93.5 710.5 c 128,-1,15
 102 715 102 715 109 716 c 128,-1,0
 116 717 116 717 131 717 c 128,-1,1
90 -54 m 2,16,-1
 90 520 l 1,17,-1
 172 520 l 1,18,-1
 172 -33 l 2,19,20
 172 -131 172 -131 144 -161 c 0,21,22
 114 -194 114 -194 51 -194 c 0,23,24
 13 -194 13 -194 -18 -180 c 1,25,-1
 0 -122 l 1,26,27
 29 -130 29 -130 51.5 -130 c 128,-1,28
 74 -130 74 -130 82 -112.5 c 128,-1,29
 90 -95 90 -95 90 -54 c 2,16,-1
EndSplineSet
EndChar

StartChar: k
Encoding: 107 107 78
Width: 470
GlyphClass: 2
Flags: W
LayerCount: 2
Fore
SplineSet
172 720 m 1,0,-1
 172 0 l 1,1,-1
 90 0 l 1,2,-1
 90 720 l 1,3,-1
 172 720 l 1,0,-1
196 276 m 1,4,-1
 345 520 l 1,5,-1
 432 520 l 1,6,-1
 283 276 l 1,7,-1
 440 0 l 1,8,-1
 353 0 l 1,9,-1
 196 276 l 1,4,-1
EndSplineSet
EndChar

StartChar: l
Encoding: 108 108 79
Width: 262
GlyphClass: 2
Flags: W
LayerCount: 2
Fore
SplineSet
172 0 m 1,0,-1
 90 0 l 1,1,-1
 90 720 l 1,2,-1
 172 720 l 1,3,-1
 172 0 l 1,0,-1
EndSplineSet
EndChar

StartChar: m
Encoding: 109 109 80
Width: 752
GlyphClass: 2
Flags: W
LayerCount: 2
Fore
SplineSet
672 366 m 2,0,-1
 672 0 l 1,1,-1
 590 0 l 1,2,-1
 590 377 l 2,3,4
 590 426 590 426 576 446 c 128,-1,5
 562 466 562 466 510.5 466 c 128,-1,6
 459 466 459 466 440.5 443.5 c 128,-1,7
 422 421 422 421 422 379 c 2,8,-1
 422 0 l 1,9,-1
 340 0 l 1,10,-1
 340 377 l 2,11,12
 340 426 340 426 326 446 c 128,-1,13
 312 466 312 466 260.5 466 c 128,-1,14
 209 466 209 466 190.5 443.5 c 128,-1,15
 172 421 172 421 172 379 c 2,16,-1
 172 0 l 1,17,-1
 90 0 l 1,18,-1
 90 520 l 1,19,-1
 135 520 l 1,20,-1
 148 471 l 1,21,22
 166 498 166 498 194.5 512.5 c 128,-1,23
 223 527 223 527 242 529 c 128,-1,24
 261 531 261 531 291 531 c 0,25,26
 372 531 372 531 402 476 c 1,27,28
 442 531 442 531 541 531 c 0,29,30
 624 531 624 531 650 480 c 0,31,32
 672 436 672 436 672 366 c 2,0,-1
EndSplineSet
EndChar

StartChar: n
Encoding: 110 110 81
Width: 517
GlyphClass: 2
Flags: W
LayerCount: 2
Fore
SplineSet
437 366 m 2,0,-1
 437 0 l 1,1,-1
 355 0 l 1,2,-1
 355 377 l 2,3,4
 355 426 355 426 340 446 c 128,-1,5
 325 466 325 466 268.5 466 c 128,-1,6
 212 466 212 466 192 443.5 c 128,-1,7
 172 421 172 421 172 379 c 2,8,-1
 172 0 l 1,9,-1
 90 0 l 1,10,-1
 90 520 l 1,11,-1
 135 520 l 1,12,-1
 148 471 l 1,13,14
 167 498 167 498 198 512.5 c 128,-1,15
 229 527 229 527 249.5 529 c 128,-1,16
 270 531 270 531 307.5 531 c 128,-1,17
 345 531 345 531 373 518 c 128,-1,18
 401 505 401 505 414 480 c 0,19,20
 437 437 437 437 437 366 c 2,0,-1
EndSplineSet
EndChar

StartChar: o
Encoding: 111 111 82
Width: 513
GlyphClass: 2
Flags: W
LayerCount: 2
Fore
SplineSet
256 -12 m 128,-1,1
 226 -12 226 -12 202 -7.5 c 128,-1,2
 178 -3 178 -3 160 2.5 c 128,-1,3
 142 8 142 8 128.5 21.5 c 128,-1,4
 115 35 115 35 106 45.5 c 128,-1,5
 97 56 97 56 91 78 c 128,-1,6
 85 100 85 100 82 114.5 c 128,-1,7
 79 129 79 129 77 159 c 128,-1,8
 75 189 75 189 75 206 c 2,9,-1
 75 314 l 2,10,11
 75 372 75 372 80 395.5 c 128,-1,12
 85 419 85 419 91 441 c 128,-1,13
 97 463 97 463 106 473.5 c 128,-1,14
 115 484 115 484 128.5 497.5 c 128,-1,15
 142 511 142 511 160 516.5 c 128,-1,16
 178 522 178 522 202 526.5 c 128,-1,17
 226 531 226 531 256 531 c 128,-1,18
 286 531 286 531 310 526.5 c 128,-1,19
 334 522 334 522 352 516.5 c 128,-1,20
 370 511 370 511 384 497.5 c 128,-1,21
 398 484 398 484 407 473.5 c 128,-1,22
 416 463 416 463 422 441 c 128,-1,23
 428 419 428 419 431 405 c 128,-1,24
 434 391 434 391 436 361 c 128,-1,25
 438 331 438 331 438 314 c 2,26,27
 438 314 438 314 438 206 c 0,28,29
 438 148 438 148 433 124 c 128,-1,30
 428 100 428 100 422 78 c 128,-1,31
 416 56 416 56 407 45.5 c 128,-1,32
 398 35 398 35 384 21.5 c 128,-1,33
 370 8 370 8 352 2.5 c 128,-1,34
 334 -3 334 -3 310 -7.5 c 128,-1,0
 286 -12 286 -12 256 -12 c 128,-1,1
353 145 m 2,35,-1
 353 374 l 2,36,37
 353 399 353 399 351 411 c 128,-1,38
 349 423 349 423 341 438.5 c 128,-1,39
 333 454 333 454 312 460 c 128,-1,40
 291 466 291 466 256 466 c 128,-1,41
 221 466 221 466 199.5 460 c 128,-1,42
 178 454 178 454 170 438.5 c 128,-1,43
 162 423 162 423 160 411 c 128,-1,44
 158 399 158 399 158 374 c 2,45,-1
 158 145 l 2,46,47
 158 120 158 120 160 108 c 128,-1,48
 162 96 162 96 170 80.5 c 128,-1,49
 178 65 178 65 199.5 59 c 128,-1,50
 221 53 221 53 256 53 c 128,-1,51
 291 53 291 53 312 59 c 128,-1,52
 333 65 333 65 341 80.5 c 128,-1,53
 349 96 349 96 351 108 c 128,-1,54
 353 120 353 120 353 145 c 2,35,-1
EndSplineSet
EndChar

StartChar: p
Encoding: 112 112 83
Width: 514
GlyphClass: 2
Flags: W
LayerCount: 2
Fore
SplineSet
172 379 m 2,0,-1
 172 75 l 1,1,2
 227 64 227 64 274.5 64 c 128,-1,3
 322 64 322 64 338.5 83 c 128,-1,4
 355 102 355 102 355 158 c 2,5,-1
 355 377 l 2,6,7
 355 426 355 426 340 446 c 128,-1,8
 325 466 325 466 268.5 466 c 128,-1,9
 212 466 212 466 192 443.5 c 128,-1,10
 172 421 172 421 172 379 c 2,0,-1
432 123 m 128,-1,12
 425 96 425 96 416.5 73.5 c 128,-1,13
 408 51 408 51 395.5 40 c 128,-1,14
 383 29 383 29 365 18 c 0,15,16
 333 0 333 0 272 0 c 128,-1,17
 211 0 211 0 167 13 c 1,18,-1
 167 -182 l 1,19,-1
 90 -182 l 1,20,-1
 90 520 l 1,21,-1
 135 520 l 1,22,-1
 148 471 l 1,23,24
 167 498 167 498 198 512.5 c 128,-1,25
 229 527 229 527 249.5 529 c 128,-1,26
 270 531 270 531 302 531 c 0,27,28
 387 531 387 531 413 479.5 c 128,-1,29
 439 428 439 428 439 289 c 128,-1,11
 439 150 439 150 432 123 c 128,-1,12
EndSplineSet
EndChar

StartChar: q
Encoding: 113 113 84
Width: 514
GlyphClass: 2
Flags: W
LayerCount: 2
Fore
SplineSet
342 151 m 2,0,-1
 342 455 l 1,1,2
 287 466 287 466 239.5 466 c 128,-1,3
 192 466 192 466 175.5 447 c 128,-1,4
 159 428 159 428 159 372 c 2,5,-1
 159 153 l 2,6,7
 159 104 159 104 174 84 c 128,-1,8
 189 64 189 64 245.5 64 c 128,-1,9
 302 64 302 64 322 86.5 c 128,-1,10
 342 109 342 109 342 151 c 2,0,-1
424 -182 m 1,11,-1
 347 -182 l 1,12,-1
 347 39 l 1,13,14
 305 0 305 0 216 0 c 128,-1,15
 127 0 127 0 101 51.5 c 128,-1,16
 75 103 75 103 75 236 c 0,17,18
 75 381 75 381 82 408 c 128,-1,19
 89 435 89 435 97.5 457.5 c 128,-1,20
 106 480 106 480 118.5 491 c 128,-1,21
 131 502 131 502 149 512 c 0,22,23
 181 531 181 531 253 531 c 128,-1,24
 325 531 325 531 424 502 c 1,25,-1
 424 -182 l 1,11,-1
EndSplineSet
EndChar

StartChar: r
Encoding: 114 114 85
Width: 323
GlyphClass: 2
Flags: W
LayerCount: 2
Fore
SplineSet
172 0 m 1,0,-1
 90 0 l 1,1,-1
 90 520 l 1,2,-1
 135 520 l 1,3,-1
 151 459 l 1,4,5
 224 530 224 530 325 531 c 1,6,-1
 317 459 l 1,7,8
 226 459 226 459 172 405 c 1,9,-1
 172 0 l 1,0,-1
EndSplineSet
EndChar

StartChar: s
Encoding: 115 115 86
Width: 446
GlyphClass: 2
Flags: W
LayerCount: 2
Fore
SplineSet
360.5 250 m 128,-1,1
 386 217 386 217 386 144.5 c 128,-1,2
 386 72 386 72 347.5 30 c 128,-1,3
 309 -12 309 -12 218.5 -12 c 128,-1,4
 128 -12 128 -12 60 21 c 1,5,-1
 76 71 l 1,6,7
 166 54 166 54 215 54 c 128,-1,8
 264 54 264 54 285 73.5 c 128,-1,9
 306 93 306 93 306 132.5 c 128,-1,10
 306 172 306 172 294.5 192 c 128,-1,11
 283 212 283 212 247 217 c 2,12,-1
 166 228 l 2,13,14
 107 236 107 236 86 272.5 c 128,-1,15
 65 309 65 309 65 378 c 128,-1,16
 65 447 65 447 105.5 489 c 128,-1,17
 146 531 146 531 216 531 c 0,18,19
 308 531 308 531 371 498 c 1,20,-1
 356 442 l 1,21,22
 275 461 275 461 230.5 461 c 128,-1,23
 186 461 186 461 165.5 446 c 128,-1,24
 145 431 145 431 145 386 c 128,-1,25
 145 341 145 341 154 324 c 128,-1,26
 163 307 163 307 200 301 c 2,27,-1
 281 290 l 2,28,0
 335 283 335 283 360.5 250 c 128,-1,1
EndSplineSet
EndChar

StartChar: t
Encoding: 116 116 87
Width: 338
GlyphClass: 2
Flags: W
LayerCount: 2
Fore
SplineSet
203 610 m 1,0,-1
 203 520 l 1,1,-1
 295 520 l 1,2,-1
 295 461 l 1,3,-1
 203 461 l 1,4,-1
 203 125 l 2,5,6
 203 82 203 82 212 64 c 128,-1,7
 221 46 221 46 246 46 c 128,-1,8
 271 46 271 46 291 50 c 1,9,-1
 298 0 l 1,10,11
 262 -12 262 -12 229.5 -12 c 128,-1,12
 197 -12 197 -12 176.5 -5 c 128,-1,13
 156 2 156 2 145 12 c 128,-1,14
 134 22 134 22 128 42 c 0,15,16
 121 69 121 69 121 125 c 2,17,-1
 121 461 l 1,18,-1
 50 461 l 1,19,-1
 50 505 l 1,20,-1
 121 520 l 1,21,-1
 166 610 l 1,22,-1
 203 610 l 1,0,-1
EndSplineSet
EndChar

StartChar: u
Encoding: 117 117 88
Width: 517
GlyphClass: 2
Flags: W
LayerCount: 2
Fore
SplineSet
80 153 m 2,0,-1
 80 520 l 1,1,-1
 162 520 l 1,2,-1
 162 142 l 2,3,4
 162 93 162 93 177 73 c 128,-1,5
 192 53 192 53 248.5 53 c 128,-1,6
 305 53 305 53 325 75.5 c 128,-1,7
 345 98 345 98 345 140 c 2,8,-1
 345 520 l 1,9,-1
 427 520 l 1,10,-1
 427 0 l 1,11,-1
 382 0 l 1,12,-1
 369 49 l 1,13,14
 350 22 350 22 319.5 7.5 c 128,-1,15
 289 -7 289 -7 267.5 -9.5 c 128,-1,16
 246 -12 246 -12 209 -12 c 128,-1,17
 172 -12 172 -12 144 1 c 128,-1,18
 116 14 116 14 102 40 c 0,19,20
 80 82 80 82 80 153 c 2,0,-1
EndSplineSet
EndChar

StartChar: v
Encoding: 118 118 89
Width: 454
GlyphClass: 2
Flags: W
LayerCount: 2
Fore
SplineSet
293 0 m 1,0,-1
 161 0 l 1,1,-1
 40 520 l 1,2,-1
 121 520 l 1,3,-1
 224 54 l 1,4,-1
 230 54 l 1,5,-1
 333 520 l 1,6,-1
 414 520 l 1,7,-1
 293 0 l 1,0,-1
EndSplineSet
EndChar

StartChar: w
Encoding: 119 119 90
Width: 697
GlyphClass: 2
Flags: W
LayerCount: 2
Fore
SplineSet
558 0 m 1,0,-1
 434 0 l 1,1,-1
 351 444 l 1,2,-1
 345 444 l 1,3,-1
 263 0 l 1,4,-1
 139 0 l 1,5,-1
 40 520 l 1,6,-1
 121 520 l 1,7,-1
 204 54 l 1,8,-1
 210 54 l 1,9,-1
 297 520 l 1,10,-1
 400 520 l 1,11,-1
 487 54 l 1,12,-1
 493 54 l 1,13,-1
 576 520 l 1,14,-1
 657 520 l 1,15,-1
 558 0 l 1,0,-1
EndSplineSet
EndChar

StartChar: x
Encoding: 120 120 91
Width: 457
GlyphClass: 2
Flags: W
LayerCount: 2
Fore
SplineSet
228 343 m 1,0,-1
 322 520 l 1,1,-1
 409 520 l 1,2,-1
 275 266 l 1,3,-1
 417 0 l 1,4,-1
 330 0 l 1,5,-1
 228 190 l 1,6,-1
 127 0 l 1,7,-1
 40 0 l 1,8,-1
 182 266 l 1,9,-1
 48 520 l 1,10,-1
 135 520 l 1,11,-1
 228 343 l 1,0,-1
EndSplineSet
EndChar

StartChar: y
Encoding: 121 121 92
Width: 454
GlyphClass: 2
Flags: W
LayerCount: 2
Fore
SplineSet
57 -122 m 1,0,1
 84 -128 84 -128 116 -128 c 128,-1,2
 148 -128 148 -128 171.5 -110.5 c 128,-1,3
 195 -93 195 -93 206 -48 c 2,4,-1
 217 0 l 1,5,-1
 161 0 l 1,6,-1
 40 520 l 1,7,-1
 121 520 l 1,8,-1
 224 54 l 1,9,-1
 230 54 l 1,10,-1
 333 520 l 1,11,-1
 414 520 l 1,12,-1
 282 -45 l 2,13,14
 265 -118 265 -118 227.5 -156 c 128,-1,15
 190 -194 190 -194 108 -194 c 0,16,17
 70 -194 70 -194 39 -180 c 1,18,-1
 57 -122 l 1,0,1
EndSplineSet
EndChar

StartChar: z
Encoding: 122 122 93
Width: 453
GlyphClass: 2
Flags: W
LayerCount: 2
Fore
SplineSet
70 455 m 1,0,-1
 70 520 l 1,1,-1
 388 520 l 1,2,-1
 388 466 l 1,3,-1
 154 65 l 1,4,-1
 393 65 l 1,5,-1
 393 0 l 1,6,-1
 60 0 l 1,7,-1
 60 54 l 1,8,-1
 296 455 l 1,9,-1
 70 455 l 1,0,-1
EndSplineSet
EndChar

StartChar: braceleft
Encoding: 123 123 94
Width: 340
GlyphClass: 2
Flags: W
LayerCount: 2
Fore
SplineSet
82 469 m 1,0,-1
 80 530 l 1,1,2
 80 689 80 689 121.5 749.5 c 128,-1,3
 163 810 163 810 290 810 c 1,4,-1
 295 745 l 1,5,6
 213 745 213 745 187 690 c 0,7,8
 174 663 174 663 170 633.5 c 128,-1,9
 166 604 166 604 166 525.5 c 128,-1,10
 166 447 166 447 153 406 c 128,-1,11
 140 365 140 365 99 352 c 1,12,-1
 99 344 l 1,13,14
 140 330 140 330 153 290 c 128,-1,15
 166 250 166 250 166 172 c 128,-1,16
 166 94 166 94 170 64.5 c 128,-1,17
 174 35 174 35 187 8 c 0,18,19
 213 -47 213 -47 295 -47 c 1,20,-1
 290 -112 l 1,21,22
 163 -112 163 -112 121.5 -51 c 128,-1,23
 80 10 80 10 80 170 c 1,24,-1
 82 228 l 1,25,26
 82 313 82 313 23 319 c 1,27,-1
 23 369 l 1,28,29
 82 375 82 375 82 469 c 1,0,-1
EndSplineSet
EndChar

StartChar: bar
Encoding: 124 124 95
Width: 326
GlyphClass: 2
Flags: W
LayerCount: 2
Fore
SplineSet
120 800 m 1,0,-1
 206 800 l 1,1,-1
 206 -100 l 1,2,-1
 120 -100 l 1,3,-1
 120 800 l 1,0,-1
EndSplineSet
EndChar

StartChar: braceright
Encoding: 125 125 96
Width: 340
GlyphClass: 2
Flags: W
LayerCount: 2
Fore
SplineSet
258 228 m 1,0,-1
 260 170 l 1,1,2
 260 10 260 10 218.5 -51 c 128,-1,3
 177 -112 177 -112 50 -112 c 1,4,-1
 45 -47 l 1,5,6
 127 -47 127 -47 153 8 c 0,7,8
 166 35 166 35 170 64.5 c 128,-1,9
 174 94 174 94 174 172 c 128,-1,10
 174 250 174 250 187 290 c 128,-1,11
 200 330 200 330 241 344 c 1,12,-1
 241 352 l 1,13,14
 200 365 200 365 187 406 c 128,-1,15
 174 447 174 447 174 525.5 c 128,-1,16
 174 604 174 604 170 633.5 c 128,-1,17
 166 663 166 663 153 690 c 0,18,19
 127 745 127 745 45 745 c 1,20,-1
 50 810 l 1,21,22
 177 810 177 810 218.5 749.5 c 128,-1,23
 260 689 260 689 260 530 c 1,24,-1
 258 469 l 1,25,26
 258 375 258 375 317 369 c 1,27,-1
 317 319 l 1,28,29
 258 313 258 313 258 228 c 1,0,-1
EndSplineSet
EndChar

StartChar: asciitilde
Encoding: 126 126 97
Width: 500
GlyphClass: 2
Flags: W
LayerCount: 2
Fore
SplineSet
60 352 m 1,0,1
 95 321 95 321 138.5 321 c 128,-1,2
 182 321 182 321 244.5 352 c 128,-1,3
 307 383 307 383 352 383 c 128,-1,4
 397 383 397 383 440 352 c 1,5,-1
 440 282 l 1,6,7
 401 312 401 312 356.5 312 c 128,-1,8
 312 312 312 312 249.5 281 c 128,-1,9
 187 250 187 250 140 250 c 128,-1,10
 93 250 93 250 60 282 c 1,11,-1
 60 352 l 1,0,1
EndSplineSet
EndChar

StartChar: exclamdown
Encoding: 161 161 98
Width: 266
GlyphClass: 2
Flags: W
LayerCount: 2
Fore
SplineSet
133 419 m 128,-1,1
 116 419 116 419 108.5 420 c 128,-1,2
 101 421 101 421 92 426 c 128,-1,3
 83 431 83 431 79.5 442.5 c 128,-1,4
 76 454 76 454 76 474 c 128,-1,5
 76 494 76 494 79.5 506 c 128,-1,6
 83 518 83 518 92 523 c 128,-1,7
 101 528 101 528 108.5 529 c 128,-1,8
 116 530 116 530 133 530 c 128,-1,9
 150 530 150 530 157.5 529 c 128,-1,10
 165 528 165 528 174 523 c 128,-1,11
 183 518 183 518 186.5 506 c 128,-1,12
 190 494 190 494 190 474 c 128,-1,13
 190 454 190 454 186.5 442.5 c 128,-1,14
 183 431 183 431 174 426 c 128,-1,15
 165 421 165 421 157.5 420 c 128,-1,0
 150 419 150 419 133 419 c 128,-1,1
100 339 m 1,16,-1
 166 339 l 1,17,-1
 178 -178 l 1,18,-1
 88 -178 l 1,19,-1
 100 339 l 1,16,-1
EndSplineSet
EndChar

StartChar: cent
Encoding: 162 162 99
Width: 500
GlyphClass: 2
Flags: W
LayerCount: 2
Fore
SplineSet
249 -100 m 1,0,-1
 249 57 l 1,1,2
 175 65 175 65 148 101 c 0,3,4
 132 121 132 121 123 139.5 c 128,-1,5
 114 158 114 158 110 194 c 0,6,7
 104 247 104 247 104 307 c 128,-1,8
 104 367 104 367 104.5 388.5 c 128,-1,9
 105 410 105 410 107.5 441.5 c 128,-1,10
 110 473 110 473 116 490 c 128,-1,11
 122 507 122 507 132 528 c 128,-1,12
 142 549 142 549 158 560 c 1,13,14
 194 588 194 588 249 595 c 1,15,-1
 249 750 l 1,16,-1
 312 750 l 1,17,-1
 312 598 l 1,18,19
 375 596 375 596 430 574 c 1,20,-1
 414 521 l 1,21,22
 363 532 363 532 311 532 c 128,-1,23
 259 532 259 532 235 526 c 128,-1,24
 211 520 211 520 201 505 c 128,-1,25
 191 490 191 490 189 478 c 128,-1,26
 187 466 187 466 187 441 c 2,27,-1
 187 213 l 2,28,29
 187 119 187 119 297 119 c 0,30,31
 342 119 342 119 420 135 c 1,32,-1
 432 81 l 1,33,34
 377 58 377 58 312 55 c 1,35,-1
 312 -100 l 1,36,-1
 249 -100 l 1,0,-1
EndSplineSet
EndChar

StartChar: sterling
Encoding: 163 163 100
Width: 500
GlyphClass: 2
Flags: W
LayerCount: 2
Fore
SplineSet
46 288 m 1,0,-1
 46 348 l 1,1,-1
 128 348 l 1,2,3
 126 373 126 373 118 422 c 128,-1,4
 110 471 110 471 110 490 c 0,5,6
 110 568 110 568 156 613 c 128,-1,7
 202 658 202 658 287.5 658 c 128,-1,8
 373 658 373 658 457 626 c 1,9,-1
 439 566 l 1,10,11
 364 587 364 587 302.5 587 c 128,-1,12
 241 587 241 587 215.5 567 c 128,-1,13
 190 547 190 547 190 487 c 0,14,15
 190 472 190 472 197 424 c 128,-1,16
 204 376 204 376 207 348 c 1,17,-1
 382 348 l 1,18,-1
 382 288 l 1,19,-1
 210 288 l 1,20,21
 210 163 210 163 167 70 c 1,22,-1
 456 70 l 1,23,-1
 456 0 l 1,24,-1
 80 0 l 1,25,-1
 80 56 l 1,26,27
 132 160 132 160 132 288 c 1,28,-1
 46 288 l 1,0,-1
EndSplineSet
EndChar

StartChar: currency
Encoding: 164 164 101
Width: 500
GlyphClass: 2
Flags: W
LayerCount: 2
Fore
SplineSet
396 317 m 128,-1,1
 396 252 396 252 387 228 c 1,2,-1
 472 144 l 1,3,-1
 423 95 l 1,4,-1
 337 181 l 1,5,6
 308 170 308 170 252 170 c 128,-1,7
 196 170 196 170 163 181 c 1,8,-1
 77 95 l 1,9,-1
 28 144 l 1,10,-1
 113 229 l 1,11,12
 106 253 106 253 106 317 c 128,-1,13
 106 381 106 381 113 404 c 1,14,-1
 28 490 l 1,15,-1
 77 539 l 1,16,-1
 163 452 l 1,17,18
 194 464 194 464 249 464 c 128,-1,19
 304 464 304 464 337 453 c 1,20,-1
 423 539 l 1,21,-1
 472 490 l 1,22,-1
 387 405 l 1,23,0
 396 382 396 382 396 317 c 128,-1,1
325 278 m 2,24,-1
 325 355 l 2,25,26
 325 376 325 376 317 386 c 0,27,28
 303 403 303 403 259 403 c 128,-1,29
 215 403 215 403 198.5 395.5 c 128,-1,30
 182 388 182 388 179.5 380 c 128,-1,31
 177 372 177 372 177 355 c 2,32,-1
 177 278 l 2,33,34
 177 240 177 240 209 234 c 0,35,36
 225 230 225 230 251.5 230 c 128,-1,37
 278 230 278 230 294 233.5 c 128,-1,38
 310 237 310 237 316 245 c 0,39,40
 325 257 325 257 325 278 c 2,24,-1
EndSplineSet
EndChar

StartChar: yen
Encoding: 165 165 102
Width: 500
GlyphClass: 2
Flags: W
LayerCount: 2
Fore
SplineSet
290 198 m 1,0,-1
 440 198 l 1,1,-1
 440 138 l 1,2,-1
 290 138 l 1,3,-1
 290 0 l 1,4,-1
 210 0 l 1,5,-1
 210 138 l 1,6,-1
 62 138 l 1,7,-1
 62 198 l 1,8,-1
 210 198 l 1,9,-1
 210 244 l 1,10,-1
 191 288 l 1,11,-1
 62 288 l 1,12,-1
 62 348 l 1,13,-1
 165 348 l 1,14,-1
 36 646 l 1,15,-1
 124 646 l 1,16,-1
 247 348 l 1,17,-1
 253 348 l 1,18,-1
 376 646 l 1,19,-1
 464 646 l 1,20,-1
 335 348 l 1,21,-1
 440 348 l 1,22,-1
 440 288 l 1,23,-1
 309 288 l 1,24,-1
 290 244 l 1,25,-1
 290 198 l 1,0,-1
EndSplineSet
EndChar

StartChar: brokenbar
Encoding: 166 166 103
Width: 326
GlyphClass: 2
Flags: W
LayerCount: 2
Fore
SplineSet
120 800 m 1,0,-1
 206 800 l 1,1,-1
 206 453 l 1,2,-1
 120 453 l 1,3,-1
 120 800 l 1,0,-1
120 247 m 1,4,-1
 206 247 l 1,5,-1
 206 -100 l 1,6,-1
 120 -100 l 1,7,-1
 120 247 l 1,4,-1
EndSplineSet
EndChar

StartChar: section
Encoding: 167 167 104
Width: 490
GlyphClass: 2
Flags: W
LayerCount: 2
Fore
SplineSet
80.5 167.5 m 128,-1,1
 57 210 57 210 57 283 c 128,-1,2
 57 356 57 356 81 398 c 1,3,4
 57 436 57 436 57 524.5 c 128,-1,5
 57 613 57 613 106 662.5 c 128,-1,6
 155 712 155 712 240 712 c 128,-1,7
 325 712 325 712 411 680 c 1,8,-1
 393 622 l 1,9,10
 314 641 314 641 255.5 641 c 128,-1,11
 197 641 197 641 169 618.5 c 128,-1,12
 141 596 141 596 141 534.5 c 128,-1,13
 141 473 141 473 155.5 447 c 128,-1,14
 170 421 170 421 214 415 c 2,15,-1
 308 402 l 2,16,17
 372 393 372 393 403.5 354.5 c 128,-1,18
 435 316 435 316 435 239.5 c 128,-1,19
 435 163 435 163 408 115 c 1,20,21
 435 72 435 72 435 -8.5 c 128,-1,22
 435 -89 435 -89 390 -141.5 c 128,-1,23
 345 -194 345 -194 242.5 -194 c 128,-1,24
 140 -194 140 -194 55 -157 c 1,25,-1
 73 -97 l 1,26,27
 153 -123 153 -123 224.5 -123 c 128,-1,28
 296 -123 296 -123 323.5 -96.5 c 128,-1,29
 351 -70 351 -70 351 -5 c 0,30,31
 351 24 351 24 347 43 c 128,-1,32
 343 62 343 62 324.5 80.5 c 128,-1,33
 306 99 306 99 273 103 c 2,34,-1
 174 116 l 2,35,0
 104 125 104 125 80.5 167.5 c 128,-1,1
351 227 m 2,36,37
 351 256 351 256 347 275 c 128,-1,38
 343 294 343 294 324.5 312.5 c 128,-1,39
 306 331 306 331 273 335 c 2,40,-1
 174 348 l 2,41,42
 161 349 161 349 141 355 c 1,43,-1
 141 297 l 2,44,45
 141 241 141 241 155.5 215 c 128,-1,46
 170 189 170 189 214 183 c 2,47,-1
 308 170 l 2,48,49
 330 167 330 167 351 159 c 1,50,-1
 351 227 l 2,36,37
EndSplineSet
EndChar

StartChar: dieresis
Encoding: 168 168 105
Width: 430
GlyphClass: 2
Flags: W
LayerCount: 2
Fore
SplineSet
125 717 m 128,-1,1
 140 717 140 717 147 716 c 128,-1,2
 154 715 154 715 162 710 c 1,3,4
 177 703 177 703 177 675.5 c 128,-1,5
 177 648 177 648 174 637.5 c 128,-1,6
 171 627 171 627 162.5 622.5 c 128,-1,7
 154 618 154 618 147 617 c 128,-1,8
 140 616 140 616 125 616 c 128,-1,9
 110 616 110 616 103 617 c 128,-1,10
 96 618 96 618 88 622 c 0,11,12
 73 630 73 630 73 657.5 c 128,-1,13
 73 685 73 685 76 695.5 c 128,-1,14
 79 706 79 706 87.5 710.5 c 128,-1,15
 96 715 96 715 103 716 c 128,-1,0
 110 717 110 717 125 717 c 128,-1,1
305 717 m 128,-1,17
 320 717 320 717 327 716 c 128,-1,18
 334 715 334 715 342 710 c 1,19,20
 357 703 357 703 357 675.5 c 128,-1,21
 357 648 357 648 354 637.5 c 128,-1,22
 351 627 351 627 342.5 622.5 c 128,-1,23
 334 618 334 618 327 617 c 128,-1,24
 320 616 320 616 305 616 c 128,-1,25
 290 616 290 616 283 617 c 128,-1,26
 276 618 276 618 268 622 c 0,27,28
 253 630 253 630 253 657.5 c 128,-1,29
 253 685 253 685 256 695.5 c 128,-1,30
 259 706 259 706 267.5 710.5 c 128,-1,31
 276 715 276 715 283 716 c 128,-1,16
 290 717 290 717 305 717 c 128,-1,17
EndSplineSet
EndChar

StartChar: copyright
Encoding: 169 169 106
Width: 543
GlyphClass: 2
Flags: W
LayerCount: 2
Fore
SplineSet
493 459 m 128,-1,1
 493 399 493 399 491.5 371.5 c 128,-1,2
 490 344 490 344 479 305.5 c 128,-1,3
 468 267 468 267 445 250 c 0,4,5
 387 209 387 209 270 209 c 0,6,7
 156 209 156 209 116 240 c 0,8,9
 99 252 99 252 88 261.5 c 128,-1,10
 77 271 77 271 69.5 291.5 c 128,-1,11
 62 312 62 312 58 325 c 128,-1,12
 54 338 54 338 52.5 365.5 c 128,-1,13
 51 393 51 393 50.5 409 c 128,-1,14
 50 425 50 425 50 459 c 128,-1,15
 50 493 50 493 50.5 509 c 128,-1,16
 51 525 51 525 52.5 553 c 128,-1,17
 54 581 54 581 58 594 c 128,-1,18
 62 607 62 607 69.5 627.5 c 128,-1,19
 77 648 77 648 88 657.5 c 128,-1,20
 99 667 99 667 115.5 679.5 c 128,-1,21
 132 692 132 692 154 697 c 0,22,23
 209 710 209 710 272 710 c 128,-1,24
 335 710 335 710 378.5 697 c 128,-1,25
 422 684 422 684 445 668 c 128,-1,26
 468 652 468 652 479 613 c 128,-1,27
 490 574 490 574 491.5 546.5 c 128,-1,0
 493 519 493 519 493 459 c 128,-1,1
269 248 m 128,-1,29
 329 248 329 248 365.5 256.5 c 128,-1,30
 402 265 402 265 416.5 284.5 c 128,-1,31
 431 304 431 304 434 319 c 128,-1,32
 437 334 437 334 437 365 c 2,33,-1
 437 554 l 2,34,35
 437 585 437 585 434 600 c 128,-1,36
 431 615 431 615 416.5 634.5 c 128,-1,37
 402 654 402 654 365.5 662.5 c 128,-1,38
 329 671 329 671 269 671 c 128,-1,39
 209 671 209 671 172.5 662.5 c 128,-1,40
 136 654 136 654 121.5 634.5 c 128,-1,41
 107 615 107 615 104 600 c 128,-1,42
 101 585 101 585 101 554 c 2,43,-1
 101 365 l 2,44,45
 101 334 101 334 104 319 c 128,-1,46
 107 304 107 304 121.5 284.5 c 128,-1,47
 136 265 136 265 172.5 256.5 c 128,-1,28
 209 248 209 248 269 248 c 128,-1,29
231.5 628.5 m 128,-1,49
 254 636 254 636 286 636 c 128,-1,50
 318 636 318 636 359 624 c 1,51,-1
 349 577 l 1,52,53
 304 583 304 583 282.5 583 c 128,-1,54
 261 583 261 583 248 575.5 c 128,-1,55
 235 568 235 568 233 559 c 128,-1,56
 231 550 231 550 231 529 c 2,57,-1
 231 389 l 2,58,59
 231 363 231 363 237 352 c 0,60,61
 247 334 247 334 279.5 334 c 128,-1,62
 312 334 312 334 353 343 c 1,63,-1
 366 301 l 1,64,65
 321 282 321 282 287.5 282 c 128,-1,66
 254 282 254 282 231.5 289.5 c 128,-1,67
 209 297 209 297 196.5 307.5 c 128,-1,68
 184 318 184 318 178 344.5 c 128,-1,69
 172 371 172 371 171 392 c 128,-1,70
 170 413 170 413 170 459 c 128,-1,71
 170 505 170 505 171 526 c 128,-1,72
 172 547 172 547 178 573.5 c 128,-1,73
 184 600 184 600 196.5 610.5 c 128,-1,48
 209 621 209 621 231.5 628.5 c 128,-1,49
EndSplineSet
EndChar

StartChar: ordfeminine
Encoding: 170 170 107
Width: 403
GlyphClass: 2
Flags: W
LayerCount: 2
Fore
SplineSet
313 363 m 1,0,-1
 282 363 l 1,1,-1
 266 397 l 1,2,3
 234 355 234 355 175.5 355 c 128,-1,4
 117 355 117 355 98 384.5 c 128,-1,5
 79 414 79 414 79 454 c 128,-1,6
 79 494 79 494 87.5 513.5 c 128,-1,7
 96 533 96 533 108 543.5 c 128,-1,8
 120 554 120 554 146 559 c 0,9,10
 188 567 188 567 253 567 c 1,11,-1
 253 612 l 2,12,13
 253 662 253 662 198 662 c 0,14,15
 159 662 159 662 105 646 c 1,16,-1
 92 684 l 1,17,18
 148 712 148 712 209.5 712 c 128,-1,19
 271 712 271 712 292 686.5 c 128,-1,20
 313 661 313 661 313 607 c 2,21,-1
 313 363 l 1,0,-1
253 458 m 2,22,-1
 253 522 l 1,23,24
 168 522 168 522 149 503 c 0,25,26
 140 494 140 494 140 479 c 2,27,-1
 140 459 l 2,28,29
 140 432 140 432 151 418.5 c 128,-1,30
 162 405 162 405 194 405 c 0,31,32
 253 405 253 405 253 458 c 2,22,-1
EndSplineSet
EndChar

StartChar: guillemotleft
Encoding: 171 171 108
Width: 440
GlyphClass: 2
Flags: W
LayerCount: 2
Fore
SplineSet
190 520 m 1,0,-1
 115 308 l 1,1,-1
 190 96 l 1,2,-1
 119 84 l 1,3,-1
 30 308 l 1,4,-1
 119 532 l 1,5,-1
 190 520 l 1,0,-1
390 520 m 1,6,-1
 315 308 l 1,7,-1
 390 96 l 1,8,-1
 319 84 l 1,9,-1
 230 308 l 1,10,-1
 319 532 l 1,11,-1
 390 520 l 1,6,-1
EndSplineSet
EndChar

StartChar: logicalnot
Encoding: 172 172 109
Width: 500
GlyphClass: 2
Flags: W
LayerCount: 2
Fore
SplineSet
60 282 m 1,0,-1
 60 352 l 1,1,-1
 440 352 l 1,2,-1
 440 149 l 1,3,-1
 374 149 l 1,4,-1
 374 282 l 1,5,-1
 60 282 l 1,0,-1
EndSplineSet
EndChar

StartChar: registered
Encoding: 174 174 110
Width: 543
GlyphClass: 2
Flags: W
LayerCount: 2
Fore
SplineSet
493 459 m 128,-1,1
 493 399 493 399 491.5 371.5 c 128,-1,2
 490 344 490 344 479 305.5 c 128,-1,3
 468 267 468 267 445 250 c 0,4,5
 387 209 387 209 270 209 c 0,6,7
 156 209 156 209 116 240 c 0,8,9
 99 252 99 252 88 261.5 c 128,-1,10
 77 271 77 271 69.5 291.5 c 128,-1,11
 62 312 62 312 58 325 c 128,-1,12
 54 338 54 338 52.5 365.5 c 128,-1,13
 51 393 51 393 50.5 409 c 128,-1,14
 50 425 50 425 50 459 c 128,-1,15
 50 493 50 493 50.5 509 c 128,-1,16
 51 525 51 525 52.5 553 c 128,-1,17
 54 581 54 581 58 594 c 128,-1,18
 62 607 62 607 69.5 627.5 c 128,-1,19
 77 648 77 648 88 657.5 c 128,-1,20
 99 667 99 667 115.5 679.5 c 128,-1,21
 132 692 132 692 154 697 c 0,22,23
 209 710 209 710 272 710 c 128,-1,24
 335 710 335 710 378.5 697 c 128,-1,25
 422 684 422 684 445 668 c 128,-1,26
 468 652 468 652 479 613 c 128,-1,27
 490 574 490 574 491.5 546.5 c 128,-1,0
 493 519 493 519 493 459 c 128,-1,1
269 248 m 128,-1,29
 329 248 329 248 365.5 256.5 c 128,-1,30
 402 265 402 265 416.5 284.5 c 128,-1,31
 431 304 431 304 434 319 c 128,-1,32
 437 334 437 334 437 365 c 2,33,-1
 437 554 l 2,34,35
 437 585 437 585 434 600 c 128,-1,36
 431 615 431 615 416.5 634.5 c 128,-1,37
 402 654 402 654 365.5 662.5 c 128,-1,38
 329 671 329 671 269 671 c 128,-1,39
 209 671 209 671 172.5 662.5 c 128,-1,40
 136 654 136 654 121.5 634.5 c 128,-1,41
 107 615 107 615 104 600 c 128,-1,42
 101 585 101 585 101 554 c 2,43,-1
 101 365 l 2,44,45
 101 334 101 334 104 319 c 128,-1,46
 107 304 107 304 121.5 284.5 c 128,-1,47
 136 265 136 265 172.5 256.5 c 128,-1,28
 209 248 209 248 269 248 c 128,-1,29
238 413 m 1,48,-1
 238 289 l 1,49,-1
 178 289 l 1,50,-1
 178 630 l 1,51,-1
 251 630 l 2,52,53
 319 630 319 630 348 605.5 c 128,-1,54
 377 581 377 581 377 522 c 0,55,56
 377 446 377 446 326 425 c 1,57,-1
 389 289 l 1,58,-1
 328 289 l 1,59,-1
 269 413 l 1,60,-1
 238 413 l 1,48,-1
317 512 m 2,61,-1
 317 531 l 2,62,63
 317 554 317 554 311 563 c 0,64,65
 301 578 301 578 262 578 c 2,66,-1
 238 578 l 1,67,-1
 238 465 l 1,68,-1
 262 465 l 2,69,70
 301 465 301 465 310 479 c 0,71,72
 317 490 317 490 317 512 c 2,61,-1
EndSplineSet
EndChar

StartChar: macron
Encoding: 175 175 111
Width: 400
GlyphClass: 2
Flags: W
LayerCount: 2
Fore
SplineSet
80 635 m 1,0,-1
 80 698 l 1,1,-1
 320 698 l 1,2,-1
 320 635 l 1,3,-1
 80 635 l 1,0,-1
EndSplineSet
EndChar

StartChar: degree
Encoding: 176 176 112
Width: 360
GlyphClass: 2
Flags: W
LayerCount: 2
Fore
SplineSet
310 565 m 128,-1,1
 310 530 310 530 309 514 c 128,-1,2
 308 498 308 498 301.5 475 c 128,-1,3
 295 452 295 452 281.5 442.5 c 128,-1,4
 268 433 268 433 242.5 425.5 c 128,-1,5
 217 418 217 418 179 418 c 128,-1,6
 141 418 141 418 116 425.5 c 128,-1,7
 91 433 91 433 78 442.5 c 128,-1,8
 65 452 65 452 58.5 475 c 128,-1,9
 52 498 52 498 51 514 c 128,-1,10
 50 530 50 530 50 565 c 128,-1,11
 50 600 50 600 51 616 c 128,-1,12
 52 632 52 632 58.5 655 c 128,-1,13
 65 678 65 678 78 687.5 c 128,-1,14
 91 697 91 697 116 704.5 c 128,-1,15
 141 712 141 712 179 712 c 128,-1,16
 217 712 217 712 242.5 704.5 c 128,-1,17
 268 697 268 697 281.5 687.5 c 128,-1,18
 295 678 295 678 301.5 655 c 128,-1,19
 308 632 308 632 309 616 c 128,-1,0
 310 600 310 600 310 565 c 128,-1,1
239 526 m 2,20,-1
 239 603 l 2,21,22
 239 641 239 641 214 648 c 0,23,24
 202 651 202 651 180.5 651 c 128,-1,25
 159 651 159 651 146 647.5 c 128,-1,26
 133 644 133 644 128 636 c 0,27,28
 121 625 121 625 121 603 c 2,29,-1
 121 526 l 2,30,31
 121 504 121 504 127 495 c 0,32,33
 137 478 137 478 181 478 c 0,34,35
 223 478 223 478 232 493 c 0,36,37
 239 504 239 504 239 526 c 2,20,-1
EndSplineSet
EndChar

StartChar: plusminus
Encoding: 177 177 113
Width: 500
GlyphClass: 2
Flags: W
LayerCount: 2
Fore
SplineSet
60 282 m 1,0,-1
 60 352 l 1,1,-1
 215 352 l 1,2,-1
 215 507 l 1,3,-1
 285 507 l 1,4,-1
 285 352 l 1,5,-1
 440 352 l 1,6,-1
 440 282 l 1,7,-1
 285 282 l 1,8,-1
 285 127 l 1,9,-1
 215 127 l 1,10,-1
 215 282 l 1,11,-1
 60 282 l 1,0,-1
60 0 m 1,12,-1
 60 70 l 1,13,-1
 440 70 l 1,14,-1
 440 0 l 1,15,-1
 60 0 l 1,12,-1
EndSplineSet
EndChar

StartChar: twosuperior
Encoding: 178 178 114
Width: 335
GlyphClass: 2
Flags: W
LayerCount: 2
Fore
SplineSet
243.5 694.5 m 128,-1,1
 273 670 273 670 273 621.5 c 128,-1,2
 273 573 273 573 227 521 c 2,3,-1
 132 416 l 1,4,-1
 273 416 l 1,5,-1
 273 365 l 1,6,-1
 56 365 l 1,7,-1
 56 414 l 1,8,-1
 180 553 l 2,9,10
 210 586 210 586 210 617 c 128,-1,11
 210 648 210 648 198.5 657.5 c 128,-1,12
 187 667 187 667 156 667 c 128,-1,13
 125 667 125 667 73 651 c 1,14,-1
 59 694 l 1,15,16
 117 719 117 719 165.5 719 c 128,-1,0
 214 719 214 719 243.5 694.5 c 128,-1,1
EndSplineSet
EndChar

StartChar: threesuperior
Encoding: 179 179 115
Width: 335
GlyphClass: 2
Flags: W
LayerCount: 2
Fore
SplineSet
153 719 m 0,0,1
 262 719 262 719 262 624 c 0,2,3
 262 574 262 574 226 546 c 1,4,5
 273 524 273 524 273 466 c 0,6,7
 273 360 273 360 153 360 c 0,8,9
 104 360 104 360 56 380 c 1,10,-1
 70 423 l 1,11,12
 129 413 129 413 151 413 c 128,-1,13
 173 413 173 413 185.5 417.5 c 128,-1,14
 198 422 198 422 203 432 c 0,15,16
 210 445 210 445 210 462 c 128,-1,17
 210 479 210 479 208.5 487.5 c 128,-1,18
 207 496 207 496 198.5 504.5 c 128,-1,19
 190 513 190 513 173 514 c 2,20,-1
 100 519 l 1,21,-1
 100 561 l 1,22,-1
 165 565 l 2,23,24
 199 567 199 567 199 617 c 128,-1,25
 199 667 199 667 151 667 c 0,26,27
 121 667 121 667 68 651 c 1,28,-1
 54 694 l 1,29,30
 110 719 110 719 153 719 c 0,0,1
EndSplineSet
EndChar

StartChar: acute
Encoding: 180 180 116
Width: 430
GlyphClass: 2
Flags: W
LayerCount: 2
Fore
SplineSet
147 586 m 1,0,-1
 124 620 l 1,1,-1
 289 756 l 1,2,-1
 335 689 l 1,3,-1
 147 586 l 1,0,-1
EndSplineSet
EndChar

StartChar: mu
Encoding: 181 181 117
Width: 516
GlyphClass: 2
Flags: W
LayerCount: 2
Fore
SplineSet
90 -182 m 1,0,-1
 90 520 l 1,1,-1
 172 520 l 1,2,-1
 172 142 l 2,3,4
 172 94 172 94 188.5 73.5 c 128,-1,5
 205 53 205 53 263 53 c 128,-1,6
 321 53 321 53 337.5 73.5 c 128,-1,7
 354 94 354 94 354 142 c 2,8,-1
 354 520 l 1,9,-1
 436 520 l 1,10,-1
 436 153 l 2,11,12
 436 56 436 56 396.5 22 c 128,-1,13
 357 -12 357 -12 275 -12 c 128,-1,14
 193 -12 193 -12 165 16 c 1,15,-1
 165 -182 l 1,16,-1
 90 -182 l 1,0,-1
EndSplineSet
EndChar

StartChar: paragraph
Encoding: 182 182 118
Width: 399
GlyphClass: 2
Flags: W
LayerCount: 2
Fore
SplineSet
309 0 m 1,0,-1
 227 0 l 1,1,-1
 227 232 l 1,2,3
 130 232 130 232 95 258 c 0,4,5
 81 269 81 269 72 277 c 128,-1,6
 63 285 63 285 56.5 302.5 c 128,-1,7
 50 320 50 320 47 331 c 128,-1,8
 44 342 44 342 42 365.5 c 128,-1,9
 40 389 40 389 40 402 c 2,10,11
 40 402 40 402 40 488 c 0,12,13
 40 533 40 533 45 551.5 c 128,-1,14
 50 570 50 570 56.5 587.5 c 128,-1,15
 63 605 63 605 72 613 c 128,-1,16
 81 621 81 621 95 631.5 c 128,-1,17
 109 642 109 642 128 646 c 0,18,19
 177 658 177 658 227 658 c 2,20,-1
 309 658 l 1,21,-1
 309 0 l 1,0,-1
EndSplineSet
EndChar

StartChar: periodcentered
Encoding: 183 183 119
Width: 251
GlyphClass: 2
Flags: W
LayerCount: 2
Fore
SplineSet
153 364 m 128,-1,1
 162 363 162 363 172 358 c 0,2,3
 191 348 191 348 191 302 c 256,4,5
 191 256 191 256 172 245 c 0,6,7
 158 237 158 237 132 237 c 128,-1,8
 106 237 106 237 97.5 238 c 128,-1,9
 89 239 89 239 78 245 c 0,10,11
 60 256 60 256 60 302 c 256,12,13
 60 348 60 348 78 358 c 1,14,15
 93 365 93 365 118.5 365 c 128,-1,0
 144 365 144 365 153 364 c 128,-1,1
EndSplineSet
EndChar

StartChar: cedilla
Encoding: 184 184 120
Width: 182
GlyphClass: 2
Flags: W
LayerCount: 2
Fore
SplineSet
99 -56 m 2,0,1
 142 -56 142 -56 157 -72.5 c 128,-1,2
 172 -89 172 -89 172 -121 c 128,-1,3
 172 -153 172 -153 153.5 -173.5 c 128,-1,4
 135 -194 135 -194 88 -194 c 128,-1,5
 41 -194 41 -194 10 -177 c 1,6,-1
 20 -142 l 1,7,8
 54 -150 54 -150 71 -150 c 128,-1,9
 88 -150 88 -150 96.5 -145.5 c 128,-1,10
 105 -141 105 -141 106 -136 c 128,-1,11
 107 -131 107 -131 107 -122.5 c 128,-1,12
 107 -114 107 -114 106 -109.5 c 128,-1,13
 105 -105 105 -105 98 -99.5 c 128,-1,14
 91 -94 91 -94 78 -94 c 2,15,-1
 58 -94 l 1,16,-1
 43 -70 l 1,17,-1
 53 0 l 1,18,-1
 94 0 l 1,19,-1
 87 -56 l 1,20,-1
 99 -56 l 2,0,1
EndSplineSet
EndChar

StartChar: onesuperior
Encoding: 185 185 121
Width: 335
GlyphClass: 2
Flags: W
LayerCount: 2
Fore
SplineSet
214 719 m 1,0,-1
 214 365 l 1,1,-1
 151 365 l 1,2,-1
 151 647 l 1,3,-1
 85 622 l 1,4,-1
 66 671 l 1,5,-1
 194 719 l 1,6,-1
 214 719 l 1,0,-1
EndSplineSet
EndChar

StartChar: ordmasculine
Encoding: 186 186 122
Width: 413
GlyphClass: 2
Flags: W
LayerCount: 2
Fore
SplineSet
264 364 m 128,-1,1
 240 355 240 355 204.5 355 c 128,-1,2
 169 355 169 355 145 364 c 128,-1,3
 121 373 121 373 109 385 c 128,-1,4
 97 397 97 397 91 424.5 c 128,-1,5
 85 452 85 452 84 472 c 128,-1,6
 83 492 83 492 83 534 c 128,-1,7
 83 576 83 576 84 596 c 128,-1,8
 85 616 85 616 91 643.5 c 128,-1,9
 97 671 97 671 109 683 c 0,10,11
 139 713 139 713 204 713 c 256,12,13
 269 713 269 713 300 683 c 0,14,15
 323 662 323 662 326 596 c 0,16,17
 327 576 327 576 327 534 c 128,-1,18
 327 492 327 492 326 472 c 128,-1,19
 325 452 325 452 319 424.5 c 128,-1,20
 313 397 313 397 300.5 385 c 128,-1,0
 288 373 288 373 264 364 c 128,-1,1
263 456 m 2,21,-1
 263 611 l 2,22,23
 263 638 263 638 252 650.5 c 128,-1,24
 241 663 241 663 203.5 663 c 128,-1,25
 166 663 166 663 155 650.5 c 128,-1,26
 144 638 144 638 144 611 c 2,27,-1
 144 456 l 2,28,29
 144 430 144 430 155 417.5 c 128,-1,30
 166 405 166 405 203.5 405 c 128,-1,31
 241 405 241 405 252 417.5 c 128,-1,32
 263 430 263 430 263 456 c 2,21,-1
EndSplineSet
EndChar

StartChar: guillemotright
Encoding: 187 187 123
Width: 440
GlyphClass: 2
Flags: W
LayerCount: 2
Fore
SplineSet
325 308 m 1,0,-1
 250 520 l 1,1,-1
 321 532 l 1,2,-1
 410 308 l 1,3,-1
 321 84 l 1,4,-1
 250 96 l 1,5,-1
 325 308 l 1,0,-1
125 308 m 1,6,-1
 50 520 l 1,7,-1
 121 532 l 1,8,-1
 210 308 l 1,9,-1
 121 84 l 1,10,-1
 50 96 l 1,11,-1
 125 308 l 1,6,-1
EndSplineSet
EndChar

StartChar: onequarter
Encoding: 188 188 124
Width: 726
GlyphClass: 2
Flags: W
LayerCount: 2
Fore
SplineSet
272 0 m 1,0,-1
 227 0 l 1,1,-1
 402 646 l 1,2,-1
 447 646 l 1,3,-1
 272 0 l 1,0,-1
209 655 m 1,4,-1
 209 301 l 1,5,-1
 146 301 l 1,6,-1
 146 583 l 1,7,-1
 80 558 l 1,8,-1
 61 607 l 1,9,-1
 189 655 l 1,10,-1
 209 655 l 1,4,-1
625 242 m 1,11,-1
 625 133 l 1,12,-1
 664 133 l 1,13,-1
 664 81 l 1,14,-1
 625 81 l 1,15,-1
 625 0 l 1,16,-1
 567 0 l 1,17,-1
 567 81 l 1,18,-1
 414 81 l 1,19,-1
 414 124 l 1,20,-1
 492 349 l 1,21,-1
 553 349 l 1,22,-1
 478 133 l 1,23,-1
 567 133 l 1,24,-1
 567 192 l 1,25,-1
 583 242 l 1,26,-1
 625 242 l 1,11,-1
EndSplineSet
EndChar

StartChar: onehalf
Encoding: 189 189 125
Width: 726
GlyphClass: 2
Flags: W
LayerCount: 2
Fore
SplineSet
272 0 m 1,0,-1
 227 0 l 1,1,-1
 402 646 l 1,2,-1
 447 646 l 1,3,-1
 272 0 l 1,0,-1
209 655 m 1,4,-1
 209 301 l 1,5,-1
 146 301 l 1,6,-1
 146 583 l 1,7,-1
 80 558 l 1,8,-1
 61 607 l 1,9,-1
 189 655 l 1,10,-1
 209 655 l 1,4,-1
627.5 329.5 m 128,-1,12
 657 305 657 305 657 256.5 c 128,-1,13
 657 208 657 208 611 156 c 2,14,-1
 516 51 l 1,15,-1
 657 51 l 1,16,-1
 657 0 l 1,17,-1
 440 0 l 1,18,-1
 440 49 l 1,19,-1
 564 188 l 2,20,21
 594 221 594 221 594 252 c 128,-1,22
 594 283 594 283 582.5 292.5 c 128,-1,23
 571 302 571 302 540 302 c 128,-1,24
 509 302 509 302 457 286 c 1,25,-1
 443 329 l 1,26,27
 501 354 501 354 549.5 354 c 128,-1,11
 598 354 598 354 627.5 329.5 c 128,-1,12
EndSplineSet
EndChar

StartChar: threequarters
Encoding: 190 190 126
Width: 726
GlyphClass: 2
Flags: W
LayerCount: 2
Fore
SplineSet
294 0 m 1,0,-1
 249 0 l 1,1,-1
 424 646 l 1,2,-1
 469 646 l 1,3,-1
 294 0 l 1,0,-1
148 655 m 0,4,5
 257 655 257 655 257 560 c 0,6,7
 257 510 257 510 221 482 c 1,8,9
 268 460 268 460 268 402 c 0,10,11
 268 296 268 296 148 296 c 0,12,13
 98 296 98 296 51 316 c 1,14,-1
 65 359 l 1,15,16
 124 349 124 349 146 349 c 128,-1,17
 168 349 168 349 180.5 353.5 c 128,-1,18
 193 358 193 358 198 368 c 0,19,20
 205 381 205 381 205 398 c 128,-1,21
 205 415 205 415 203.5 423.5 c 128,-1,22
 202 432 202 432 193.5 440.5 c 128,-1,23
 185 449 185 449 168 450 c 2,24,-1
 95 455 l 1,25,-1
 95 497 l 1,26,-1
 160 501 l 2,27,28
 194 503 194 503 194 553 c 128,-1,29
 194 603 194 603 146 603 c 0,30,31
 116 603 116 603 63 587 c 1,32,-1
 49 630 l 1,33,34
 105 655 105 655 148 655 c 0,4,5
625 242 m 1,35,-1
 625 133 l 1,36,-1
 664 133 l 1,37,-1
 664 81 l 1,38,-1
 625 81 l 1,39,-1
 625 0 l 1,40,-1
 567 0 l 1,41,-1
 567 81 l 1,42,-1
 414 81 l 1,43,-1
 414 124 l 1,44,-1
 492 349 l 1,45,-1
 553 349 l 1,46,-1
 478 133 l 1,47,-1
 567 133 l 1,48,-1
 567 192 l 1,49,-1
 583 242 l 1,50,-1
 625 242 l 1,35,-1
EndSplineSet
EndChar

StartChar: questiondown
Encoding: 191 191 127
Width: 361
GlyphClass: 2
Flags: W
LayerCount: 2
Fore
SplineSet
133 -100 m 128,-1,1
 151 -121 151 -121 207.5 -121 c 128,-1,2
 264 -121 264 -121 326 -106 c 1,3,-1
 341 -171 l 1,4,5
 274 -192 274 -192 212 -192 c 0,6,7
 114 -192 114 -192 72 -149.5 c 128,-1,8
 30 -107 30 -107 30 -13.5 c 128,-1,9
 30 80 30 80 108 169 c 2,10,-1
 161 230 l 2,11,12
 190 264 190 264 196 281 c 128,-1,13
 202 298 202 298 202 341 c 1,14,-1
 269 341 l 1,15,16
 269 275 269 275 262 248.5 c 128,-1,17
 255 222 255 222 226 188 c 2,18,-1
 173 127 l 2,19,20
 141 91 141 91 128 59 c 128,-1,21
 115 27 115 27 115 -26 c 128,-1,0
 115 -79 115 -79 133 -100 c 128,-1,1
232 421 m 128,-1,23
 215 421 215 421 207.5 422 c 128,-1,24
 200 423 200 423 191 428 c 128,-1,25
 182 433 182 433 178.5 444.5 c 128,-1,26
 175 456 175 456 175 476 c 128,-1,27
 175 496 175 496 178.5 508 c 128,-1,28
 182 520 182 520 191 525 c 128,-1,29
 200 530 200 530 207.5 531 c 128,-1,30
 215 532 215 532 232 532 c 128,-1,31
 249 532 249 532 256.5 531 c 128,-1,32
 264 530 264 530 273 525 c 128,-1,33
 282 520 282 520 285.5 508 c 128,-1,34
 289 496 289 496 289 476 c 128,-1,35
 289 456 289 456 285.5 444.5 c 128,-1,36
 282 433 282 433 273 428 c 128,-1,37
 264 423 264 423 256.5 422 c 128,-1,22
 249 421 249 421 232 421 c 128,-1,23
EndSplineSet
EndChar

StartChar: Agrave
Encoding: 192 192 128
Width: 548
GlyphClass: 2
Flags: W
LayerCount: 2
Fore
SplineSet
123 0 m 1,0,-1
 35 0 l 1,1,-1
 201 700 l 1,2,-1
 347 700 l 1,3,-1
 513 0 l 1,4,-1
 425 0 l 1,5,-1
 384 177 l 1,6,-1
 164 177 l 1,7,-1
 123 0 l 1,0,-1
367 247 m 1,8,-1
 277 636 l 1,9,-1
 271 636 l 1,10,-1
 180 247 l 1,11,-1
 367 247 l 1,8,-1
379 765 m 1,12,-1
 356 731 l 1,13,-1
 168 834 l 1,14,-1
 214 901 l 1,15,-1
 379 765 l 1,12,-1
EndSplineSet
PairPos2: "'kern' Horizontal Kerning in Latin lookup 0 per glyph data 1" quotedblright dx=0 dy=0 dh=-70 dv=0 dx=0 dy=0 dh=0 dv=0
PairPos2: "'kern' Horizontal Kerning in Latin lookup 0 per glyph data 1" quoteright dx=0 dy=0 dh=-70 dv=0 dx=0 dy=0 dh=0 dv=0
PairPos2: "'kern' Horizontal Kerning in Latin lookup 0 per glyph data 1" Ydieresis dx=0 dy=0 dh=-50 dv=0 dx=0 dy=0 dh=0 dv=0
PairPos2: "'kern' Horizontal Kerning in Latin lookup 0 per glyph data 1" ydieresis dx=0 dy=0 dh=-10 dv=0 dx=0 dy=0 dh=0 dv=0
PairPos2: "'kern' Horizontal Kerning in Latin lookup 0 per glyph data 1" yacute dx=0 dy=0 dh=-10 dv=0 dx=0 dy=0 dh=0 dv=0
PairPos2: "'kern' Horizontal Kerning in Latin lookup 0 per glyph data 1" Yacute dx=0 dy=0 dh=-50 dv=0 dx=0 dy=0 dh=0 dv=0
PairPos2: "'kern' Horizontal Kerning in Latin lookup 0 per glyph data 1" y dx=0 dy=0 dh=-10 dv=0 dx=0 dy=0 dh=0 dv=0
PairPos2: "'kern' Horizontal Kerning in Latin lookup 0 per glyph data 1" w dx=0 dy=0 dh=-10 dv=0 dx=0 dy=0 dh=0 dv=0
PairPos2: "'kern' Horizontal Kerning in Latin lookup 0 per glyph data 1" v dx=0 dy=0 dh=-10 dv=0 dx=0 dy=0 dh=0 dv=0
PairPos2: "'kern' Horizontal Kerning in Latin lookup 0 per glyph data 1" Y dx=0 dy=0 dh=-50 dv=0 dx=0 dy=0 dh=0 dv=0
PairPos2: "'kern' Horizontal Kerning in Latin lookup 0 per glyph data 1" W dx=0 dy=0 dh=-20 dv=0 dx=0 dy=0 dh=0 dv=0
PairPos2: "'kern' Horizontal Kerning in Latin lookup 0 per glyph data 1" V dx=0 dy=0 dh=-30 dv=0 dx=0 dy=0 dh=0 dv=0
PairPos2: "'kern' Horizontal Kerning in Latin lookup 0 per glyph data 1" T dx=0 dy=0 dh=-40 dv=0 dx=0 dy=0 dh=0 dv=0
PairPos2: "'kern' Horizontal Kerning in Latin lookup 0 per glyph data 1" quotesingle dx=0 dy=0 dh=-70 dv=0 dx=0 dy=0 dh=0 dv=0
PairPos2: "'kern' Horizontal Kerning in Latin lookup 0 per glyph data 1" quotedbl dx=0 dy=0 dh=-70 dv=0 dx=0 dy=0 dh=0 dv=0
EndChar

StartChar: Aacute
Encoding: 193 193 129
Width: 548
GlyphClass: 2
Flags: W
LayerCount: 2
Fore
SplineSet
123 0 m 1,0,-1
 35 0 l 1,1,-1
 201 700 l 1,2,-1
 347 700 l 1,3,-1
 513 0 l 1,4,-1
 425 0 l 1,5,-1
 384 177 l 1,6,-1
 164 177 l 1,7,-1
 123 0 l 1,0,-1
367 247 m 1,8,-1
 277 636 l 1,9,-1
 271 636 l 1,10,-1
 180 247 l 1,11,-1
 367 247 l 1,8,-1
191 731 m 1,12,-1
 168 765 l 1,13,-1
 333 901 l 1,14,-1
 379 834 l 1,15,-1
 191 731 l 1,12,-1
EndSplineSet
PairPos2: "'kern' Horizontal Kerning in Latin lookup 0 per glyph data 1" quotedblright dx=0 dy=0 dh=-70 dv=0 dx=0 dy=0 dh=0 dv=0
PairPos2: "'kern' Horizontal Kerning in Latin lookup 0 per glyph data 1" quoteright dx=0 dy=0 dh=-70 dv=0 dx=0 dy=0 dh=0 dv=0
PairPos2: "'kern' Horizontal Kerning in Latin lookup 0 per glyph data 1" Ydieresis dx=0 dy=0 dh=-50 dv=0 dx=0 dy=0 dh=0 dv=0
PairPos2: "'kern' Horizontal Kerning in Latin lookup 0 per glyph data 1" ydieresis dx=0 dy=0 dh=-10 dv=0 dx=0 dy=0 dh=0 dv=0
PairPos2: "'kern' Horizontal Kerning in Latin lookup 0 per glyph data 1" yacute dx=0 dy=0 dh=-10 dv=0 dx=0 dy=0 dh=0 dv=0
PairPos2: "'kern' Horizontal Kerning in Latin lookup 0 per glyph data 1" Yacute dx=0 dy=0 dh=-50 dv=0 dx=0 dy=0 dh=0 dv=0
PairPos2: "'kern' Horizontal Kerning in Latin lookup 0 per glyph data 1" y dx=0 dy=0 dh=-10 dv=0 dx=0 dy=0 dh=0 dv=0
PairPos2: "'kern' Horizontal Kerning in Latin lookup 0 per glyph data 1" w dx=0 dy=0 dh=-10 dv=0 dx=0 dy=0 dh=0 dv=0
PairPos2: "'kern' Horizontal Kerning in Latin lookup 0 per glyph data 1" v dx=0 dy=0 dh=-10 dv=0 dx=0 dy=0 dh=0 dv=0
PairPos2: "'kern' Horizontal Kerning in Latin lookup 0 per glyph data 1" Y dx=0 dy=0 dh=-50 dv=0 dx=0 dy=0 dh=0 dv=0
PairPos2: "'kern' Horizontal Kerning in Latin lookup 0 per glyph data 1" W dx=0 dy=0 dh=-20 dv=0 dx=0 dy=0 dh=0 dv=0
PairPos2: "'kern' Horizontal Kerning in Latin lookup 0 per glyph data 1" V dx=0 dy=0 dh=-30 dv=0 dx=0 dy=0 dh=0 dv=0
PairPos2: "'kern' Horizontal Kerning in Latin lookup 0 per glyph data 1" T dx=0 dy=0 dh=-40 dv=0 dx=0 dy=0 dh=0 dv=0
PairPos2: "'kern' Horizontal Kerning in Latin lookup 0 per glyph data 1" quotesingle dx=0 dy=0 dh=-70 dv=0 dx=0 dy=0 dh=0 dv=0
PairPos2: "'kern' Horizontal Kerning in Latin lookup 0 per glyph data 1" quotedbl dx=0 dy=0 dh=-70 dv=0 dx=0 dy=0 dh=0 dv=0
EndChar

StartChar: Acircumflex
Encoding: 194 194 130
Width: 548
GlyphClass: 2
Flags: W
LayerCount: 2
Fore
SplineSet
123 0 m 1,0,-1
 35 0 l 1,1,-1
 201 700 l 1,2,-1
 347 700 l 1,3,-1
 513 0 l 1,4,-1
 425 0 l 1,5,-1
 384 177 l 1,6,-1
 164 177 l 1,7,-1
 123 0 l 1,0,-1
367 247 m 1,8,-1
 277 636 l 1,9,-1
 271 636 l 1,10,-1
 180 247 l 1,11,-1
 367 247 l 1,8,-1
407 775 m 1,12,-1
 376 738 l 1,13,-1
 273 805 l 1,14,-1
 170 738 l 1,15,-1
 140 775 l 1,16,-1
 273 891 l 1,17,-1
 407 775 l 1,12,-1
EndSplineSet
PairPos2: "'kern' Horizontal Kerning in Latin lookup 0 per glyph data 1" quotedblright dx=0 dy=0 dh=-70 dv=0 dx=0 dy=0 dh=0 dv=0
PairPos2: "'kern' Horizontal Kerning in Latin lookup 0 per glyph data 1" quoteright dx=0 dy=0 dh=-70 dv=0 dx=0 dy=0 dh=0 dv=0
PairPos2: "'kern' Horizontal Kerning in Latin lookup 0 per glyph data 1" Ydieresis dx=0 dy=0 dh=-50 dv=0 dx=0 dy=0 dh=0 dv=0
PairPos2: "'kern' Horizontal Kerning in Latin lookup 0 per glyph data 1" ydieresis dx=0 dy=0 dh=-10 dv=0 dx=0 dy=0 dh=0 dv=0
PairPos2: "'kern' Horizontal Kerning in Latin lookup 0 per glyph data 1" yacute dx=0 dy=0 dh=-10 dv=0 dx=0 dy=0 dh=0 dv=0
PairPos2: "'kern' Horizontal Kerning in Latin lookup 0 per glyph data 1" Yacute dx=0 dy=0 dh=-50 dv=0 dx=0 dy=0 dh=0 dv=0
PairPos2: "'kern' Horizontal Kerning in Latin lookup 0 per glyph data 1" y dx=0 dy=0 dh=-10 dv=0 dx=0 dy=0 dh=0 dv=0
PairPos2: "'kern' Horizontal Kerning in Latin lookup 0 per glyph data 1" w dx=0 dy=0 dh=-10 dv=0 dx=0 dy=0 dh=0 dv=0
PairPos2: "'kern' Horizontal Kerning in Latin lookup 0 per glyph data 1" v dx=0 dy=0 dh=-10 dv=0 dx=0 dy=0 dh=0 dv=0
PairPos2: "'kern' Horizontal Kerning in Latin lookup 0 per glyph data 1" Y dx=0 dy=0 dh=-50 dv=0 dx=0 dy=0 dh=0 dv=0
PairPos2: "'kern' Horizontal Kerning in Latin lookup 0 per glyph data 1" W dx=0 dy=0 dh=-20 dv=0 dx=0 dy=0 dh=0 dv=0
PairPos2: "'kern' Horizontal Kerning in Latin lookup 0 per glyph data 1" V dx=0 dy=0 dh=-30 dv=0 dx=0 dy=0 dh=0 dv=0
PairPos2: "'kern' Horizontal Kerning in Latin lookup 0 per glyph data 1" T dx=0 dy=0 dh=-40 dv=0 dx=0 dy=0 dh=0 dv=0
PairPos2: "'kern' Horizontal Kerning in Latin lookup 0 per glyph data 1" quotesingle dx=0 dy=0 dh=-70 dv=0 dx=0 dy=0 dh=0 dv=0
PairPos2: "'kern' Horizontal Kerning in Latin lookup 0 per glyph data 1" quotedbl dx=0 dy=0 dh=-70 dv=0 dx=0 dy=0 dh=0 dv=0
EndChar

StartChar: Atilde
Encoding: 195 195 131
Width: 548
GlyphClass: 2
Flags: W
LayerCount: 2
Fore
SplineSet
123 0 m 1,0,-1
 35 0 l 1,1,-1
 201 700 l 1,2,-1
 347 700 l 1,3,-1
 513 0 l 1,4,-1
 425 0 l 1,5,-1
 384 177 l 1,6,-1
 164 177 l 1,7,-1
 123 0 l 1,0,-1
367 247 m 1,8,-1
 277 636 l 1,9,-1
 271 636 l 1,10,-1
 180 247 l 1,11,-1
 367 247 l 1,8,-1
358.5 774 m 128,-1,13
 341 765 341 765 322.5 765 c 128,-1,14
 304 765 304 765 271.5 778.5 c 128,-1,15
 239 792 239 792 217 792 c 128,-1,16
 195 792 195 792 164 772 c 1,17,-1
 142 810 l 1,18,19
 171 839 171 839 188.5 848 c 128,-1,20
 206 857 206 857 224.5 857 c 128,-1,21
 243 857 243 857 275.5 843.5 c 128,-1,22
 308 830 308 830 330 830 c 128,-1,23
 352 830 352 830 383 850 c 1,24,-1
 405 812 l 1,25,12
 376 783 376 783 358.5 774 c 128,-1,13
EndSplineSet
PairPos2: "'kern' Horizontal Kerning in Latin lookup 0 per glyph data 1" quotedblright dx=0 dy=0 dh=-70 dv=0 dx=0 dy=0 dh=0 dv=0
PairPos2: "'kern' Horizontal Kerning in Latin lookup 0 per glyph data 1" quoteright dx=0 dy=0 dh=-70 dv=0 dx=0 dy=0 dh=0 dv=0
PairPos2: "'kern' Horizontal Kerning in Latin lookup 0 per glyph data 1" Ydieresis dx=0 dy=0 dh=-50 dv=0 dx=0 dy=0 dh=0 dv=0
PairPos2: "'kern' Horizontal Kerning in Latin lookup 0 per glyph data 1" ydieresis dx=0 dy=0 dh=-10 dv=0 dx=0 dy=0 dh=0 dv=0
PairPos2: "'kern' Horizontal Kerning in Latin lookup 0 per glyph data 1" yacute dx=0 dy=0 dh=-10 dv=0 dx=0 dy=0 dh=0 dv=0
PairPos2: "'kern' Horizontal Kerning in Latin lookup 0 per glyph data 1" Yacute dx=0 dy=0 dh=-50 dv=0 dx=0 dy=0 dh=0 dv=0
PairPos2: "'kern' Horizontal Kerning in Latin lookup 0 per glyph data 1" y dx=0 dy=0 dh=-10 dv=0 dx=0 dy=0 dh=0 dv=0
PairPos2: "'kern' Horizontal Kerning in Latin lookup 0 per glyph data 1" w dx=0 dy=0 dh=-10 dv=0 dx=0 dy=0 dh=0 dv=0
PairPos2: "'kern' Horizontal Kerning in Latin lookup 0 per glyph data 1" v dx=0 dy=0 dh=-10 dv=0 dx=0 dy=0 dh=0 dv=0
PairPos2: "'kern' Horizontal Kerning in Latin lookup 0 per glyph data 1" Y dx=0 dy=0 dh=-50 dv=0 dx=0 dy=0 dh=0 dv=0
PairPos2: "'kern' Horizontal Kerning in Latin lookup 0 per glyph data 1" W dx=0 dy=0 dh=-20 dv=0 dx=0 dy=0 dh=0 dv=0
PairPos2: "'kern' Horizontal Kerning in Latin lookup 0 per glyph data 1" V dx=0 dy=0 dh=-30 dv=0 dx=0 dy=0 dh=0 dv=0
PairPos2: "'kern' Horizontal Kerning in Latin lookup 0 per glyph data 1" T dx=0 dy=0 dh=-40 dv=0 dx=0 dy=0 dh=0 dv=0
PairPos2: "'kern' Horizontal Kerning in Latin lookup 0 per glyph data 1" quotesingle dx=0 dy=0 dh=-70 dv=0 dx=0 dy=0 dh=0 dv=0
PairPos2: "'kern' Horizontal Kerning in Latin lookup 0 per glyph data 1" quotedbl dx=0 dy=0 dh=-70 dv=0 dx=0 dy=0 dh=0 dv=0
EndChar

StartChar: Adieresis
Encoding: 196 196 132
Width: 548
GlyphClass: 2
Flags: W
LayerCount: 2
Fore
SplineSet
123 0 m 1,0,-1
 35 0 l 1,1,-1
 201 700 l 1,2,-1
 347 700 l 1,3,-1
 513 0 l 1,4,-1
 425 0 l 1,5,-1
 384 177 l 1,6,-1
 164 177 l 1,7,-1
 123 0 l 1,0,-1
367 247 m 1,8,-1
 277 636 l 1,9,-1
 271 636 l 1,10,-1
 180 247 l 1,11,-1
 367 247 l 1,8,-1
184 862 m 128,-1,13
 199 862 199 862 206 861 c 128,-1,14
 213 860 213 860 222 856 c 0,15,16
 236 848 236 848 236 820.5 c 128,-1,17
 236 793 236 793 233 782.5 c 128,-1,18
 230 772 230 772 221.5 767.5 c 128,-1,19
 213 763 213 763 206 762 c 128,-1,20
 199 761 199 761 184 761 c 128,-1,21
 169 761 169 761 162 762 c 128,-1,22
 155 763 155 763 146 768 c 0,23,24
 132 775 132 775 132 802.5 c 128,-1,25
 132 830 132 830 135 840.5 c 128,-1,26
 138 851 138 851 146.5 855.5 c 128,-1,27
 155 860 155 860 162 861 c 128,-1,12
 169 862 169 862 184 862 c 128,-1,13
364 862 m 128,-1,29
 379 862 379 862 386 861 c 128,-1,30
 393 860 393 860 402 856 c 0,31,32
 416 848 416 848 416 820.5 c 128,-1,33
 416 793 416 793 413 782.5 c 128,-1,34
 410 772 410 772 401.5 767.5 c 128,-1,35
 393 763 393 763 386 762 c 128,-1,36
 379 761 379 761 364 761 c 128,-1,37
 349 761 349 761 342 762 c 128,-1,38
 335 763 335 763 326 768 c 0,39,40
 312 775 312 775 312 802.5 c 128,-1,41
 312 830 312 830 315 840.5 c 128,-1,42
 318 851 318 851 326.5 855.5 c 128,-1,43
 335 860 335 860 342 861 c 128,-1,28
 349 862 349 862 364 862 c 128,-1,29
EndSplineSet
PairPos2: "'kern' Horizontal Kerning in Latin lookup 0 per glyph data 1" quotedblright dx=0 dy=0 dh=-70 dv=0 dx=0 dy=0 dh=0 dv=0
PairPos2: "'kern' Horizontal Kerning in Latin lookup 0 per glyph data 1" quoteright dx=0 dy=0 dh=-70 dv=0 dx=0 dy=0 dh=0 dv=0
PairPos2: "'kern' Horizontal Kerning in Latin lookup 0 per glyph data 1" Ydieresis dx=0 dy=0 dh=-50 dv=0 dx=0 dy=0 dh=0 dv=0
PairPos2: "'kern' Horizontal Kerning in Latin lookup 0 per glyph data 1" ydieresis dx=0 dy=0 dh=-10 dv=0 dx=0 dy=0 dh=0 dv=0
PairPos2: "'kern' Horizontal Kerning in Latin lookup 0 per glyph data 1" yacute dx=0 dy=0 dh=-10 dv=0 dx=0 dy=0 dh=0 dv=0
PairPos2: "'kern' Horizontal Kerning in Latin lookup 0 per glyph data 1" Yacute dx=0 dy=0 dh=-50 dv=0 dx=0 dy=0 dh=0 dv=0
PairPos2: "'kern' Horizontal Kerning in Latin lookup 0 per glyph data 1" y dx=0 dy=0 dh=-10 dv=0 dx=0 dy=0 dh=0 dv=0
PairPos2: "'kern' Horizontal Kerning in Latin lookup 0 per glyph data 1" w dx=0 dy=0 dh=-10 dv=0 dx=0 dy=0 dh=0 dv=0
PairPos2: "'kern' Horizontal Kerning in Latin lookup 0 per glyph data 1" v dx=0 dy=0 dh=-10 dv=0 dx=0 dy=0 dh=0 dv=0
PairPos2: "'kern' Horizontal Kerning in Latin lookup 0 per glyph data 1" Y dx=0 dy=0 dh=-50 dv=0 dx=0 dy=0 dh=0 dv=0
PairPos2: "'kern' Horizontal Kerning in Latin lookup 0 per glyph data 1" W dx=0 dy=0 dh=-20 dv=0 dx=0 dy=0 dh=0 dv=0
PairPos2: "'kern' Horizontal Kerning in Latin lookup 0 per glyph data 1" V dx=0 dy=0 dh=-30 dv=0 dx=0 dy=0 dh=0 dv=0
PairPos2: "'kern' Horizontal Kerning in Latin lookup 0 per glyph data 1" T dx=0 dy=0 dh=-40 dv=0 dx=0 dy=0 dh=0 dv=0
PairPos2: "'kern' Horizontal Kerning in Latin lookup 0 per glyph data 1" quotesingle dx=0 dy=0 dh=-70 dv=0 dx=0 dy=0 dh=0 dv=0
PairPos2: "'kern' Horizontal Kerning in Latin lookup 0 per glyph data 1" quotedbl dx=0 dy=0 dh=-70 dv=0 dx=0 dy=0 dh=0 dv=0
EndChar

StartChar: Aring
Encoding: 197 197 133
Width: 548
GlyphClass: 2
Flags: W
LayerCount: 2
Fore
SplineSet
123 0 m 1,0,-1
 35 0 l 1,1,-1
 201 700 l 1,2,-1
 347 700 l 1,3,-1
 513 0 l 1,4,-1
 425 0 l 1,5,-1
 384 177 l 1,6,-1
 164 177 l 1,7,-1
 123 0 l 1,0,-1
367 247 m 1,8,-1
 277 636 l 1,9,-1
 271 636 l 1,10,-1
 180 247 l 1,11,-1
 367 247 l 1,8,-1
274 847 m 128,-1,13
 258 847 258 847 249.5 840.5 c 128,-1,14
 241 834 241 834 241 812 c 128,-1,15
 241 790 241 790 249 783.5 c 128,-1,16
 257 777 257 777 271 777 c 128,-1,17
 285 777 285 777 291 778 c 0,18,19
 307 782 307 782 307 808 c 128,-1,20
 307 834 307 834 298.5 840.5 c 128,-1,12
 290 847 290 847 274 847 c 128,-1,13
274 896 m 128,-1,22
 319 896 319 896 340 880 c 128,-1,23
 361 864 361 864 361 812 c 128,-1,24
 361 760 361 760 340 744 c 128,-1,25
 319 728 319 728 274 728 c 128,-1,26
 229 728 229 728 208 744 c 128,-1,27
 187 760 187 760 187 812 c 128,-1,28
 187 864 187 864 208 880 c 128,-1,21
 229 896 229 896 274 896 c 128,-1,22
EndSplineSet
PairPos2: "'kern' Horizontal Kerning in Latin lookup 0 per glyph data 1" quotedblright dx=0 dy=0 dh=-70 dv=0 dx=0 dy=0 dh=0 dv=0
PairPos2: "'kern' Horizontal Kerning in Latin lookup 0 per glyph data 1" quoteright dx=0 dy=0 dh=-70 dv=0 dx=0 dy=0 dh=0 dv=0
PairPos2: "'kern' Horizontal Kerning in Latin lookup 0 per glyph data 1" Ydieresis dx=0 dy=0 dh=-50 dv=0 dx=0 dy=0 dh=0 dv=0
PairPos2: "'kern' Horizontal Kerning in Latin lookup 0 per glyph data 1" ydieresis dx=0 dy=0 dh=-10 dv=0 dx=0 dy=0 dh=0 dv=0
PairPos2: "'kern' Horizontal Kerning in Latin lookup 0 per glyph data 1" yacute dx=0 dy=0 dh=-10 dv=0 dx=0 dy=0 dh=0 dv=0
PairPos2: "'kern' Horizontal Kerning in Latin lookup 0 per glyph data 1" Yacute dx=0 dy=0 dh=-50 dv=0 dx=0 dy=0 dh=0 dv=0
PairPos2: "'kern' Horizontal Kerning in Latin lookup 0 per glyph data 1" y dx=0 dy=0 dh=-10 dv=0 dx=0 dy=0 dh=0 dv=0
PairPos2: "'kern' Horizontal Kerning in Latin lookup 0 per glyph data 1" w dx=0 dy=0 dh=-10 dv=0 dx=0 dy=0 dh=0 dv=0
PairPos2: "'kern' Horizontal Kerning in Latin lookup 0 per glyph data 1" v dx=0 dy=0 dh=-10 dv=0 dx=0 dy=0 dh=0 dv=0
PairPos2: "'kern' Horizontal Kerning in Latin lookup 0 per glyph data 1" Y dx=0 dy=0 dh=-50 dv=0 dx=0 dy=0 dh=0 dv=0
PairPos2: "'kern' Horizontal Kerning in Latin lookup 0 per glyph data 1" W dx=0 dy=0 dh=-20 dv=0 dx=0 dy=0 dh=0 dv=0
PairPos2: "'kern' Horizontal Kerning in Latin lookup 0 per glyph data 1" V dx=0 dy=0 dh=-30 dv=0 dx=0 dy=0 dh=0 dv=0
PairPos2: "'kern' Horizontal Kerning in Latin lookup 0 per glyph data 1" T dx=0 dy=0 dh=-40 dv=0 dx=0 dy=0 dh=0 dv=0
PairPos2: "'kern' Horizontal Kerning in Latin lookup 0 per glyph data 1" quotesingle dx=0 dy=0 dh=-70 dv=0 dx=0 dy=0 dh=0 dv=0
PairPos2: "'kern' Horizontal Kerning in Latin lookup 0 per glyph data 1" quotedbl dx=0 dy=0 dh=-70 dv=0 dx=0 dy=0 dh=0 dv=0
EndChar

StartChar: AE
Encoding: 198 198 134
Width: 756
GlyphClass: 2
Flags: W
LayerCount: 2
Fore
SplineSet
459 630 m 1,0,-1
 459 346 l 1,1,-1
 676 346 l 1,2,-1
 676 276 l 1,3,-1
 459 276 l 1,4,-1
 459 70 l 1,5,-1
 716 70 l 1,6,-1
 716 0 l 1,7,-1
 373 0 l 1,8,-1
 373 276 l 1,9,-1
 195 276 l 1,10,-1
 88 0 l 1,11,-1
 0 0 l 1,12,-1
 275 700 l 1,13,-1
 706 700 l 1,14,-1
 696 630 l 1,15,-1
 459 630 l 1,0,-1
373 346 m 1,16,-1
 373 630 l 1,17,-1
 332 630 l 1,18,-1
 222 346 l 1,19,-1
 373 346 l 1,16,-1
EndSplineSet
EndChar

StartChar: Ccedilla
Encoding: 199 199 135
Width: 479
GlyphClass: 2
Flags: W
LayerCount: 2
Fore
SplineSet
215 704.5 m 128,-1,1
 249 712 249 712 308.5 712 c 128,-1,2
 368 712 368 712 426 694 c 1,3,-1
 411 629 l 1,4,5
 361 641 361 641 312.5 641 c 128,-1,6
 264 641 264 641 240 637 c 128,-1,7
 216 633 216 633 201.5 623 c 128,-1,8
 187 613 187 613 178.5 604 c 128,-1,9
 170 595 170 595 166 576 c 0,10,11
 162 552 162 552 162 507 c 2,12,-1
 162 193 l 2,13,14
 162 113 162 113 178 96 c 0,15,16
 204 69 204 69 234 64 c 128,-1,17
 264 59 264 59 311 59 c 128,-1,18
 358 59 358 59 420 75 c 1,19,-1
 439 16 l 1,20,21
 372 -12 372 -12 296 -12 c 2,22,-1
 280 -12 l 1,23,-1
 275 -56 l 1,24,-1
 287 -56 l 2,25,26
 330 -56 330 -56 345 -72.5 c 128,-1,27
 360 -89 360 -89 360 -121 c 128,-1,28
 360 -153 360 -153 341.5 -173.5 c 128,-1,29
 323 -194 323 -194 276 -194 c 128,-1,30
 229 -194 229 -194 198 -177 c 1,31,-1
 208 -142 l 1,32,33
 242 -150 242 -150 259 -150 c 128,-1,34
 276 -150 276 -150 284.5 -145.5 c 128,-1,35
 293 -141 293 -141 294 -136 c 128,-1,36
 295 -131 295 -131 295 -122.5 c 128,-1,37
 295 -114 295 -114 294 -109.5 c 128,-1,38
 293 -105 293 -105 286 -99.5 c 128,-1,39
 279 -94 279 -94 266 -94 c 2,40,-1
 246 -94 l 1,41,-1
 231 -70 l 1,42,-1
 239 -9 l 1,43,44
 186 -5 186 -5 165 8 c 128,-1,45
 144 21 144 21 132 29 c 128,-1,46
 120 37 120 37 111 54.5 c 128,-1,47
 102 72 102 72 96 84.5 c 128,-1,48
 90 97 90 97 86 123.5 c 128,-1,49
 82 150 82 150 79.5 167.5 c 128,-1,50
 77 185 77 185 76 221 c 128,-1,51
 75 257 75 257 75 280 c 2,52,-1
 75 349 l 2,53,54
 75 564 75 564 93 604 c 0,55,56
 102 625 102 625 117 651.5 c 128,-1,57
 132 678 132 678 156.5 687.5 c 128,-1,0
 181 697 181 697 215 704.5 c 128,-1,1
EndSplineSet
EndChar

StartChar: Egrave
Encoding: 200 200 136
Width: 473
GlyphClass: 2
Flags: W
LayerCount: 2
Fore
SplineSet
90 0 m 1,0,-1
 90 700 l 1,1,-1
 423 700 l 1,2,-1
 413 630 l 1,3,-1
 176 630 l 1,4,-1
 176 386 l 1,5,-1
 393 386 l 1,6,-1
 393 316 l 1,7,-1
 176 316 l 1,8,-1
 176 70 l 1,9,-1
 433 70 l 1,10,-1
 433 0 l 1,11,-1
 90 0 l 1,0,-1
372 765 m 1,12,-1
 349 731 l 1,13,-1
 161 834 l 1,14,-1
 207 901 l 1,15,-1
 372 765 l 1,12,-1
EndSplineSet
EndChar

StartChar: Eacute
Encoding: 201 201 137
Width: 473
GlyphClass: 2
Flags: W
LayerCount: 2
Fore
SplineSet
90 0 m 1,0,-1
 90 700 l 1,1,-1
 423 700 l 1,2,-1
 413 630 l 1,3,-1
 176 630 l 1,4,-1
 176 386 l 1,5,-1
 393 386 l 1,6,-1
 393 316 l 1,7,-1
 176 316 l 1,8,-1
 176 70 l 1,9,-1
 433 70 l 1,10,-1
 433 0 l 1,11,-1
 90 0 l 1,0,-1
194 731 m 1,12,-1
 171 765 l 1,13,-1
 336 901 l 1,14,-1
 382 834 l 1,15,-1
 194 731 l 1,12,-1
EndSplineSet
EndChar

StartChar: Ecircumflex
Encoding: 202 202 138
Width: 473
GlyphClass: 2
Flags: W
LayerCount: 2
Fore
SplineSet
90 0 m 1,0,-1
 90 700 l 1,1,-1
 423 700 l 1,2,-1
 413 630 l 1,3,-1
 176 630 l 1,4,-1
 176 386 l 1,5,-1
 393 386 l 1,6,-1
 393 316 l 1,7,-1
 176 316 l 1,8,-1
 176 70 l 1,9,-1
 433 70 l 1,10,-1
 433 0 l 1,11,-1
 90 0 l 1,0,-1
400 775 m 1,12,-1
 369 738 l 1,13,-1
 266 805 l 1,14,-1
 163 738 l 1,15,-1
 133 775 l 1,16,-1
 266 891 l 1,17,-1
 400 775 l 1,12,-1
EndSplineSet
EndChar

StartChar: Edieresis
Encoding: 203 203 139
Width: 473
GlyphClass: 2
Flags: W
LayerCount: 2
Fore
SplineSet
90 0 m 1,0,-1
 90 700 l 1,1,-1
 423 700 l 1,2,-1
 413 630 l 1,3,-1
 176 630 l 1,4,-1
 176 386 l 1,5,-1
 393 386 l 1,6,-1
 393 316 l 1,7,-1
 176 316 l 1,8,-1
 176 70 l 1,9,-1
 433 70 l 1,10,-1
 433 0 l 1,11,-1
 90 0 l 1,0,-1
171 862 m 128,-1,13
 186 862 186 862 193 861 c 128,-1,14
 200 860 200 860 208 856 c 0,15,16
 223 848 223 848 223 820.5 c 128,-1,17
 223 793 223 793 220 782.5 c 128,-1,18
 217 772 217 772 208.5 767.5 c 128,-1,19
 200 763 200 763 193 762 c 128,-1,20
 186 761 186 761 171 761 c 128,-1,21
 156 761 156 761 149 762 c 128,-1,22
 142 763 142 763 134 768 c 1,23,24
 119 775 119 775 119 802.5 c 128,-1,25
 119 830 119 830 122 840.5 c 128,-1,26
 125 851 125 851 133.5 855.5 c 128,-1,27
 142 860 142 860 149 861 c 128,-1,12
 156 862 156 862 171 862 c 128,-1,13
351 862 m 128,-1,29
 366 862 366 862 373 861 c 128,-1,30
 380 860 380 860 388 856 c 0,31,32
 403 848 403 848 403 820.5 c 128,-1,33
 403 793 403 793 400 782.5 c 128,-1,34
 397 772 397 772 388.5 767.5 c 128,-1,35
 380 763 380 763 373 762 c 128,-1,36
 366 761 366 761 351 761 c 128,-1,37
 336 761 336 761 329 762 c 128,-1,38
 322 763 322 763 314 768 c 1,39,40
 299 775 299 775 299 802.5 c 128,-1,41
 299 830 299 830 302 840.5 c 128,-1,42
 305 851 305 851 313.5 855.5 c 128,-1,43
 322 860 322 860 329 861 c 128,-1,28
 336 862 336 862 351 862 c 128,-1,29
EndSplineSet
EndChar

StartChar: Igrave
Encoding: 204 204 140
Width: 266
GlyphClass: 2
Flags: W
LayerCount: 2
Fore
SplineSet
90 700 m 1,0,-1
 176 700 l 1,1,-1
 176 0 l 1,2,-1
 90 0 l 1,3,-1
 90 700 l 1,0,-1
239 765 m 1,4,-1
 216 731 l 1,5,-1
 28 834 l 1,6,-1
 74 901 l 1,7,-1
 239 765 l 1,4,-1
EndSplineSet
EndChar

StartChar: Iacute
Encoding: 205 205 141
Width: 266
GlyphClass: 2
Flags: W
LayerCount: 2
Fore
SplineSet
90 700 m 1,0,-1
 176 700 l 1,1,-1
 176 0 l 1,2,-1
 90 0 l 1,3,-1
 90 700 l 1,0,-1
51 731 m 1,4,-1
 28 765 l 1,5,-1
 193 901 l 1,6,-1
 239 834 l 1,7,-1
 51 731 l 1,4,-1
EndSplineSet
EndChar

StartChar: Icircumflex
Encoding: 206 206 142
Width: 266
GlyphClass: 2
Flags: W
LayerCount: 2
Fore
SplineSet
90 700 m 1,0,-1
 176 700 l 1,1,-1
 176 0 l 1,2,-1
 90 0 l 1,3,-1
 90 700 l 1,0,-1
267 775 m 1,4,-1
 236 738 l 1,5,-1
 133 805 l 1,6,-1
 30 738 l 1,7,-1
 0 775 l 1,8,-1
 133 891 l 1,9,-1
 267 775 l 1,4,-1
EndSplineSet
EndChar

StartChar: Idieresis
Encoding: 207 207 143
Width: 266
GlyphClass: 2
Flags: W
LayerCount: 2
Fore
SplineSet
90 700 m 1,0,-1
 176 700 l 1,1,-1
 176 0 l 1,2,-1
 90 0 l 1,3,-1
 90 700 l 1,0,-1
43 862 m 128,-1,5
 58 862 58 862 65 861 c 128,-1,6
 72 860 72 860 80 856 c 0,7,8
 95 848 95 848 95 820.5 c 128,-1,9
 95 793 95 793 92 782.5 c 128,-1,10
 89 772 89 772 80.5 767.5 c 128,-1,11
 72 763 72 763 65 762 c 128,-1,12
 58 761 58 761 43 761 c 128,-1,13
 28 761 28 761 21 762 c 128,-1,14
 14 763 14 763 6 768 c 1,15,16
 -9 775 -9 775 -9 802.5 c 128,-1,17
 -9 830 -9 830 -6 840.5 c 128,-1,18
 -3 851 -3 851 5.5 855.5 c 128,-1,19
 14 860 14 860 21 861 c 128,-1,4
 28 862 28 862 43 862 c 128,-1,5
223 862 m 128,-1,21
 238 862 238 862 245 861 c 128,-1,22
 252 860 252 860 260 856 c 0,23,24
 275 848 275 848 275 820.5 c 128,-1,25
 275 793 275 793 272 782.5 c 128,-1,26
 269 772 269 772 260.5 767.5 c 128,-1,27
 252 763 252 763 245 762 c 128,-1,28
 238 761 238 761 223 761 c 128,-1,29
 208 761 208 761 201 762 c 128,-1,30
 194 763 194 763 186 768 c 1,31,32
 171 775 171 775 171 802.5 c 128,-1,33
 171 830 171 830 174 840.5 c 128,-1,34
 177 851 177 851 185.5 855.5 c 128,-1,35
 194 860 194 860 201 861 c 128,-1,20
 208 862 208 862 223 862 c 128,-1,21
EndSplineSet
EndChar

StartChar: Eth
Encoding: 208 208 144
Width: 587
GlyphClass: 2
Flags: W
LayerCount: 2
Fore
SplineSet
36 321 m 1,0,-1
 36 381 l 1,1,-1
 90 381 l 1,2,-1
 90 700 l 1,3,-1
 290 700 l 2,4,5
 371 700 371 700 430 678 c 0,6,7
 455 669 455 669 470 644.5 c 128,-1,8
 485 620 485 620 494 600 c 128,-1,9
 503 580 503 580 506 534 c 0,10,11
 512 460 512 460 512 355.5 c 128,-1,12
 512 251 512 251 510 208 c 128,-1,13
 508 165 508 165 497.5 113.5 c 128,-1,14
 487 62 487 62 463 44 c 0,15,16
 404 0 404 0 290 0 c 2,17,-1
 90 0 l 1,18,-1
 90 321 l 1,19,-1
 36 321 l 1,0,-1
291 628 m 2,20,-1
 176 628 l 1,21,-1
 176 381 l 1,22,-1
 316 381 l 1,23,-1
 316 321 l 1,24,-1
 176 321 l 1,25,-1
 176 74 l 1,26,-1
 291 74 l 2,27,28
 360 74 360 74 396 97 c 0,29,30
 421 113 421 113 424 160 c 0,31,32
 425 175 425 175 425 205 c 2,33,-1
 425 497 l 2,34,35
 425 527 425 527 424 541.5 c 128,-1,36
 423 556 423 556 416.5 576 c 128,-1,37
 410 596 410 596 396 605 c 0,38,39
 360 628 360 628 291 628 c 2,20,-1
EndSplineSet
EndChar

StartChar: Ntilde
Encoding: 209 209 145
Width: 597
GlyphClass: 2
Flags: W
LayerCount: 2
Fore
SplineSet
90 700 m 1,0,-1
 216 700 l 1,1,-1
 417 116 l 1,2,-1
 423 116 l 1,3,-1
 423 700 l 1,4,-1
 507 700 l 1,5,-1
 507 0 l 1,6,-1
 381 0 l 1,7,-1
 180 584 l 1,8,-1
 174 584 l 1,9,-1
 174 0 l 1,10,-1
 90 0 l 1,11,-1
 90 700 l 1,0,-1
386.5 774 m 128,-1,13
 369 765 369 765 350.5 765 c 128,-1,14
 332 765 332 765 299.5 778.5 c 128,-1,15
 267 792 267 792 245 792 c 128,-1,16
 223 792 223 792 192 772 c 1,17,-1
 170 810 l 1,18,19
 199 839 199 839 216.5 848 c 128,-1,20
 234 857 234 857 252.5 857 c 128,-1,21
 271 857 271 857 303.5 843.5 c 128,-1,22
 336 830 336 830 358 830 c 128,-1,23
 380 830 380 830 411 850 c 1,24,-1
 433 812 l 1,25,12
 404 783 404 783 386.5 774 c 128,-1,13
EndSplineSet
EndChar

StartChar: Ograve
Encoding: 210 210 146
Width: 593
GlyphClass: 2
Flags: W
LayerCount: 2
Fore
SplineSet
377.5 -5 m 128,-1,1
 343 -12 343 -12 303 -12 c 128,-1,2
 263 -12 263 -12 236.5 -9.5 c 128,-1,3
 210 -7 210 -7 189 0.5 c 128,-1,4
 168 8 168 8 152 15 c 128,-1,5
 136 22 136 22 123.5 39 c 128,-1,6
 111 56 111 56 103 68 c 128,-1,7
 95 80 95 80 89.5 107 c 128,-1,8
 84 134 84 134 81 152.5 c 128,-1,9
 78 171 78 171 77 210 c 0,10,11
 75 286 75 286 75 353 c 128,-1,12
 75 420 75 420 76 454 c 128,-1,13
 77 488 77 488 80.5 536 c 128,-1,14
 84 584 84 584 93 604.5 c 128,-1,15
 102 625 102 625 117 651.5 c 128,-1,16
 132 678 132 678 156 688 c 0,17,18
 220 712 220 712 291 712 c 128,-1,19
 362 712 362 712 403.5 697.5 c 128,-1,20
 445 683 445 683 469 663 c 128,-1,21
 493 643 493 643 503.5 589 c 128,-1,22
 514 535 514 535 516 491 c 128,-1,23
 518 447 518 447 518 362.5 c 128,-1,24
 518 278 518 278 517 244 c 128,-1,25
 516 210 516 210 512.5 162 c 128,-1,26
 509 114 509 114 500 93.5 c 128,-1,27
 491 73 491 73 476 47 c 128,-1,28
 461 21 461 21 436.5 11.5 c 128,-1,0
 412 2 412 2 377.5 -5 c 128,-1,1
431 193 m 2,29,-1
 431 507 l 2,30,31
 431 587 431 587 414 604 c 0,32,33
 389 631 389 631 359.5 636 c 128,-1,34
 330 641 330 641 297 641 c 128,-1,35
 264 641 264 641 240 637 c 128,-1,36
 216 633 216 633 201.5 623 c 128,-1,37
 187 613 187 613 178.5 604 c 128,-1,38
 170 595 170 595 166 576 c 0,39,40
 162 552 162 552 162 507 c 2,41,-1
 162 193 l 2,42,43
 162 113 162 113 178 96 c 0,44,45
 204 69 204 69 234 64 c 128,-1,46
 264 59 264 59 297 59 c 128,-1,47
 330 59 330 59 353.5 63 c 128,-1,48
 377 67 377 67 391.5 77 c 128,-1,49
 406 87 406 87 414.5 96 c 128,-1,50
 423 105 423 105 426 124 c 0,51,52
 431 148 431 148 431 193 c 2,29,-1
402 765 m 1,53,-1
 379 731 l 1,54,-1
 191 834 l 1,55,-1
 237 901 l 1,56,-1
 402 765 l 1,53,-1
EndSplineSet
EndChar

StartChar: Oacute
Encoding: 211 211 147
Width: 593
GlyphClass: 2
Flags: W
LayerCount: 2
Fore
SplineSet
377.5 -5 m 128,-1,1
 343 -12 343 -12 303 -12 c 128,-1,2
 263 -12 263 -12 236.5 -9.5 c 128,-1,3
 210 -7 210 -7 189 0.5 c 128,-1,4
 168 8 168 8 152 15 c 128,-1,5
 136 22 136 22 123.5 39 c 128,-1,6
 111 56 111 56 103 68 c 128,-1,7
 95 80 95 80 89.5 107 c 128,-1,8
 84 134 84 134 81 152.5 c 128,-1,9
 78 171 78 171 77 210 c 0,10,11
 75 286 75 286 75 353 c 128,-1,12
 75 420 75 420 76 454 c 128,-1,13
 77 488 77 488 80.5 536 c 128,-1,14
 84 584 84 584 93 604.5 c 128,-1,15
 102 625 102 625 117 651.5 c 128,-1,16
 132 678 132 678 156 688 c 0,17,18
 220 712 220 712 291 712 c 128,-1,19
 362 712 362 712 403.5 697.5 c 128,-1,20
 445 683 445 683 469 663 c 128,-1,21
 493 643 493 643 503.5 589 c 128,-1,22
 514 535 514 535 516 491 c 128,-1,23
 518 447 518 447 518 362.5 c 128,-1,24
 518 278 518 278 517 244 c 128,-1,25
 516 210 516 210 512.5 162 c 128,-1,26
 509 114 509 114 500 93.5 c 128,-1,27
 491 73 491 73 476 47 c 128,-1,28
 461 21 461 21 436.5 11.5 c 128,-1,0
 412 2 412 2 377.5 -5 c 128,-1,1
431 193 m 2,29,-1
 431 507 l 2,30,31
 431 587 431 587 414 604 c 0,32,33
 389 631 389 631 359.5 636 c 128,-1,34
 330 641 330 641 297 641 c 128,-1,35
 264 641 264 641 240 637 c 128,-1,36
 216 633 216 633 201.5 623 c 128,-1,37
 187 613 187 613 178.5 604 c 128,-1,38
 170 595 170 595 166 576 c 0,39,40
 162 552 162 552 162 507 c 2,41,-1
 162 193 l 2,42,43
 162 113 162 113 178 96 c 0,44,45
 204 69 204 69 234 64 c 128,-1,46
 264 59 264 59 297 59 c 128,-1,47
 330 59 330 59 353.5 63 c 128,-1,48
 377 67 377 67 391.5 77 c 128,-1,49
 406 87 406 87 414.5 96 c 128,-1,50
 423 105 423 105 426 124 c 0,51,52
 431 148 431 148 431 193 c 2,29,-1
224 731 m 1,53,-1
 201 765 l 1,54,-1
 366 901 l 1,55,-1
 412 834 l 1,56,-1
 224 731 l 1,53,-1
EndSplineSet
EndChar

StartChar: Ocircumflex
Encoding: 212 212 148
Width: 593
GlyphClass: 2
Flags: W
LayerCount: 2
Fore
SplineSet
377.5 -5 m 128,-1,1
 343 -12 343 -12 303 -12 c 128,-1,2
 263 -12 263 -12 236.5 -9.5 c 128,-1,3
 210 -7 210 -7 189 0.5 c 128,-1,4
 168 8 168 8 152 15 c 128,-1,5
 136 22 136 22 123.5 39 c 128,-1,6
 111 56 111 56 103 68 c 128,-1,7
 95 80 95 80 89.5 107 c 128,-1,8
 84 134 84 134 81 152.5 c 128,-1,9
 78 171 78 171 77 210 c 0,10,11
 75 286 75 286 75 353 c 128,-1,12
 75 420 75 420 76 454 c 128,-1,13
 77 488 77 488 80.5 536 c 128,-1,14
 84 584 84 584 93 604.5 c 128,-1,15
 102 625 102 625 117 651.5 c 128,-1,16
 132 678 132 678 156 688 c 0,17,18
 220 712 220 712 291 712 c 128,-1,19
 362 712 362 712 403.5 697.5 c 128,-1,20
 445 683 445 683 469 663 c 128,-1,21
 493 643 493 643 503.5 589 c 128,-1,22
 514 535 514 535 516 491 c 128,-1,23
 518 447 518 447 518 362.5 c 128,-1,24
 518 278 518 278 517 244 c 128,-1,25
 516 210 516 210 512.5 162 c 128,-1,26
 509 114 509 114 500 93.5 c 128,-1,27
 491 73 491 73 476 47 c 128,-1,28
 461 21 461 21 436.5 11.5 c 128,-1,0
 412 2 412 2 377.5 -5 c 128,-1,1
431 193 m 2,29,-1
 431 507 l 2,30,31
 431 587 431 587 414 604 c 0,32,33
 389 631 389 631 359.5 636 c 128,-1,34
 330 641 330 641 297 641 c 128,-1,35
 264 641 264 641 240 637 c 128,-1,36
 216 633 216 633 201.5 623 c 128,-1,37
 187 613 187 613 178.5 604 c 128,-1,38
 170 595 170 595 166 576 c 0,39,40
 162 552 162 552 162 507 c 2,41,-1
 162 193 l 2,42,43
 162 113 162 113 178 96 c 0,44,45
 204 69 204 69 234 64 c 128,-1,46
 264 59 264 59 297 59 c 128,-1,47
 330 59 330 59 353.5 63 c 128,-1,48
 377 67 377 67 391.5 77 c 128,-1,49
 406 87 406 87 414.5 96 c 128,-1,50
 423 105 423 105 426 124 c 0,51,52
 431 148 431 148 431 193 c 2,29,-1
430 775 m 1,53,-1
 399 738 l 1,54,-1
 296 805 l 1,55,-1
 193 738 l 1,56,-1
 163 775 l 1,57,-1
 296 891 l 1,58,-1
 430 775 l 1,53,-1
EndSplineSet
EndChar

StartChar: Otilde
Encoding: 213 213 149
Width: 593
GlyphClass: 2
Flags: W
LayerCount: 2
Fore
SplineSet
377.5 -5 m 128,-1,1
 343 -12 343 -12 303 -12 c 128,-1,2
 263 -12 263 -12 236.5 -9.5 c 128,-1,3
 210 -7 210 -7 189 0.5 c 128,-1,4
 168 8 168 8 152 15 c 128,-1,5
 136 22 136 22 123.5 39 c 128,-1,6
 111 56 111 56 103 68 c 128,-1,7
 95 80 95 80 89.5 107 c 128,-1,8
 84 134 84 134 81 152.5 c 128,-1,9
 78 171 78 171 77 210 c 0,10,11
 75 286 75 286 75 353 c 128,-1,12
 75 420 75 420 76 454 c 128,-1,13
 77 488 77 488 80.5 536 c 128,-1,14
 84 584 84 584 93 604.5 c 128,-1,15
 102 625 102 625 117 651.5 c 128,-1,16
 132 678 132 678 156 688 c 0,17,18
 220 712 220 712 291 712 c 128,-1,19
 362 712 362 712 403.5 697.5 c 128,-1,20
 445 683 445 683 469 663 c 128,-1,21
 493 643 493 643 503.5 589 c 128,-1,22
 514 535 514 535 516 491 c 128,-1,23
 518 447 518 447 518 362.5 c 128,-1,24
 518 278 518 278 517 244 c 128,-1,25
 516 210 516 210 512.5 162 c 128,-1,26
 509 114 509 114 500 93.5 c 128,-1,27
 491 73 491 73 476 47 c 128,-1,28
 461 21 461 21 436.5 11.5 c 128,-1,0
 412 2 412 2 377.5 -5 c 128,-1,1
431 193 m 2,29,-1
 431 507 l 2,30,31
 431 587 431 587 414 604 c 0,32,33
 389 631 389 631 359.5 636 c 128,-1,34
 330 641 330 641 297 641 c 128,-1,35
 264 641 264 641 240 637 c 128,-1,36
 216 633 216 633 201.5 623 c 128,-1,37
 187 613 187 613 178.5 604 c 128,-1,38
 170 595 170 595 166 576 c 0,39,40
 162 552 162 552 162 507 c 2,41,-1
 162 193 l 2,42,43
 162 113 162 113 178 96 c 0,44,45
 204 69 204 69 234 64 c 128,-1,46
 264 59 264 59 297 59 c 128,-1,47
 330 59 330 59 353.5 63 c 128,-1,48
 377 67 377 67 391.5 77 c 128,-1,49
 406 87 406 87 414.5 96 c 128,-1,50
 423 105 423 105 426 124 c 0,51,52
 431 148 431 148 431 193 c 2,29,-1
381.5 774 m 128,-1,54
 364 765 364 765 345.5 765 c 128,-1,55
 327 765 327 765 294.5 778.5 c 128,-1,56
 262 792 262 792 240 792 c 128,-1,57
 218 792 218 792 187 772 c 1,58,-1
 165 810 l 1,59,60
 194 839 194 839 211.5 848 c 128,-1,61
 229 857 229 857 247.5 857 c 128,-1,62
 266 857 266 857 298.5 843.5 c 128,-1,63
 331 830 331 830 353 830 c 128,-1,64
 375 830 375 830 406 850 c 1,65,-1
 428 812 l 1,66,53
 399 783 399 783 381.5 774 c 128,-1,54
EndSplineSet
EndChar

StartChar: Odieresis
Encoding: 214 214 150
Width: 593
GlyphClass: 2
Flags: W
LayerCount: 2
Fore
SplineSet
377.5 -5 m 128,-1,1
 343 -12 343 -12 303 -12 c 128,-1,2
 263 -12 263 -12 236.5 -9.5 c 128,-1,3
 210 -7 210 -7 189 0.5 c 128,-1,4
 168 8 168 8 152 15 c 128,-1,5
 136 22 136 22 123.5 39 c 128,-1,6
 111 56 111 56 103 68 c 128,-1,7
 95 80 95 80 89.5 107 c 128,-1,8
 84 134 84 134 81 152.5 c 128,-1,9
 78 171 78 171 77 210 c 0,10,11
 75 286 75 286 75 353 c 128,-1,12
 75 420 75 420 76 454 c 128,-1,13
 77 488 77 488 80.5 536 c 128,-1,14
 84 584 84 584 93 604.5 c 128,-1,15
 102 625 102 625 117 651.5 c 128,-1,16
 132 678 132 678 156 688 c 0,17,18
 220 712 220 712 291 712 c 128,-1,19
 362 712 362 712 403.5 697.5 c 128,-1,20
 445 683 445 683 469 663 c 128,-1,21
 493 643 493 643 503.5 589 c 128,-1,22
 514 535 514 535 516 491 c 128,-1,23
 518 447 518 447 518 362.5 c 128,-1,24
 518 278 518 278 517 244 c 128,-1,25
 516 210 516 210 512.5 162 c 128,-1,26
 509 114 509 114 500 93.5 c 128,-1,27
 491 73 491 73 476 47 c 128,-1,28
 461 21 461 21 436.5 11.5 c 128,-1,0
 412 2 412 2 377.5 -5 c 128,-1,1
431 193 m 2,29,-1
 431 507 l 2,30,31
 431 587 431 587 414 604 c 0,32,33
 389 631 389 631 359.5 636 c 128,-1,34
 330 641 330 641 297 641 c 128,-1,35
 264 641 264 641 240 637 c 128,-1,36
 216 633 216 633 201.5 623 c 128,-1,37
 187 613 187 613 178.5 604 c 128,-1,38
 170 595 170 595 166 576 c 0,39,40
 162 552 162 552 162 507 c 2,41,-1
 162 193 l 2,42,43
 162 113 162 113 178 96 c 0,44,45
 204 69 204 69 234 64 c 128,-1,46
 264 59 264 59 297 59 c 128,-1,47
 330 59 330 59 353.5 63 c 128,-1,48
 377 67 377 67 391.5 77 c 128,-1,49
 406 87 406 87 414.5 96 c 128,-1,50
 423 105 423 105 426 124 c 0,51,52
 431 148 431 148 431 193 c 2,29,-1
206 862 m 128,-1,54
 221 862 221 862 228 861 c 128,-1,55
 235 860 235 860 244 856 c 0,56,57
 258 848 258 848 258 820.5 c 128,-1,58
 258 793 258 793 255 782.5 c 128,-1,59
 252 772 252 772 243.5 767.5 c 128,-1,60
 235 763 235 763 228 762 c 128,-1,61
 221 761 221 761 206 761 c 128,-1,62
 191 761 191 761 184 762 c 128,-1,63
 177 763 177 763 168 768 c 0,64,65
 154 775 154 775 154 802.5 c 128,-1,66
 154 830 154 830 157 840.5 c 128,-1,67
 160 851 160 851 168.5 855.5 c 128,-1,68
 177 860 177 860 184 861 c 128,-1,53
 191 862 191 862 206 862 c 128,-1,54
386 862 m 128,-1,70
 401 862 401 862 408 861 c 128,-1,71
 415 860 415 860 424 856 c 0,72,73
 438 848 438 848 438 820.5 c 128,-1,74
 438 793 438 793 435 782.5 c 128,-1,75
 432 772 432 772 423.5 767.5 c 128,-1,76
 415 763 415 763 408 762 c 128,-1,77
 401 761 401 761 386 761 c 128,-1,78
 371 761 371 761 364 762 c 128,-1,79
 357 763 357 763 348 768 c 0,80,81
 334 775 334 775 334 802.5 c 128,-1,82
 334 830 334 830 337 840.5 c 128,-1,83
 340 851 340 851 348.5 855.5 c 128,-1,84
 357 860 357 860 364 861 c 128,-1,69
 371 862 371 862 386 862 c 128,-1,70
EndSplineSet
EndChar

StartChar: multiply
Encoding: 215 215 151
Width: 500
GlyphClass: 2
Flags: W
LayerCount: 2
Fore
SplineSet
70 449 m 1,0,-1
 118 497 l 1,1,-1
 250 365 l 1,2,-1
 382 497 l 1,3,-1
 430 449 l 1,4,-1
 298 317 l 1,5,-1
 430 185 l 1,6,-1
 382 137 l 1,7,-1
 250 269 l 1,8,-1
 118 137 l 1,9,-1
 70 185 l 1,10,-1
 202 317 l 1,11,-1
 70 449 l 1,0,-1
EndSplineSet
EndChar

StartChar: Oslash
Encoding: 216 216 152
Width: 593
GlyphClass: 2
Flags: W
LayerCount: 2
Fore
SplineSet
76 454 m 128,-1,1
 77 488 77 488 80.5 536 c 128,-1,2
 84 584 84 584 93 604.5 c 128,-1,3
 102 625 102 625 117 651.5 c 128,-1,4
 132 678 132 678 156 688 c 0,5,6
 220 712 220 712 296 712 c 0,7,8
 326 712 326 712 352 709 c 1,9,-1
 361 750 l 1,10,-1
 406 750 l 1,11,-1
 395 702 l 1,12,13
 443 689 443 689 465 664 c 0,14,15
 478 648 478 648 487 634.5 c 128,-1,16
 496 621 496 621 502 594.5 c 128,-1,17
 508 568 508 568 511 548.5 c 128,-1,18
 514 529 514 529 516 491 c 0,19,20
 518 428 518 428 518 353 c 128,-1,21
 518 278 518 278 517 244 c 128,-1,22
 516 210 516 210 512.5 162 c 128,-1,23
 509 114 509 114 500 93.5 c 128,-1,24
 491 73 491 73 476 47 c 128,-1,25
 461 21 461 21 436 12 c 0,26,27
 376 -12 376 -12 296 -12 c 0,28,29
 266 -12 266 -12 240 -9 c 1,30,-1
 231 -54 l 1,31,-1
 186 -54 l 1,32,-1
 197 -2 l 1,33,34
 153 8 153 8 120 41 c 0,35,36
 102 59 102 59 85 127 c 0,37,38
 75 167 75 167 75 293.5 c 128,-1,0
 75 420 75 420 76 454 c 128,-1,1
431 193 m 2,39,-1
 431 507 l 2,40,41
 431 588 431 588 409 610 c 0,42,43
 398 621 398 621 379 629 c 1,44,-1
 256 61 l 1,45,46
 268 59 268 59 299 59 c 128,-1,47
 330 59 330 59 353.5 63 c 128,-1,48
 377 67 377 67 391.5 77 c 128,-1,49
 406 87 406 87 414.5 96 c 128,-1,50
 423 105 423 105 426 124 c 0,51,52
 431 148 431 148 431 193 c 2,39,-1
162 507 m 2,53,-1
 162 193 l 2,54,55
 162 112 162 112 184 90 c 0,56,57
 195 78 195 78 213 71 c 1,58,-1
 337 639 l 1,59,60
 313 641 313 641 288.5 641 c 128,-1,61
 264 641 264 641 240 637 c 128,-1,62
 216 633 216 633 201.5 623 c 128,-1,63
 187 613 187 613 178.5 604 c 128,-1,64
 170 595 170 595 166 576 c 0,65,66
 162 552 162 552 162 507 c 2,53,-1
EndSplineSet
EndChar

StartChar: Ugrave
Encoding: 217 217 153
Width: 611
GlyphClass: 2
Flags: W
LayerCount: 2
Fore
SplineSet
440 193 m 2,0,-1
 440 700 l 1,1,-1
 526 700 l 1,2,-1
 526 349 l 2,3,4
 526 135 526 135 508 94 c 0,5,6
 500 74 500 74 484.5 47.5 c 128,-1,7
 469 21 469 21 445 11.5 c 128,-1,8
 421 2 421 2 386.5 -5 c 128,-1,9
 352 -12 352 -12 305 -12 c 128,-1,10
 258 -12 258 -12 224 -5 c 128,-1,11
 190 2 190 2 165.5 11.5 c 128,-1,12
 141 21 141 21 126 47.5 c 128,-1,13
 111 74 111 74 102.5 94 c 128,-1,14
 94 114 94 114 90 162 c 0,15,16
 85 222 85 222 85 349 c 2,17,-1
 85 700 l 1,18,-1
 171 700 l 1,19,-1
 171 193 l 2,20,21
 171 163 171 163 172 148.5 c 128,-1,22
 173 134 173 134 179.5 114 c 128,-1,23
 186 94 186 94 200 85 c 128,-1,24
 214 76 214 76 240.5 69 c 128,-1,25
 267 62 267 62 306 62 c 128,-1,26
 345 62 345 62 371 69 c 128,-1,27
 397 76 397 76 411 85 c 128,-1,28
 425 94 425 94 431.5 114 c 128,-1,29
 438 134 438 134 439 148.5 c 128,-1,30
 440 163 440 163 440 193 c 2,0,-1
411 765 m 1,31,-1
 388 731 l 1,32,-1
 200 834 l 1,33,-1
 246 901 l 1,34,-1
 411 765 l 1,31,-1
EndSplineSet
EndChar

StartChar: Uacute
Encoding: 218 218 154
Width: 611
GlyphClass: 2
Flags: W
LayerCount: 2
Fore
SplineSet
440 193 m 2,0,-1
 440 700 l 1,1,-1
 526 700 l 1,2,-1
 526 349 l 2,3,4
 526 135 526 135 508 94 c 0,5,6
 500 74 500 74 484.5 47.5 c 128,-1,7
 469 21 469 21 445 11.5 c 128,-1,8
 421 2 421 2 386.5 -5 c 128,-1,9
 352 -12 352 -12 305 -12 c 128,-1,10
 258 -12 258 -12 224 -5 c 128,-1,11
 190 2 190 2 165.5 11.5 c 128,-1,12
 141 21 141 21 126 47.5 c 128,-1,13
 111 74 111 74 102.5 94 c 128,-1,14
 94 114 94 114 90 162 c 0,15,16
 85 222 85 222 85 349 c 2,17,-1
 85 700 l 1,18,-1
 171 700 l 1,19,-1
 171 193 l 2,20,21
 171 163 171 163 172 148.5 c 128,-1,22
 173 134 173 134 179.5 114 c 128,-1,23
 186 94 186 94 200 85 c 128,-1,24
 214 76 214 76 240.5 69 c 128,-1,25
 267 62 267 62 306 62 c 128,-1,26
 345 62 345 62 371 69 c 128,-1,27
 397 76 397 76 411 85 c 128,-1,28
 425 94 425 94 431.5 114 c 128,-1,29
 438 134 438 134 439 148.5 c 128,-1,30
 440 163 440 163 440 193 c 2,0,-1
253 731 m 1,31,-1
 230 765 l 1,32,-1
 395 901 l 1,33,-1
 441 834 l 1,34,-1
 253 731 l 1,31,-1
EndSplineSet
EndChar

StartChar: Ucircumflex
Encoding: 219 219 155
Width: 611
GlyphClass: 2
Flags: W
LayerCount: 2
Fore
SplineSet
440 193 m 2,0,-1
 440 700 l 1,1,-1
 526 700 l 1,2,-1
 526 349 l 2,3,4
 526 135 526 135 508 94 c 0,5,6
 500 74 500 74 484.5 47.5 c 128,-1,7
 469 21 469 21 445 11.5 c 128,-1,8
 421 2 421 2 386.5 -5 c 128,-1,9
 352 -12 352 -12 305 -12 c 128,-1,10
 258 -12 258 -12 224 -5 c 128,-1,11
 190 2 190 2 165.5 11.5 c 128,-1,12
 141 21 141 21 126 47.5 c 128,-1,13
 111 74 111 74 102.5 94 c 128,-1,14
 94 114 94 114 90 162 c 0,15,16
 85 222 85 222 85 349 c 2,17,-1
 85 700 l 1,18,-1
 171 700 l 1,19,-1
 171 193 l 2,20,21
 171 163 171 163 172 148.5 c 128,-1,22
 173 134 173 134 179.5 114 c 128,-1,23
 186 94 186 94 200 85 c 128,-1,24
 214 76 214 76 240.5 69 c 128,-1,25
 267 62 267 62 306 62 c 128,-1,26
 345 62 345 62 371 69 c 128,-1,27
 397 76 397 76 411 85 c 128,-1,28
 425 94 425 94 431.5 114 c 128,-1,29
 438 134 438 134 439 148.5 c 128,-1,30
 440 163 440 163 440 193 c 2,0,-1
439 775 m 1,31,-1
 408 738 l 1,32,-1
 305 805 l 1,33,-1
 202 738 l 1,34,-1
 172 775 l 1,35,-1
 305 891 l 1,36,-1
 439 775 l 1,31,-1
EndSplineSet
EndChar

StartChar: Udieresis
Encoding: 220 220 156
Width: 611
GlyphClass: 2
Flags: W
LayerCount: 2
Fore
SplineSet
440 193 m 2,0,-1
 440 700 l 1,1,-1
 526 700 l 1,2,-1
 526 349 l 2,3,4
 526 135 526 135 508 94 c 0,5,6
 500 74 500 74 484.5 47.5 c 128,-1,7
 469 21 469 21 445 11.5 c 128,-1,8
 421 2 421 2 386.5 -5 c 128,-1,9
 352 -12 352 -12 305 -12 c 128,-1,10
 258 -12 258 -12 224 -5 c 128,-1,11
 190 2 190 2 165.5 11.5 c 128,-1,12
 141 21 141 21 126 47.5 c 128,-1,13
 111 74 111 74 102.5 94 c 128,-1,14
 94 114 94 114 90 162 c 0,15,16
 85 222 85 222 85 349 c 2,17,-1
 85 700 l 1,18,-1
 171 700 l 1,19,-1
 171 193 l 2,20,21
 171 163 171 163 172 148.5 c 128,-1,22
 173 134 173 134 179.5 114 c 128,-1,23
 186 94 186 94 200 85 c 128,-1,24
 214 76 214 76 240.5 69 c 128,-1,25
 267 62 267 62 306 62 c 128,-1,26
 345 62 345 62 371 69 c 128,-1,27
 397 76 397 76 411 85 c 128,-1,28
 425 94 425 94 431.5 114 c 128,-1,29
 438 134 438 134 439 148.5 c 128,-1,30
 440 163 440 163 440 193 c 2,0,-1
215 862 m 128,-1,32
 230 862 230 862 237 861 c 128,-1,33
 244 860 244 860 252 856 c 0,34,35
 267 848 267 848 267 820.5 c 128,-1,36
 267 793 267 793 264 782.5 c 128,-1,37
 261 772 261 772 252.5 767.5 c 128,-1,38
 244 763 244 763 237 762 c 128,-1,39
 230 761 230 761 215 761 c 128,-1,40
 200 761 200 761 193 762 c 128,-1,41
 186 763 186 763 178 768 c 1,42,43
 163 775 163 775 163 802.5 c 128,-1,44
 163 830 163 830 166 840.5 c 128,-1,45
 169 851 169 851 177.5 855.5 c 128,-1,46
 186 860 186 860 193 861 c 128,-1,31
 200 862 200 862 215 862 c 128,-1,32
395 862 m 128,-1,48
 410 862 410 862 417 861 c 128,-1,49
 424 860 424 860 432 856 c 0,50,51
 447 848 447 848 447 820.5 c 128,-1,52
 447 793 447 793 444 782.5 c 128,-1,53
 441 772 441 772 432.5 767.5 c 128,-1,54
 424 763 424 763 417 762 c 128,-1,55
 410 761 410 761 395 761 c 128,-1,56
 380 761 380 761 373 762 c 128,-1,57
 366 763 366 763 358 768 c 1,58,59
 343 775 343 775 343 802.5 c 128,-1,60
 343 830 343 830 346 840.5 c 128,-1,61
 349 851 349 851 357.5 855.5 c 128,-1,62
 366 860 366 860 373 861 c 128,-1,47
 380 862 380 862 395 862 c 128,-1,48
EndSplineSet
EndChar

StartChar: Yacute
Encoding: 221 221 157
Width: 478
GlyphClass: 2
Flags: W
LayerCount: 2
Fore
SplineSet
279 0 m 1,0,-1
 199 0 l 1,1,-1
 199 225 l 1,2,-1
 25 700 l 1,3,-1
 113 700 l 1,4,-1
 236 319 l 1,5,-1
 242 319 l 1,6,-1
 365 700 l 1,7,-1
 453 700 l 1,8,-1
 279 225 l 1,9,-1
 279 0 l 1,0,-1
176 731 m 1,10,-1
 153 765 l 1,11,-1
 318 901 l 1,12,-1
 364 834 l 1,13,-1
 176 731 l 1,10,-1
EndSplineSet
PairPos2: "'kern' Horizontal Kerning in Latin lookup 0 per glyph data 1" ellipsis dx=0 dy=0 dh=-50 dv=0 dx=0 dy=0 dh=0 dv=0
PairPos2: "'kern' Horizontal Kerning in Latin lookup 0 per glyph data 1" quotedblbase dx=0 dy=0 dh=-50 dv=0 dx=0 dy=0 dh=0 dv=0
PairPos2: "'kern' Horizontal Kerning in Latin lookup 0 per glyph data 1" quotesinglbase dx=0 dy=0 dh=-50 dv=0 dx=0 dy=0 dh=0 dv=0
PairPos2: "'kern' Horizontal Kerning in Latin lookup 0 per glyph data 1" scaron dx=0 dy=0 dh=-60 dv=0 dx=0 dy=0 dh=0 dv=0
PairPos2: "'kern' Horizontal Kerning in Latin lookup 0 per glyph data 1" oe dx=0 dy=0 dh=-60 dv=0 dx=0 dy=0 dh=0 dv=0
PairPos2: "'kern' Horizontal Kerning in Latin lookup 0 per glyph data 1" dotlessi dx=0 dy=0 dh=-20 dv=0 dx=0 dy=0 dh=0 dv=0
PairPos2: "'kern' Horizontal Kerning in Latin lookup 0 per glyph data 1" udieresis dx=0 dy=0 dh=-20 dv=0 dx=0 dy=0 dh=0 dv=0
PairPos2: "'kern' Horizontal Kerning in Latin lookup 0 per glyph data 1" ucircumflex dx=0 dy=0 dh=-20 dv=0 dx=0 dy=0 dh=0 dv=0
PairPos2: "'kern' Horizontal Kerning in Latin lookup 0 per glyph data 1" uacute dx=0 dy=0 dh=-20 dv=0 dx=0 dy=0 dh=0 dv=0
PairPos2: "'kern' Horizontal Kerning in Latin lookup 0 per glyph data 1" ugrave dx=0 dy=0 dh=-20 dv=0 dx=0 dy=0 dh=0 dv=0
PairPos2: "'kern' Horizontal Kerning in Latin lookup 0 per glyph data 1" oslash dx=0 dy=0 dh=-60 dv=0 dx=0 dy=0 dh=0 dv=0
PairPos2: "'kern' Horizontal Kerning in Latin lookup 0 per glyph data 1" odieresis dx=0 dy=0 dh=-60 dv=0 dx=0 dy=0 dh=0 dv=0
PairPos2: "'kern' Horizontal Kerning in Latin lookup 0 per glyph data 1" otilde dx=0 dy=0 dh=-60 dv=0 dx=0 dy=0 dh=0 dv=0
PairPos2: "'kern' Horizontal Kerning in Latin lookup 0 per glyph data 1" ocircumflex dx=0 dy=0 dh=-60 dv=0 dx=0 dy=0 dh=0 dv=0
PairPos2: "'kern' Horizontal Kerning in Latin lookup 0 per glyph data 1" oacute dx=0 dy=0 dh=-60 dv=0 dx=0 dy=0 dh=0 dv=0
PairPos2: "'kern' Horizontal Kerning in Latin lookup 0 per glyph data 1" ograve dx=0 dy=0 dh=-60 dv=0 dx=0 dy=0 dh=0 dv=0
PairPos2: "'kern' Horizontal Kerning in Latin lookup 0 per glyph data 1" ntilde dx=0 dy=0 dh=-20 dv=0 dx=0 dy=0 dh=0 dv=0
PairPos2: "'kern' Horizontal Kerning in Latin lookup 0 per glyph data 1" idieresis dx=0 dy=0 dh=-10 dv=0 dx=0 dy=0 dh=0 dv=0
PairPos2: "'kern' Horizontal Kerning in Latin lookup 0 per glyph data 1" icircumflex dx=0 dy=0 dh=-10 dv=0 dx=0 dy=0 dh=0 dv=0
PairPos2: "'kern' Horizontal Kerning in Latin lookup 0 per glyph data 1" iacute dx=0 dy=0 dh=-10 dv=0 dx=0 dy=0 dh=0 dv=0
PairPos2: "'kern' Horizontal Kerning in Latin lookup 0 per glyph data 1" igrave dx=0 dy=0 dh=-10 dv=0 dx=0 dy=0 dh=0 dv=0
PairPos2: "'kern' Horizontal Kerning in Latin lookup 0 per glyph data 1" edieresis dx=0 dy=0 dh=-60 dv=0 dx=0 dy=0 dh=0 dv=0
PairPos2: "'kern' Horizontal Kerning in Latin lookup 0 per glyph data 1" ecircumflex dx=0 dy=0 dh=-60 dv=0 dx=0 dy=0 dh=0 dv=0
PairPos2: "'kern' Horizontal Kerning in Latin lookup 0 per glyph data 1" eacute dx=0 dy=0 dh=-60 dv=0 dx=0 dy=0 dh=0 dv=0
PairPos2: "'kern' Horizontal Kerning in Latin lookup 0 per glyph data 1" egrave dx=0 dy=0 dh=-60 dv=0 dx=0 dy=0 dh=0 dv=0
PairPos2: "'kern' Horizontal Kerning in Latin lookup 0 per glyph data 1" ccedilla dx=0 dy=0 dh=-60 dv=0 dx=0 dy=0 dh=0 dv=0
PairPos2: "'kern' Horizontal Kerning in Latin lookup 0 per glyph data 1" ae dx=0 dy=0 dh=-60 dv=0 dx=0 dy=0 dh=0 dv=0
PairPos2: "'kern' Horizontal Kerning in Latin lookup 0 per glyph data 1" aring dx=0 dy=0 dh=-60 dv=0 dx=0 dy=0 dh=0 dv=0
PairPos2: "'kern' Horizontal Kerning in Latin lookup 0 per glyph data 1" adieresis dx=0 dy=0 dh=-60 dv=0 dx=0 dy=0 dh=0 dv=0
PairPos2: "'kern' Horizontal Kerning in Latin lookup 0 per glyph data 1" atilde dx=0 dy=0 dh=-60 dv=0 dx=0 dy=0 dh=0 dv=0
PairPos2: "'kern' Horizontal Kerning in Latin lookup 0 per glyph data 1" acircumflex dx=0 dy=0 dh=-60 dv=0 dx=0 dy=0 dh=0 dv=0
PairPos2: "'kern' Horizontal Kerning in Latin lookup 0 per glyph data 1" aacute dx=0 dy=0 dh=-60 dv=0 dx=0 dy=0 dh=0 dv=0
PairPos2: "'kern' Horizontal Kerning in Latin lookup 0 per glyph data 1" agrave dx=0 dy=0 dh=-60 dv=0 dx=0 dy=0 dh=0 dv=0
PairPos2: "'kern' Horizontal Kerning in Latin lookup 0 per glyph data 1" AE dx=0 dy=0 dh=-60 dv=0 dx=0 dy=0 dh=0 dv=0
PairPos2: "'kern' Horizontal Kerning in Latin lookup 0 per glyph data 1" Aring dx=0 dy=0 dh=-50 dv=0 dx=0 dy=0 dh=0 dv=0
PairPos2: "'kern' Horizontal Kerning in Latin lookup 0 per glyph data 1" Adieresis dx=0 dy=0 dh=-50 dv=0 dx=0 dy=0 dh=0 dv=0
PairPos2: "'kern' Horizontal Kerning in Latin lookup 0 per glyph data 1" Atilde dx=0 dy=0 dh=-50 dv=0 dx=0 dy=0 dh=0 dv=0
PairPos2: "'kern' Horizontal Kerning in Latin lookup 0 per glyph data 1" Acircumflex dx=0 dy=0 dh=-50 dv=0 dx=0 dy=0 dh=0 dv=0
PairPos2: "'kern' Horizontal Kerning in Latin lookup 0 per glyph data 1" Aacute dx=0 dy=0 dh=-50 dv=0 dx=0 dy=0 dh=0 dv=0
PairPos2: "'kern' Horizontal Kerning in Latin lookup 0 per glyph data 1" Agrave dx=0 dy=0 dh=-50 dv=0 dx=0 dy=0 dh=0 dv=0
PairPos2: "'kern' Horizontal Kerning in Latin lookup 0 per glyph data 1" mu dx=0 dy=0 dh=-20 dv=0 dx=0 dy=0 dh=0 dv=0
PairPos2: "'kern' Horizontal Kerning in Latin lookup 0 per glyph data 1" z dx=0 dy=0 dh=-20 dv=0 dx=0 dy=0 dh=0 dv=0
PairPos2: "'kern' Horizontal Kerning in Latin lookup 0 per glyph data 1" u dx=0 dy=0 dh=-20 dv=0 dx=0 dy=0 dh=0 dv=0
PairPos2: "'kern' Horizontal Kerning in Latin lookup 0 per glyph data 1" t dx=0 dy=0 dh=-20 dv=0 dx=0 dy=0 dh=0 dv=0
PairPos2: "'kern' Horizontal Kerning in Latin lookup 0 per glyph data 1" s dx=0 dy=0 dh=-60 dv=0 dx=0 dy=0 dh=0 dv=0
PairPos2: "'kern' Horizontal Kerning in Latin lookup 0 per glyph data 1" r dx=0 dy=0 dh=-20 dv=0 dx=0 dy=0 dh=0 dv=0
PairPos2: "'kern' Horizontal Kerning in Latin lookup 0 per glyph data 1" q dx=0 dy=0 dh=-60 dv=0 dx=0 dy=0 dh=0 dv=0
PairPos2: "'kern' Horizontal Kerning in Latin lookup 0 per glyph data 1" p dx=0 dy=0 dh=-20 dv=0 dx=0 dy=0 dh=0 dv=0
PairPos2: "'kern' Horizontal Kerning in Latin lookup 0 per glyph data 1" o dx=0 dy=0 dh=-60 dv=0 dx=0 dy=0 dh=0 dv=0
PairPos2: "'kern' Horizontal Kerning in Latin lookup 0 per glyph data 1" n dx=0 dy=0 dh=-20 dv=0 dx=0 dy=0 dh=0 dv=0
PairPos2: "'kern' Horizontal Kerning in Latin lookup 0 per glyph data 1" m dx=0 dy=0 dh=-20 dv=0 dx=0 dy=0 dh=0 dv=0
PairPos2: "'kern' Horizontal Kerning in Latin lookup 0 per glyph data 1" j dx=0 dy=0 dh=-10 dv=0 dx=0 dy=0 dh=0 dv=0
PairPos2: "'kern' Horizontal Kerning in Latin lookup 0 per glyph data 1" i dx=0 dy=0 dh=-10 dv=0 dx=0 dy=0 dh=0 dv=0
PairPos2: "'kern' Horizontal Kerning in Latin lookup 0 per glyph data 1" e dx=0 dy=0 dh=-60 dv=0 dx=0 dy=0 dh=0 dv=0
PairPos2: "'kern' Horizontal Kerning in Latin lookup 0 per glyph data 1" d dx=0 dy=0 dh=-60 dv=0 dx=0 dy=0 dh=0 dv=0
PairPos2: "'kern' Horizontal Kerning in Latin lookup 0 per glyph data 1" c dx=0 dy=0 dh=-60 dv=0 dx=0 dy=0 dh=0 dv=0
PairPos2: "'kern' Horizontal Kerning in Latin lookup 0 per glyph data 1" a dx=0 dy=0 dh=-60 dv=0 dx=0 dy=0 dh=0 dv=0
PairPos2: "'kern' Horizontal Kerning in Latin lookup 0 per glyph data 1" A dx=0 dy=0 dh=-50 dv=0 dx=0 dy=0 dh=0 dv=0
PairPos2: "'kern' Horizontal Kerning in Latin lookup 0 per glyph data 1" period dx=0 dy=0 dh=-50 dv=0 dx=0 dy=0 dh=0 dv=0
PairPos2: "'kern' Horizontal Kerning in Latin lookup 0 per glyph data 1" comma dx=0 dy=0 dh=-50 dv=0 dx=0 dy=0 dh=0 dv=0
EndChar

StartChar: Thorn
Encoding: 222 222 158
Width: 513
GlyphClass: 2
Flags: W
LayerCount: 2
Fore
SplineSet
90 700 m 1,0,-1
 176 700 l 1,1,-1
 176 576 l 1,2,-1
 241 576 l 2,3,4
 361 576 361 576 412 525 c 128,-1,5
 463 474 463 474 463 350 c 128,-1,6
 463 226 463 226 412 175 c 128,-1,7
 361 124 361 124 241 124 c 2,8,-1
 176 124 l 1,9,-1
 176 0 l 1,10,-1
 90 0 l 1,11,-1
 90 700 l 1,0,-1
376 326 m 2,12,-1
 376 374 l 2,13,14
 376 404 376 404 375 418.5 c 128,-1,15
 374 433 374 433 367.5 453 c 128,-1,16
 361 473 361 473 347 482 c 0,17,18
 311 505 311 505 242 505 c 2,19,-1
 176 505 l 1,20,-1
 176 195 l 1,21,-1
 242 195 l 2,22,23
 311 195 311 195 347 218 c 0,24,25
 372 234 372 234 375 282 c 0,26,27
 376 296 376 296 376 326 c 2,12,-1
EndSplineSet
EndChar

StartChar: germandbls
Encoding: 223 223 159
Width: 592
GlyphClass: 2
Flags: W
LayerCount: 2
Fore
SplineSet
251 68 m 1,0,1
 293 53 293 53 337.5 53 c 128,-1,2
 382 53 382 53 401.5 58.5 c 128,-1,3
 421 64 421 64 430.5 83 c 128,-1,4
 440 102 440 102 441.5 120.5 c 128,-1,5
 443 139 443 139 443 171.5 c 128,-1,6
 443 204 443 204 442.5 215.5 c 128,-1,7
 442 227 442 227 440 248 c 128,-1,8
 438 269 438 269 432 282 c 128,-1,9
 426 295 426 295 416 310 c 0,10,11
 398 338 398 338 353 342 c 2,12,-1
 251 352 l 1,13,-1
 251 410 l 1,14,-1
 331 410 l 2,15,16
 386 410 386 410 400 436 c 0,17,18
 406 448 406 448 409.5 457 c 128,-1,19
 413 466 413 466 414 487 c 0,20,21
 416 529 416 529 416 560 c 128,-1,22
 416 591 416 591 414 603 c 128,-1,23
 412 615 412 615 403 630.5 c 128,-1,24
 394 646 394 646 371 652 c 128,-1,25
 348 658 348 658 309 658 c 128,-1,26
 270 658 270 658 247 652 c 128,-1,27
 224 646 224 646 214.5 630.5 c 128,-1,28
 205 615 205 615 203 603 c 128,-1,29
 201 591 201 591 201 566 c 2,30,-1
 201 0 l 1,31,-1
 119 0 l 1,32,-1
 119 461 l 1,33,-1
 50 461 l 1,34,-1
 50 505 l 1,35,-1
 119 519 l 1,36,37
 120 574 120 574 127 608 c 128,-1,38
 134 642 134 642 153 672 c 0,39,40
 189 729 189 729 310 729 c 0,41,42
 426 729 426 729 466 676 c 0,43,44
 480 658 480 658 487 643.5 c 128,-1,45
 494 629 494 629 498 603 c 0,46,47
 502 570 502 570 502 514.5 c 128,-1,48
 502 459 502 459 480.5 427.5 c 128,-1,49
 459 396 459 396 414 376 c 1,50,-1
 414 370 l 1,51,52
 473 352 473 352 501.5 310 c 128,-1,53
 530 268 530 268 530 186 c 0,54,55
 530 77 530 77 486.5 32.5 c 128,-1,56
 443 -12 443 -12 340 -12 c 0,57,58
 280 -12 280 -12 232 13 c 1,59,-1
 251 68 l 1,0,1
EndSplineSet
EndChar

StartChar: agrave
Encoding: 224 224 160
Width: 497
GlyphClass: 2
Flags: W
LayerCount: 2
Fore
SplineSet
417 0 m 1,0,-1
 372 0 l 1,1,-1
 359 49 l 1,2,3
 335 22 335 22 305 7.5 c 128,-1,4
 275 -7 275 -7 255 -9.5 c 128,-1,5
 235 -12 235 -12 198.5 -12 c 128,-1,6
 162 -12 162 -12 134 1 c 128,-1,7
 106 14 106 14 92 40 c 0,8,9
 70 82 70 82 70 153 c 0,10,11
 70 243 70 243 122 270 c 0,12,13
 143 280 143 280 159.5 286 c 128,-1,14
 176 292 176 292 209.5 295 c 128,-1,15
 243 298 243 298 266.5 298.5 c 128,-1,16
 290 299 290 299 335 300 c 1,17,-1
 335 375 l 2,18,19
 335 427 335 427 313 445.5 c 128,-1,20
 291 464 291 464 233 464 c 128,-1,21
 175 464 175 464 107 442 c 1,22,-1
 91 492 l 1,23,24
 169 530 169 530 256 530 c 0,25,26
 360 530 360 530 390 488 c 0,27,28
 406 465 406 465 411.5 440 c 128,-1,29
 417 415 417 415 417 375 c 2,30,-1
 417 0 l 1,0,-1
335 140 m 2,31,-1
 335 243 l 1,32,33
 233 243 233 243 213.5 235.5 c 128,-1,34
 194 228 194 228 179 220 c 0,35,36
 152 206 152 206 152 165 c 2,37,-1
 152 142 l 2,38,39
 152 93 152 93 167 73 c 128,-1,40
 182 53 182 53 238.5 53 c 128,-1,41
 295 53 295 53 315 75.5 c 128,-1,42
 335 98 335 98 335 140 c 2,31,-1
354 620 m 1,43,-1
 331 586 l 1,44,-1
 143 689 l 1,45,-1
 189 756 l 1,46,-1
 354 620 l 1,43,-1
EndSplineSet
EndChar

StartChar: aacute
Encoding: 225 225 161
Width: 497
GlyphClass: 2
Flags: W
LayerCount: 2
Fore
SplineSet
417 0 m 1,0,-1
 372 0 l 1,1,-1
 359 49 l 1,2,3
 335 22 335 22 305 7.5 c 128,-1,4
 275 -7 275 -7 255 -9.5 c 128,-1,5
 235 -12 235 -12 198.5 -12 c 128,-1,6
 162 -12 162 -12 134 1 c 128,-1,7
 106 14 106 14 92 40 c 0,8,9
 70 82 70 82 70 153 c 0,10,11
 70 243 70 243 122 270 c 0,12,13
 143 280 143 280 159.5 286 c 128,-1,14
 176 292 176 292 209.5 295 c 128,-1,15
 243 298 243 298 266.5 298.5 c 128,-1,16
 290 299 290 299 335 300 c 1,17,-1
 335 375 l 2,18,19
 335 427 335 427 313 445.5 c 128,-1,20
 291 464 291 464 233 464 c 128,-1,21
 175 464 175 464 107 442 c 1,22,-1
 91 492 l 1,23,24
 169 530 169 530 256 530 c 0,25,26
 360 530 360 530 390 488 c 0,27,28
 406 465 406 465 411.5 440 c 128,-1,29
 417 415 417 415 417 375 c 2,30,-1
 417 0 l 1,0,-1
335 140 m 2,31,-1
 335 243 l 1,32,33
 233 243 233 243 213.5 235.5 c 128,-1,34
 194 228 194 228 179 220 c 0,35,36
 152 206 152 206 152 165 c 2,37,-1
 152 142 l 2,38,39
 152 93 152 93 167 73 c 128,-1,40
 182 53 182 53 238.5 53 c 128,-1,41
 295 53 295 53 315 75.5 c 128,-1,42
 335 98 335 98 335 140 c 2,31,-1
196 586 m 1,43,-1
 173 620 l 1,44,-1
 338 756 l 1,45,-1
 384 689 l 1,46,-1
 196 586 l 1,43,-1
EndSplineSet
EndChar

StartChar: acircumflex
Encoding: 226 226 162
Width: 497
GlyphClass: 2
Flags: W
LayerCount: 2
Fore
SplineSet
417 0 m 1,0,-1
 372 0 l 1,1,-1
 359 49 l 1,2,3
 335 22 335 22 305 7.5 c 128,-1,4
 275 -7 275 -7 255 -9.5 c 128,-1,5
 235 -12 235 -12 198.5 -12 c 128,-1,6
 162 -12 162 -12 134 1 c 128,-1,7
 106 14 106 14 92 40 c 0,8,9
 70 82 70 82 70 153 c 0,10,11
 70 243 70 243 122 270 c 0,12,13
 143 280 143 280 159.5 286 c 128,-1,14
 176 292 176 292 209.5 295 c 128,-1,15
 243 298 243 298 266.5 298.5 c 128,-1,16
 290 299 290 299 335 300 c 1,17,-1
 335 375 l 2,18,19
 335 427 335 427 313 445.5 c 128,-1,20
 291 464 291 464 233 464 c 128,-1,21
 175 464 175 464 107 442 c 1,22,-1
 91 492 l 1,23,24
 169 530 169 530 256 530 c 0,25,26
 360 530 360 530 390 488 c 0,27,28
 406 465 406 465 411.5 440 c 128,-1,29
 417 415 417 415 417 375 c 2,30,-1
 417 0 l 1,0,-1
335 140 m 2,31,-1
 335 243 l 1,32,33
 233 243 233 243 213.5 235.5 c 128,-1,34
 194 228 194 228 179 220 c 0,35,36
 152 206 152 206 152 165 c 2,37,-1
 152 142 l 2,38,39
 152 93 152 93 167 73 c 128,-1,40
 182 53 182 53 238.5 53 c 128,-1,41
 295 53 295 53 315 75.5 c 128,-1,42
 335 98 335 98 335 140 c 2,31,-1
392 640 m 1,43,-1
 361 603 l 1,44,-1
 258 670 l 1,45,-1
 155 603 l 1,46,-1
 125 640 l 1,47,-1
 258 756 l 1,48,-1
 392 640 l 1,43,-1
EndSplineSet
EndChar

StartChar: atilde
Encoding: 227 227 163
Width: 497
GlyphClass: 2
Flags: W
LayerCount: 2
Fore
SplineSet
417 0 m 1,0,-1
 372 0 l 1,1,-1
 359 49 l 1,2,3
 335 22 335 22 305 7.5 c 128,-1,4
 275 -7 275 -7 255 -9.5 c 128,-1,5
 235 -12 235 -12 198.5 -12 c 128,-1,6
 162 -12 162 -12 134 1 c 128,-1,7
 106 14 106 14 92 40 c 0,8,9
 70 82 70 82 70 153 c 0,10,11
 70 243 70 243 122 270 c 0,12,13
 143 280 143 280 159.5 286 c 128,-1,14
 176 292 176 292 209.5 295 c 128,-1,15
 243 298 243 298 266.5 298.5 c 128,-1,16
 290 299 290 299 335 300 c 1,17,-1
 335 375 l 2,18,19
 335 427 335 427 313 445.5 c 128,-1,20
 291 464 291 464 233 464 c 128,-1,21
 175 464 175 464 107 442 c 1,22,-1
 91 492 l 1,23,24
 169 530 169 530 256 530 c 0,25,26
 360 530 360 530 390 488 c 0,27,28
 406 465 406 465 411.5 440 c 128,-1,29
 417 415 417 415 417 375 c 2,30,-1
 417 0 l 1,0,-1
335 140 m 2,31,-1
 335 243 l 1,32,33
 233 243 233 243 213.5 235.5 c 128,-1,34
 194 228 194 228 179 220 c 0,35,36
 152 206 152 206 152 165 c 2,37,-1
 152 142 l 2,38,39
 152 93 152 93 167 73 c 128,-1,40
 182 53 182 53 238.5 53 c 128,-1,41
 295 53 295 53 315 75.5 c 128,-1,42
 335 98 335 98 335 140 c 2,31,-1
353.5 639 m 128,-1,44
 336 630 336 630 317.5 630 c 128,-1,45
 299 630 299 630 266.5 643.5 c 128,-1,46
 234 657 234 657 212 657 c 128,-1,47
 190 657 190 657 159 637 c 1,48,-1
 137 675 l 1,49,50
 166 704 166 704 183.5 713 c 128,-1,51
 201 722 201 722 219.5 722 c 128,-1,52
 238 722 238 722 270.5 708.5 c 128,-1,53
 303 695 303 695 325 695 c 128,-1,54
 347 695 347 695 378 715 c 1,55,-1
 400 677 l 1,56,43
 371 648 371 648 353.5 639 c 128,-1,44
EndSplineSet
EndChar

StartChar: adieresis
Encoding: 228 228 164
Width: 497
GlyphClass: 2
Flags: W
LayerCount: 2
Fore
SplineSet
417 0 m 1,0,-1
 372 0 l 1,1,-1
 359 49 l 1,2,3
 335 22 335 22 305 7.5 c 128,-1,4
 275 -7 275 -7 255 -9.5 c 128,-1,5
 235 -12 235 -12 198.5 -12 c 128,-1,6
 162 -12 162 -12 134 1 c 128,-1,7
 106 14 106 14 92 40 c 0,8,9
 70 82 70 82 70 153 c 0,10,11
 70 243 70 243 122 270 c 0,12,13
 143 280 143 280 159.5 286 c 128,-1,14
 176 292 176 292 209.5 295 c 128,-1,15
 243 298 243 298 266.5 298.5 c 128,-1,16
 290 299 290 299 335 300 c 1,17,-1
 335 375 l 2,18,19
 335 427 335 427 313 445.5 c 128,-1,20
 291 464 291 464 233 464 c 128,-1,21
 175 464 175 464 107 442 c 1,22,-1
 91 492 l 1,23,24
 169 530 169 530 256 530 c 0,25,26
 360 530 360 530 390 488 c 0,27,28
 406 465 406 465 411.5 440 c 128,-1,29
 417 415 417 415 417 375 c 2,30,-1
 417 0 l 1,0,-1
335 140 m 2,31,-1
 335 243 l 1,32,33
 233 243 233 243 213.5 235.5 c 128,-1,34
 194 228 194 228 179 220 c 0,35,36
 152 206 152 206 152 165 c 2,37,-1
 152 142 l 2,38,39
 152 93 152 93 167 73 c 128,-1,40
 182 53 182 53 238.5 53 c 128,-1,41
 295 53 295 53 315 75.5 c 128,-1,42
 335 98 335 98 335 140 c 2,31,-1
168 717 m 128,-1,44
 183 717 183 717 190 716 c 128,-1,45
 197 715 197 715 206 710 c 0,46,47
 220 703 220 703 220 675.5 c 128,-1,48
 220 648 220 648 217 637.5 c 128,-1,49
 214 627 214 627 205.5 622.5 c 128,-1,50
 197 618 197 618 190 617 c 128,-1,51
 183 616 183 616 168 616 c 128,-1,52
 153 616 153 616 146 617 c 128,-1,53
 139 618 139 618 130 622 c 0,54,55
 116 630 116 630 116 657.5 c 128,-1,56
 116 685 116 685 119 695.5 c 128,-1,57
 122 706 122 706 130.5 710.5 c 128,-1,58
 139 715 139 715 146 716 c 128,-1,43
 153 717 153 717 168 717 c 128,-1,44
348 717 m 128,-1,60
 363 717 363 717 370 716 c 128,-1,61
 377 715 377 715 386 710 c 0,62,63
 400 703 400 703 400 675.5 c 128,-1,64
 400 648 400 648 397 637.5 c 128,-1,65
 394 627 394 627 385.5 622.5 c 128,-1,66
 377 618 377 618 370 617 c 128,-1,67
 363 616 363 616 348 616 c 128,-1,68
 333 616 333 616 326 617 c 128,-1,69
 319 618 319 618 310 622 c 0,70,71
 296 630 296 630 296 657.5 c 128,-1,72
 296 685 296 685 299 695.5 c 128,-1,73
 302 706 302 706 310.5 710.5 c 128,-1,74
 319 715 319 715 326 716 c 128,-1,59
 333 717 333 717 348 717 c 128,-1,60
EndSplineSet
EndChar

StartChar: aring
Encoding: 229 229 165
Width: 497
GlyphClass: 2
Flags: W
LayerCount: 2
Fore
SplineSet
417 0 m 1,0,-1
 372 0 l 1,1,-1
 359 49 l 1,2,3
 335 22 335 22 305 7.5 c 128,-1,4
 275 -7 275 -7 255 -9.5 c 128,-1,5
 235 -12 235 -12 198.5 -12 c 128,-1,6
 162 -12 162 -12 134 1 c 128,-1,7
 106 14 106 14 92 40 c 0,8,9
 70 82 70 82 70 153 c 0,10,11
 70 243 70 243 122 270 c 0,12,13
 143 280 143 280 159.5 286 c 128,-1,14
 176 292 176 292 209.5 295 c 128,-1,15
 243 298 243 298 266.5 298.5 c 128,-1,16
 290 299 290 299 335 300 c 1,17,-1
 335 375 l 2,18,19
 335 427 335 427 313 445.5 c 128,-1,20
 291 464 291 464 233 464 c 128,-1,21
 175 464 175 464 107 442 c 1,22,-1
 91 492 l 1,23,24
 169 530 169 530 256 530 c 0,25,26
 360 530 360 530 390 488 c 0,27,28
 406 465 406 465 411.5 440 c 128,-1,29
 417 415 417 415 417 375 c 2,30,-1
 417 0 l 1,0,-1
335 140 m 2,31,-1
 335 243 l 1,32,33
 233 243 233 243 213.5 235.5 c 128,-1,34
 194 228 194 228 179 220 c 0,35,36
 152 206 152 206 152 165 c 2,37,-1
 152 142 l 2,38,39
 152 93 152 93 167 73 c 128,-1,40
 182 53 182 53 238.5 53 c 128,-1,41
 295 53 295 53 315 75.5 c 128,-1,42
 335 98 335 98 335 140 c 2,31,-1
268 712 m 128,-1,44
 252 712 252 712 243.5 705.5 c 128,-1,45
 235 699 235 699 235 677 c 128,-1,46
 235 655 235 655 243 648.5 c 128,-1,47
 251 642 251 642 265 642 c 128,-1,48
 279 642 279 642 285 644 c 0,49,50
 301 648 301 648 301 673.5 c 128,-1,51
 301 699 301 699 292.5 705.5 c 128,-1,43
 284 712 284 712 268 712 c 128,-1,44
268 761 m 128,-1,53
 313 761 313 761 334 745 c 128,-1,54
 355 729 355 729 355 677 c 128,-1,55
 355 625 355 625 334 609 c 128,-1,56
 313 593 313 593 268 593 c 128,-1,57
 223 593 223 593 202 609 c 128,-1,58
 181 625 181 625 181 677 c 128,-1,59
 181 729 181 729 202 745 c 128,-1,52
 223 761 223 761 268 761 c 128,-1,53
EndSplineSet
EndChar

StartChar: ae
Encoding: 230 230 166
Width: 737
GlyphClass: 2
Flags: W
LayerCount: 2
Fore
SplineSet
654 488 m 0,0,1
 671 465 671 465 676.5 441.5 c 128,-1,2
 682 418 682 418 682 381.5 c 128,-1,3
 682 345 682 345 675 319 c 128,-1,4
 668 293 668 293 650 277 c 128,-1,5
 632 261 632 261 613.5 251.5 c 128,-1,6
 595 242 595 242 560 238 c 0,7,8
 508 231 508 231 417 231 c 1,9,-1
 417 137 l 2,10,11
 417 88 417 88 440 71 c 128,-1,12
 463 54 463 54 506 54 c 0,13,14
 589 54 589 54 655 82 c 1,15,-1
 671 32 l 1,16,17
 596 -12 596 -12 505 -12 c 0,18,19
 396 -12 396 -12 362 53 c 1,20,21
 316 -12 316 -12 212 -12 c 0,22,23
 127 -12 127 -12 98.5 29 c 128,-1,24
 70 70 70 70 70 147 c 0,25,26
 70 221 70 221 114 256 c 0,27,28
 148 282 148 282 242 286 c 0,29,30
 275 288 275 288 335 288 c 1,31,-1
 335 376 l 2,32,33
 335 428 335 428 313 446.5 c 128,-1,34
 291 465 291 465 233 465 c 128,-1,35
 175 465 175 465 107 443 c 1,36,-1
 91 493 l 1,37,38
 169 531 169 531 258 531 c 128,-1,39
 347 531 347 531 384 494 c 1,40,41
 424 531 424 531 523.5 531 c 128,-1,42
 623 531 623 531 654 488 c 0,0,1
417 385 m 2,43,-1
 417 288 l 1,44,45
 561 288 561 288 587 318 c 0,46,47
 600 332 600 332 600 356 c 2,48,-1
 600 376 l 2,49,50
 600 425 600 425 585 445 c 128,-1,51
 570 465 570 465 514.5 465 c 128,-1,52
 459 465 459 465 438 444 c 128,-1,53
 417 423 417 423 417 385 c 2,43,-1
335 140 m 2,54,-1
 335 231 l 1,55,56
 232 231 232 231 213 224.5 c 128,-1,57
 194 218 194 218 179 210 c 0,58,59
 152 197 152 197 152 162 c 2,60,-1
 152 142 l 2,61,62
 152 93 152 93 167 73 c 128,-1,63
 182 53 182 53 238.5 53 c 128,-1,64
 295 53 295 53 315 75.5 c 128,-1,65
 335 98 335 98 335 140 c 2,54,-1
EndSplineSet
EndChar

StartChar: ccedilla
Encoding: 231 231 167
Width: 405
GlyphClass: 2
Flags: W
LayerCount: 2
Fore
SplineSet
371 507 m 1,0,-1
 355 454 l 1,1,2
 311 465 311 465 266 465 c 128,-1,3
 221 465 221 465 200 459 c 128,-1,4
 179 453 179 453 170.5 438 c 128,-1,5
 162 423 162 423 160 411 c 128,-1,6
 158 399 158 399 158 374 c 2,7,-1
 158 146 l 2,8,9
 158 52 158 52 254 52 c 0,10,11
 293 52 293 52 361 68 c 1,12,-1
 373 14 l 1,13,14
 316 -12 316 -12 243 -12 c 1,15,-1
 238 -56 l 1,16,-1
 250 -56 l 2,17,18
 293 -56 293 -56 308 -72.5 c 128,-1,19
 323 -89 323 -89 323 -121 c 128,-1,20
 323 -153 323 -153 304.5 -173.5 c 128,-1,21
 286 -194 286 -194 239 -194 c 128,-1,22
 192 -194 192 -194 161 -177 c 1,23,-1
 171 -142 l 1,24,25
 205 -150 205 -150 222 -150 c 128,-1,26
 239 -150 239 -150 247.5 -145.5 c 128,-1,27
 256 -141 256 -141 257 -136 c 128,-1,28
 258 -131 258 -131 258 -122.5 c 128,-1,29
 258 -114 258 -114 257 -109.5 c 128,-1,30
 256 -105 256 -105 249 -99.5 c 128,-1,31
 242 -94 242 -94 229 -94 c 2,32,-1
 209 -94 l 1,33,-1
 194 -70 l 1,34,-1
 202 -9 l 1,35,36
 138 -1 138 -1 113 36 c 0,37,38
 99 56 99 56 91 74 c 128,-1,39
 83 92 83 92 80 128 c 0,40,41
 75 173 75 173 75 232 c 2,42,-1
 75 308 l 2,43,44
 75 361 75 361 79 384 c 128,-1,45
 83 407 83 407 87 427.5 c 128,-1,46
 91 448 91 448 98 458.5 c 128,-1,47
 105 469 105 469 114.5 483 c 128,-1,48
 124 497 124 497 137.5 504 c 128,-1,49
 151 511 151 511 168 518 c 1,50,51
 195 531 195 531 255.5 531 c 128,-1,52
 316 531 316 531 371 507 c 1,0,-1
EndSplineSet
EndChar

StartChar: egrave
Encoding: 232 232 168
Width: 478
GlyphClass: 2
Flags: W
LayerCount: 2
Fore
SplineSet
158 378 m 2,0,-1
 158 275 l 1,1,2
 260 275 260 275 279.5 282.5 c 128,-1,3
 299 290 299 290 314 298 c 0,4,5
 341 312 341 312 341 353 c 2,6,-1
 341 376 l 2,7,8
 341 425 341 425 326 445 c 128,-1,9
 311 465 311 465 254.5 465 c 128,-1,10
 198 465 198 465 178 442.5 c 128,-1,11
 158 420 158 420 158 378 c 2,0,-1
206 528.5 m 128,-1,13
 228 531 228 531 268.5 531 c 128,-1,14
 309 531 309 531 344 520 c 128,-1,15
 379 509 379 509 395.5 485.5 c 128,-1,16
 412 462 412 462 417.5 437.5 c 128,-1,17
 423 413 423 413 423 381.5 c 128,-1,18
 423 350 423 350 419 329.5 c 128,-1,19
 415 309 415 309 409.5 294 c 128,-1,20
 404 279 404 279 391.5 267.5 c 128,-1,21
 379 256 379 256 368.5 248 c 128,-1,22
 358 240 358 240 337.5 234.5 c 128,-1,23
 317 229 317 229 302 226 c 128,-1,24
 287 223 287 223 259 221 c 0,25,26
 217 218 217 218 158 218 c 1,27,-1
 158 143 l 2,28,29
 158 91 158 91 180 72.5 c 128,-1,30
 202 54 202 54 247 54 c 0,31,32
 330 54 330 54 396 82 c 1,33,-1
 412 32 l 1,34,35
 337 -12 337 -12 246 -12 c 0,36,37
 198 -12 198 -12 168.5 -1.5 c 128,-1,38
 139 9 139 9 126.5 22 c 128,-1,39
 114 35 114 35 105 46 c 128,-1,40
 96 57 96 57 90.5 78 c 128,-1,41
 85 99 85 99 82 114.5 c 128,-1,42
 79 130 79 130 78 158 c 0,43,44
 75 206 75 206 75 248 c 2,45,-1
 75 308 l 2,46,47
 75 361 75 361 79 384 c 128,-1,48
 83 407 83 407 87 427.5 c 128,-1,49
 91 448 91 448 98 458.5 c 128,-1,50
 105 469 105 469 114.5 483 c 128,-1,51
 124 497 124 497 137.5 504 c 128,-1,52
 151 511 151 511 167.5 518.5 c 128,-1,12
 184 526 184 526 206 528.5 c 128,-1,13
344 620 m 1,53,-1
 321 586 l 1,54,-1
 133 689 l 1,55,-1
 179 756 l 1,56,-1
 344 620 l 1,53,-1
EndSplineSet
EndChar

StartChar: eacute
Encoding: 233 233 169
Width: 478
GlyphClass: 2
Flags: W
LayerCount: 2
Fore
SplineSet
158 378 m 2,0,-1
 158 275 l 1,1,2
 260 275 260 275 279.5 282.5 c 128,-1,3
 299 290 299 290 314 298 c 0,4,5
 341 312 341 312 341 353 c 2,6,-1
 341 376 l 2,7,8
 341 425 341 425 326 445 c 128,-1,9
 311 465 311 465 254.5 465 c 128,-1,10
 198 465 198 465 178 442.5 c 128,-1,11
 158 420 158 420 158 378 c 2,0,-1
206 528.5 m 128,-1,13
 228 531 228 531 268.5 531 c 128,-1,14
 309 531 309 531 344 520 c 128,-1,15
 379 509 379 509 395.5 485.5 c 128,-1,16
 412 462 412 462 417.5 437.5 c 128,-1,17
 423 413 423 413 423 381.5 c 128,-1,18
 423 350 423 350 419 329.5 c 128,-1,19
 415 309 415 309 409.5 294 c 128,-1,20
 404 279 404 279 391.5 267.5 c 128,-1,21
 379 256 379 256 368.5 248 c 128,-1,22
 358 240 358 240 337.5 234.5 c 128,-1,23
 317 229 317 229 302 226 c 128,-1,24
 287 223 287 223 259 221 c 0,25,26
 217 218 217 218 158 218 c 1,27,-1
 158 143 l 2,28,29
 158 91 158 91 180 72.5 c 128,-1,30
 202 54 202 54 247 54 c 0,31,32
 330 54 330 54 396 82 c 1,33,-1
 412 32 l 1,34,35
 337 -12 337 -12 246 -12 c 0,36,37
 198 -12 198 -12 168.5 -1.5 c 128,-1,38
 139 9 139 9 126.5 22 c 128,-1,39
 114 35 114 35 105 46 c 128,-1,40
 96 57 96 57 90.5 78 c 128,-1,41
 85 99 85 99 82 114.5 c 128,-1,42
 79 130 79 130 78 158 c 0,43,44
 75 206 75 206 75 248 c 2,45,-1
 75 308 l 2,46,47
 75 361 75 361 79 384 c 128,-1,48
 83 407 83 407 87 427.5 c 128,-1,49
 91 448 91 448 98 458.5 c 128,-1,50
 105 469 105 469 114.5 483 c 128,-1,51
 124 497 124 497 137.5 504 c 128,-1,52
 151 511 151 511 167.5 518.5 c 128,-1,12
 184 526 184 526 206 528.5 c 128,-1,13
187 586 m 1,53,-1
 164 620 l 1,54,-1
 329 756 l 1,55,-1
 375 689 l 1,56,-1
 187 586 l 1,53,-1
EndSplineSet
EndChar

StartChar: ecircumflex
Encoding: 234 234 170
Width: 478
GlyphClass: 2
Flags: W
LayerCount: 2
Fore
SplineSet
158 378 m 2,0,-1
 158 275 l 1,1,2
 260 275 260 275 279.5 282.5 c 128,-1,3
 299 290 299 290 314 298 c 0,4,5
 341 312 341 312 341 353 c 2,6,-1
 341 376 l 2,7,8
 341 425 341 425 326 445 c 128,-1,9
 311 465 311 465 254.5 465 c 128,-1,10
 198 465 198 465 178 442.5 c 128,-1,11
 158 420 158 420 158 378 c 2,0,-1
206 528.5 m 128,-1,13
 228 531 228 531 268.5 531 c 128,-1,14
 309 531 309 531 344 520 c 128,-1,15
 379 509 379 509 395.5 485.5 c 128,-1,16
 412 462 412 462 417.5 437.5 c 128,-1,17
 423 413 423 413 423 381.5 c 128,-1,18
 423 350 423 350 419 329.5 c 128,-1,19
 415 309 415 309 409.5 294 c 128,-1,20
 404 279 404 279 391.5 267.5 c 128,-1,21
 379 256 379 256 368.5 248 c 128,-1,22
 358 240 358 240 337.5 234.5 c 128,-1,23
 317 229 317 229 302 226 c 128,-1,24
 287 223 287 223 259 221 c 0,25,26
 217 218 217 218 158 218 c 1,27,-1
 158 143 l 2,28,29
 158 91 158 91 180 72.5 c 128,-1,30
 202 54 202 54 247 54 c 0,31,32
 330 54 330 54 396 82 c 1,33,-1
 412 32 l 1,34,35
 337 -12 337 -12 246 -12 c 0,36,37
 198 -12 198 -12 168.5 -1.5 c 128,-1,38
 139 9 139 9 126.5 22 c 128,-1,39
 114 35 114 35 105 46 c 128,-1,40
 96 57 96 57 90.5 78 c 128,-1,41
 85 99 85 99 82 114.5 c 128,-1,42
 79 130 79 130 78 158 c 0,43,44
 75 206 75 206 75 248 c 2,45,-1
 75 308 l 2,46,47
 75 361 75 361 79 384 c 128,-1,48
 83 407 83 407 87 427.5 c 128,-1,49
 91 448 91 448 98 458.5 c 128,-1,50
 105 469 105 469 114.5 483 c 128,-1,51
 124 497 124 497 137.5 504 c 128,-1,52
 151 511 151 511 167.5 518.5 c 128,-1,12
 184 526 184 526 206 528.5 c 128,-1,13
393 640 m 1,53,-1
 362 603 l 1,54,-1
 259 670 l 1,55,-1
 156 603 l 1,56,-1
 126 640 l 1,57,-1
 259 756 l 1,58,-1
 393 640 l 1,53,-1
EndSplineSet
EndChar

StartChar: edieresis
Encoding: 235 235 171
Width: 478
GlyphClass: 2
Flags: W
LayerCount: 2
Fore
SplineSet
158 378 m 2,0,-1
 158 275 l 1,1,2
 260 275 260 275 279.5 282.5 c 128,-1,3
 299 290 299 290 314 298 c 0,4,5
 341 312 341 312 341 353 c 2,6,-1
 341 376 l 2,7,8
 341 425 341 425 326 445 c 128,-1,9
 311 465 311 465 254.5 465 c 128,-1,10
 198 465 198 465 178 442.5 c 128,-1,11
 158 420 158 420 158 378 c 2,0,-1
206 528.5 m 128,-1,13
 228 531 228 531 268.5 531 c 128,-1,14
 309 531 309 531 344 520 c 128,-1,15
 379 509 379 509 395.5 485.5 c 128,-1,16
 412 462 412 462 417.5 437.5 c 128,-1,17
 423 413 423 413 423 381.5 c 128,-1,18
 423 350 423 350 419 329.5 c 128,-1,19
 415 309 415 309 409.5 294 c 128,-1,20
 404 279 404 279 391.5 267.5 c 128,-1,21
 379 256 379 256 368.5 248 c 128,-1,22
 358 240 358 240 337.5 234.5 c 128,-1,23
 317 229 317 229 302 226 c 128,-1,24
 287 223 287 223 259 221 c 0,25,26
 217 218 217 218 158 218 c 1,27,-1
 158 143 l 2,28,29
 158 91 158 91 180 72.5 c 128,-1,30
 202 54 202 54 247 54 c 0,31,32
 330 54 330 54 396 82 c 1,33,-1
 412 32 l 1,34,35
 337 -12 337 -12 246 -12 c 0,36,37
 198 -12 198 -12 168.5 -1.5 c 128,-1,38
 139 9 139 9 126.5 22 c 128,-1,39
 114 35 114 35 105 46 c 128,-1,40
 96 57 96 57 90.5 78 c 128,-1,41
 85 99 85 99 82 114.5 c 128,-1,42
 79 130 79 130 78 158 c 0,43,44
 75 206 75 206 75 248 c 2,45,-1
 75 308 l 2,46,47
 75 361 75 361 79 384 c 128,-1,48
 83 407 83 407 87 427.5 c 128,-1,49
 91 448 91 448 98 458.5 c 128,-1,50
 105 469 105 469 114.5 483 c 128,-1,51
 124 497 124 497 137.5 504 c 128,-1,52
 151 511 151 511 167.5 518.5 c 128,-1,12
 184 526 184 526 206 528.5 c 128,-1,13
159 717 m 128,-1,54
 174 717 174 717 181 716 c 128,-1,55
 188 715 188 715 196 710 c 1,56,57
 211 703 211 703 211 675.5 c 128,-1,58
 211 648 211 648 208 637.5 c 128,-1,59
 205 627 205 627 196.5 622.5 c 128,-1,60
 188 618 188 618 181 617 c 128,-1,61
 174 616 174 616 159 616 c 128,-1,62
 144 616 144 616 137 617 c 128,-1,63
 130 618 130 618 122 622 c 0,64,65
 107 630 107 630 107 657.5 c 128,-1,66
 107 685 107 685 110 695.5 c 128,-1,67
 113 706 113 706 121.5 710.5 c 128,-1,68
 130 715 130 715 137 716 c 128,-1,53
 144 717 144 717 159 717 c 128,-1,54
339 717 m 128,-1,70
 354 717 354 717 361 716 c 128,-1,71
 368 715 368 715 376 710 c 1,72,73
 391 703 391 703 391 675.5 c 128,-1,74
 391 648 391 648 388 637.5 c 128,-1,75
 385 627 385 627 376.5 622.5 c 128,-1,76
 368 618 368 618 361 617 c 128,-1,77
 354 616 354 616 339 616 c 128,-1,78
 324 616 324 616 317 617 c 128,-1,79
 310 618 310 618 302 622 c 0,80,81
 287 630 287 630 287 657.5 c 128,-1,82
 287 685 287 685 290 695.5 c 128,-1,83
 293 706 293 706 301.5 710.5 c 128,-1,84
 310 715 310 715 317 716 c 128,-1,69
 324 717 324 717 339 717 c 128,-1,70
EndSplineSet
EndChar

StartChar: igrave
Encoding: 236 236 172
Width: 262
GlyphClass: 2
Flags: W
LayerCount: 2
Fore
SplineSet
237 620 m 1,0,-1
 214 586 l 1,1,-1
 26 689 l 1,2,-1
 72 756 l 1,3,-1
 237 620 l 1,0,-1
90 520 m 1,4,-1
 172 520 l 1,5,-1
 172 0 l 1,6,-1
 90 0 l 1,7,-1
 90 520 l 1,4,-1
EndSplineSet
EndChar

StartChar: iacute
Encoding: 237 237 173
Width: 262
GlyphClass: 2
Flags: W
LayerCount: 2
Fore
SplineSet
59 586 m 1,0,-1
 36 620 l 1,1,-1
 201 756 l 1,2,-1
 247 689 l 1,3,-1
 59 586 l 1,0,-1
90 520 m 1,4,-1
 172 520 l 1,5,-1
 172 0 l 1,6,-1
 90 0 l 1,7,-1
 90 520 l 1,4,-1
EndSplineSet
EndChar

StartChar: icircumflex
Encoding: 238 238 174
Width: 262
GlyphClass: 2
Flags: W
LayerCount: 2
Fore
SplineSet
265 640 m 1,0,-1
 234 603 l 1,1,-1
 131 670 l 1,2,-1
 28 603 l 1,3,-1
 -2 640 l 1,4,-1
 131 756 l 1,5,-1
 265 640 l 1,0,-1
90 520 m 1,6,-1
 172 520 l 1,7,-1
 172 0 l 1,8,-1
 90 0 l 1,9,-1
 90 520 l 1,6,-1
EndSplineSet
EndChar

StartChar: idieresis
Encoding: 239 239 175
Width: 262
GlyphClass: 2
Flags: W
LayerCount: 2
Fore
SplineSet
41 717 m 128,-1,1
 56 717 56 717 63 716 c 128,-1,2
 70 715 70 715 78 710 c 1,3,4
 93 703 93 703 93 675.5 c 128,-1,5
 93 648 93 648 90 637.5 c 128,-1,6
 87 627 87 627 78.5 622.5 c 128,-1,7
 70 618 70 618 63 617 c 128,-1,8
 56 616 56 616 41 616 c 128,-1,9
 26 616 26 616 19 617 c 128,-1,10
 12 618 12 618 4 622 c 0,11,12
 -11 630 -11 630 -11 657.5 c 128,-1,13
 -11 685 -11 685 -8 695.5 c 128,-1,14
 -5 706 -5 706 3.5 710.5 c 128,-1,15
 12 715 12 715 19 716 c 128,-1,0
 26 717 26 717 41 717 c 128,-1,1
221 717 m 128,-1,17
 236 717 236 717 243 716 c 128,-1,18
 250 715 250 715 258 710 c 1,19,20
 273 703 273 703 273 675.5 c 128,-1,21
 273 648 273 648 270 637.5 c 128,-1,22
 267 627 267 627 258.5 622.5 c 128,-1,23
 250 618 250 618 243 617 c 128,-1,24
 236 616 236 616 221 616 c 128,-1,25
 206 616 206 616 199 617 c 128,-1,26
 192 618 192 618 184 622 c 0,27,28
 169 630 169 630 169 657.5 c 128,-1,29
 169 685 169 685 172 695.5 c 128,-1,30
 175 706 175 706 183.5 710.5 c 128,-1,31
 192 715 192 715 199 716 c 128,-1,16
 206 717 206 717 221 717 c 128,-1,17
90 520 m 1,32,-1
 172 520 l 1,33,-1
 172 0 l 1,34,-1
 90 0 l 1,35,-1
 90 520 l 1,32,-1
EndSplineSet
EndChar

StartChar: eth
Encoding: 240 240 176
Width: 513
GlyphClass: 2
Flags: W
LayerCount: 2
Fore
SplineSet
438 452 m 2,0,-1
 438 190 l 2,1,2
 438 137 438 137 433 114.5 c 128,-1,3
 428 92 428 92 422 71.5 c 128,-1,4
 416 51 416 51 407 41.5 c 128,-1,5
 398 32 398 32 384 19.5 c 128,-1,6
 370 7 370 7 352 1.5 c 128,-1,7
 334 -4 334 -4 310 -8 c 128,-1,8
 286 -12 286 -12 256 -12 c 128,-1,9
 226 -12 226 -12 202 -8 c 128,-1,10
 178 -4 178 -4 160 1.5 c 128,-1,11
 142 7 142 7 128.5 19.5 c 128,-1,12
 115 32 115 32 106 41.5 c 128,-1,13
 97 51 97 51 91 71.5 c 128,-1,14
 85 92 85 92 82 105.5 c 128,-1,15
 79 119 79 119 77 146.5 c 128,-1,16
 75 174 75 174 75 190 c 2,17,-1
 75 285 l 2,18,19
 75 341 75 341 78.5 358 c 128,-1,20
 82 375 82 375 86.5 395 c 128,-1,21
 91 415 91 415 97.5 424 c 128,-1,22
 104 433 104 433 114 446.5 c 128,-1,23
 124 460 124 460 137 466.5 c 128,-1,24
 150 473 150 473 168 480 c 0,25,26
 198 491 198 491 257.5 491 c 128,-1,27
 317 491 317 491 357 475 c 1,28,29
 355 539 355 539 340 581 c 1,30,-1
 250 535 l 1,31,-1
 220 593 l 1,32,-1
 306 637 l 1,33,34
 271 678 271 678 207 702 c 1,35,-1
 234 761 l 1,36,37
 327 725 327 725 373 671 c 1,38,-1
 469 720 l 1,39,-1
 499 662 l 1,40,-1
 408 615 l 1,41,42
 438 550 438 550 438 452 c 2,0,-1
353 145 m 2,43,-1
 353 334 l 2,44,45
 353 359 353 359 351 371 c 128,-1,46
 349 383 349 383 341 398.5 c 128,-1,47
 333 414 333 414 312 420 c 128,-1,48
 291 426 291 426 256 426 c 128,-1,49
 221 426 221 426 199.5 420 c 128,-1,50
 178 414 178 414 170 398.5 c 128,-1,51
 162 383 162 383 160 371 c 128,-1,52
 158 359 158 359 158 334 c 2,53,-1
 158 145 l 2,54,55
 158 120 158 120 160 108 c 128,-1,56
 162 96 162 96 170 80.5 c 128,-1,57
 178 65 178 65 199.5 59 c 128,-1,58
 221 53 221 53 256 53 c 128,-1,59
 291 53 291 53 312 59 c 128,-1,60
 333 65 333 65 341 80.5 c 128,-1,61
 349 96 349 96 351 108 c 128,-1,62
 353 120 353 120 353 145 c 2,43,-1
EndSplineSet
EndChar

StartChar: ntilde
Encoding: 241 241 177
Width: 517
GlyphClass: 2
Flags: W
LayerCount: 2
Fore
SplineSet
437 366 m 2,0,-1
 437 0 l 1,1,-1
 355 0 l 1,2,-1
 355 377 l 2,3,4
 355 426 355 426 340 446 c 128,-1,5
 325 466 325 466 268.5 466 c 128,-1,6
 212 466 212 466 192 443.5 c 128,-1,7
 172 421 172 421 172 379 c 2,8,-1
 172 0 l 1,9,-1
 90 0 l 1,10,-1
 90 520 l 1,11,-1
 135 520 l 1,12,-1
 148 471 l 1,13,14
 167 498 167 498 198 512.5 c 128,-1,15
 229 527 229 527 249.5 529 c 128,-1,16
 270 531 270 531 307.5 531 c 128,-1,17
 345 531 345 531 373 518 c 128,-1,18
 401 505 401 505 414 480 c 0,19,20
 437 437 437 437 437 366 c 2,0,-1
353.5 639 m 128,-1,22
 336 630 336 630 317.5 630 c 128,-1,23
 299 630 299 630 266.5 643.5 c 128,-1,24
 234 657 234 657 212 657 c 128,-1,25
 190 657 190 657 159 637 c 1,26,-1
 137 675 l 1,27,28
 166 704 166 704 183.5 713 c 128,-1,29
 201 722 201 722 219.5 722 c 128,-1,30
 238 722 238 722 270.5 708.5 c 128,-1,31
 303 695 303 695 325 695 c 128,-1,32
 347 695 347 695 378 715 c 1,33,-1
 400 677 l 1,34,21
 371 648 371 648 353.5 639 c 128,-1,22
EndSplineSet
EndChar

StartChar: ograve
Encoding: 242 242 178
Width: 513
GlyphClass: 2
Flags: W
LayerCount: 2
Fore
SplineSet
256 -12 m 128,-1,1
 226 -12 226 -12 202 -7.5 c 128,-1,2
 178 -3 178 -3 160 2.5 c 128,-1,3
 142 8 142 8 128.5 21.5 c 128,-1,4
 115 35 115 35 106 45.5 c 128,-1,5
 97 56 97 56 91 78 c 128,-1,6
 85 100 85 100 82 114.5 c 128,-1,7
 79 129 79 129 77 159 c 128,-1,8
 75 189 75 189 75 206 c 2,9,-1
 75 314 l 2,10,11
 75 372 75 372 80 395.5 c 128,-1,12
 85 419 85 419 91 441 c 128,-1,13
 97 463 97 463 106 473.5 c 128,-1,14
 115 484 115 484 128.5 497.5 c 128,-1,15
 142 511 142 511 160 516.5 c 128,-1,16
 178 522 178 522 202 526.5 c 128,-1,17
 226 531 226 531 256 531 c 128,-1,18
 286 531 286 531 310 526.5 c 128,-1,19
 334 522 334 522 352 516.5 c 128,-1,20
 370 511 370 511 384 497.5 c 128,-1,21
 398 484 398 484 407 473.5 c 128,-1,22
 416 463 416 463 422 441 c 128,-1,23
 428 419 428 419 431 405 c 128,-1,24
 434 391 434 391 436 361 c 128,-1,25
 438 331 438 331 438 314 c 2,26,27
 438 314 438 314 438 206 c 0,28,29
 438 148 438 148 433 124 c 128,-1,30
 428 100 428 100 422 78 c 128,-1,31
 416 56 416 56 407 45.5 c 128,-1,32
 398 35 398 35 384 21.5 c 128,-1,33
 370 8 370 8 352 2.5 c 128,-1,34
 334 -3 334 -3 310 -7.5 c 128,-1,0
 286 -12 286 -12 256 -12 c 128,-1,1
353 145 m 2,35,-1
 353 374 l 2,36,37
 353 399 353 399 351 411 c 128,-1,38
 349 423 349 423 341 438.5 c 128,-1,39
 333 454 333 454 312 460 c 128,-1,40
 291 466 291 466 256 466 c 128,-1,41
 221 466 221 466 199.5 460 c 128,-1,42
 178 454 178 454 170 438.5 c 128,-1,43
 162 423 162 423 160 411 c 128,-1,44
 158 399 158 399 158 374 c 2,45,-1
 158 145 l 2,46,47
 158 120 158 120 160 108 c 128,-1,48
 162 96 162 96 170 80.5 c 128,-1,49
 178 65 178 65 199.5 59 c 128,-1,50
 221 53 221 53 256 53 c 128,-1,51
 291 53 291 53 312 59 c 128,-1,52
 333 65 333 65 341 80.5 c 128,-1,53
 349 96 349 96 351 108 c 128,-1,54
 353 120 353 120 353 145 c 2,35,-1
362 620 m 1,55,-1
 339 586 l 1,56,-1
 151 689 l 1,57,-1
 197 756 l 1,58,-1
 362 620 l 1,55,-1
EndSplineSet
EndChar

StartChar: oacute
Encoding: 243 243 179
Width: 513
GlyphClass: 2
Flags: W
LayerCount: 2
Fore
SplineSet
256 -12 m 128,-1,1
 226 -12 226 -12 202 -7.5 c 128,-1,2
 178 -3 178 -3 160 2.5 c 128,-1,3
 142 8 142 8 128.5 21.5 c 128,-1,4
 115 35 115 35 106 45.5 c 128,-1,5
 97 56 97 56 91 78 c 128,-1,6
 85 100 85 100 82 114.5 c 128,-1,7
 79 129 79 129 77 159 c 128,-1,8
 75 189 75 189 75 206 c 2,9,-1
 75 314 l 2,10,11
 75 372 75 372 80 395.5 c 128,-1,12
 85 419 85 419 91 441 c 128,-1,13
 97 463 97 463 106 473.5 c 128,-1,14
 115 484 115 484 128.5 497.5 c 128,-1,15
 142 511 142 511 160 516.5 c 128,-1,16
 178 522 178 522 202 526.5 c 128,-1,17
 226 531 226 531 256 531 c 128,-1,18
 286 531 286 531 310 526.5 c 128,-1,19
 334 522 334 522 352 516.5 c 128,-1,20
 370 511 370 511 384 497.5 c 128,-1,21
 398 484 398 484 407 473.5 c 128,-1,22
 416 463 416 463 422 441 c 128,-1,23
 428 419 428 419 431 405 c 128,-1,24
 434 391 434 391 436 361 c 128,-1,25
 438 331 438 331 438 314 c 2,26,27
 438 314 438 314 438 206 c 0,28,29
 438 148 438 148 433 124 c 128,-1,30
 428 100 428 100 422 78 c 128,-1,31
 416 56 416 56 407 45.5 c 128,-1,32
 398 35 398 35 384 21.5 c 128,-1,33
 370 8 370 8 352 2.5 c 128,-1,34
 334 -3 334 -3 310 -7.5 c 128,-1,0
 286 -12 286 -12 256 -12 c 128,-1,1
353 145 m 2,35,-1
 353 374 l 2,36,37
 353 399 353 399 351 411 c 128,-1,38
 349 423 349 423 341 438.5 c 128,-1,39
 333 454 333 454 312 460 c 128,-1,40
 291 466 291 466 256 466 c 128,-1,41
 221 466 221 466 199.5 460 c 128,-1,42
 178 454 178 454 170 438.5 c 128,-1,43
 162 423 162 423 160 411 c 128,-1,44
 158 399 158 399 158 374 c 2,45,-1
 158 145 l 2,46,47
 158 120 158 120 160 108 c 128,-1,48
 162 96 162 96 170 80.5 c 128,-1,49
 178 65 178 65 199.5 59 c 128,-1,50
 221 53 221 53 256 53 c 128,-1,51
 291 53 291 53 312 59 c 128,-1,52
 333 65 333 65 341 80.5 c 128,-1,53
 349 96 349 96 351 108 c 128,-1,54
 353 120 353 120 353 145 c 2,35,-1
194 586 m 1,55,-1
 171 620 l 1,56,-1
 336 756 l 1,57,-1
 382 689 l 1,58,-1
 194 586 l 1,55,-1
EndSplineSet
EndChar

StartChar: ocircumflex
Encoding: 244 244 180
Width: 513
GlyphClass: 2
Flags: W
LayerCount: 2
Fore
SplineSet
256 -12 m 128,-1,1
 226 -12 226 -12 202 -7.5 c 128,-1,2
 178 -3 178 -3 160 2.5 c 128,-1,3
 142 8 142 8 128.5 21.5 c 128,-1,4
 115 35 115 35 106 45.5 c 128,-1,5
 97 56 97 56 91 78 c 128,-1,6
 85 100 85 100 82 114.5 c 128,-1,7
 79 129 79 129 77 159 c 128,-1,8
 75 189 75 189 75 206 c 2,9,-1
 75 314 l 2,10,11
 75 372 75 372 80 395.5 c 128,-1,12
 85 419 85 419 91 441 c 128,-1,13
 97 463 97 463 106 473.5 c 128,-1,14
 115 484 115 484 128.5 497.5 c 128,-1,15
 142 511 142 511 160 516.5 c 128,-1,16
 178 522 178 522 202 526.5 c 128,-1,17
 226 531 226 531 256 531 c 128,-1,18
 286 531 286 531 310 526.5 c 128,-1,19
 334 522 334 522 352 516.5 c 128,-1,20
 370 511 370 511 384 497.5 c 128,-1,21
 398 484 398 484 407 473.5 c 128,-1,22
 416 463 416 463 422 441 c 128,-1,23
 428 419 428 419 431 405 c 128,-1,24
 434 391 434 391 436 361 c 128,-1,25
 438 331 438 331 438 314 c 2,26,27
 438 314 438 314 438 206 c 0,28,29
 438 148 438 148 433 124 c 128,-1,30
 428 100 428 100 422 78 c 128,-1,31
 416 56 416 56 407 45.5 c 128,-1,32
 398 35 398 35 384 21.5 c 128,-1,33
 370 8 370 8 352 2.5 c 128,-1,34
 334 -3 334 -3 310 -7.5 c 128,-1,0
 286 -12 286 -12 256 -12 c 128,-1,1
353 145 m 2,35,-1
 353 374 l 2,36,37
 353 399 353 399 351 411 c 128,-1,38
 349 423 349 423 341 438.5 c 128,-1,39
 333 454 333 454 312 460 c 128,-1,40
 291 466 291 466 256 466 c 128,-1,41
 221 466 221 466 199.5 460 c 128,-1,42
 178 454 178 454 170 438.5 c 128,-1,43
 162 423 162 423 160 411 c 128,-1,44
 158 399 158 399 158 374 c 2,45,-1
 158 145 l 2,46,47
 158 120 158 120 160 108 c 128,-1,48
 162 96 162 96 170 80.5 c 128,-1,49
 178 65 178 65 199.5 59 c 128,-1,50
 221 53 221 53 256 53 c 128,-1,51
 291 53 291 53 312 59 c 128,-1,52
 333 65 333 65 341 80.5 c 128,-1,53
 349 96 349 96 351 108 c 128,-1,54
 353 120 353 120 353 145 c 2,35,-1
390 640 m 1,55,-1
 359 603 l 1,56,-1
 256 670 l 1,57,-1
 153 603 l 1,58,-1
 123 640 l 1,59,-1
 256 756 l 1,60,-1
 390 640 l 1,55,-1
EndSplineSet
EndChar

StartChar: otilde
Encoding: 245 245 181
Width: 513
GlyphClass: 2
Flags: W
LayerCount: 2
Fore
SplineSet
256 -12 m 128,-1,1
 226 -12 226 -12 202 -7.5 c 128,-1,2
 178 -3 178 -3 160 2.5 c 128,-1,3
 142 8 142 8 128.5 21.5 c 128,-1,4
 115 35 115 35 106 45.5 c 128,-1,5
 97 56 97 56 91 78 c 128,-1,6
 85 100 85 100 82 114.5 c 128,-1,7
 79 129 79 129 77 159 c 128,-1,8
 75 189 75 189 75 206 c 2,9,-1
 75 314 l 2,10,11
 75 372 75 372 80 395.5 c 128,-1,12
 85 419 85 419 91 441 c 128,-1,13
 97 463 97 463 106 473.5 c 128,-1,14
 115 484 115 484 128.5 497.5 c 128,-1,15
 142 511 142 511 160 516.5 c 128,-1,16
 178 522 178 522 202 526.5 c 128,-1,17
 226 531 226 531 256 531 c 128,-1,18
 286 531 286 531 310 526.5 c 128,-1,19
 334 522 334 522 352 516.5 c 128,-1,20
 370 511 370 511 384 497.5 c 128,-1,21
 398 484 398 484 407 473.5 c 128,-1,22
 416 463 416 463 422 441 c 128,-1,23
 428 419 428 419 431 405 c 128,-1,24
 434 391 434 391 436 361 c 128,-1,25
 438 331 438 331 438 314 c 2,26,27
 438 314 438 314 438 206 c 0,28,29
 438 148 438 148 433 124 c 128,-1,30
 428 100 428 100 422 78 c 128,-1,31
 416 56 416 56 407 45.5 c 128,-1,32
 398 35 398 35 384 21.5 c 128,-1,33
 370 8 370 8 352 2.5 c 128,-1,34
 334 -3 334 -3 310 -7.5 c 128,-1,0
 286 -12 286 -12 256 -12 c 128,-1,1
353 145 m 2,35,-1
 353 374 l 2,36,37
 353 399 353 399 351 411 c 128,-1,38
 349 423 349 423 341 438.5 c 128,-1,39
 333 454 333 454 312 460 c 128,-1,40
 291 466 291 466 256 466 c 128,-1,41
 221 466 221 466 199.5 460 c 128,-1,42
 178 454 178 454 170 438.5 c 128,-1,43
 162 423 162 423 160 411 c 128,-1,44
 158 399 158 399 158 374 c 2,45,-1
 158 145 l 2,46,47
 158 120 158 120 160 108 c 128,-1,48
 162 96 162 96 170 80.5 c 128,-1,49
 178 65 178 65 199.5 59 c 128,-1,50
 221 53 221 53 256 53 c 128,-1,51
 291 53 291 53 312 59 c 128,-1,52
 333 65 333 65 341 80.5 c 128,-1,53
 349 96 349 96 351 108 c 128,-1,54
 353 120 353 120 353 145 c 2,35,-1
341.5 639 m 128,-1,56
 324 630 324 630 305.5 630 c 128,-1,57
 287 630 287 630 254.5 643.5 c 128,-1,58
 222 657 222 657 200 657 c 128,-1,59
 178 657 178 657 147 637 c 1,60,-1
 125 675 l 1,61,62
 154 704 154 704 171.5 713 c 128,-1,63
 189 722 189 722 207.5 722 c 128,-1,64
 226 722 226 722 258.5 708.5 c 128,-1,65
 291 695 291 695 313 695 c 128,-1,66
 335 695 335 695 366 715 c 1,67,-1
 388 677 l 1,68,55
 359 648 359 648 341.5 639 c 128,-1,56
EndSplineSet
EndChar

